M48
;Layer_Color=9474304
;FILE_FORMAT=2:5
INCH,TZ
;TYPE=PLATED
T1F00S00C0.01600
T2F00S00C0.03543
%
T01
X77500Y59000
X102500Y62500
Y70000
Y77500
Y85000
Y92500
Y100000
Y107500
Y115000
X125000Y112500
Y107500
Y102500
Y97500
Y92500
Y87500
Y82500
Y77500
X131500Y68000
X150000Y62500
X155500Y56500
X152500Y48500
X133500Y43500
X132500Y134500
X121000Y135000
X115500Y145500
X142000Y146000
Y138500
X72500Y115000
X77500Y100000
X175000Y102500
Y97500
Y92500
Y87500
Y82500
Y77500
Y72500
X172500Y61000
X166500Y44500
X169000Y22000
X200000Y54500
Y62000
Y69500
Y77000
Y84500
Y92000
Y99500
X199500Y107000
X200000Y114500
Y122500
X175000
Y117500
Y107500
X173000Y155500
X265000Y141500
Y131000
X273000Y107500
X276500Y92000
X274000Y84000
X258500Y92000
X246000Y61000
X254500Y159000
X215000
X190000
X170000Y169500
X227500Y190000
X155000Y183500
X145500
X146500Y160000
X115500
X77500Y170000
X64500Y176500
X85000Y183500
T02
X37500Y40858
X30429Y47929
X44571
Y62071
X37500Y55000
X51642
X89000Y125000
Y135000
X140000Y31000
X150000
Y21000
X140000
X160000
Y31000
X180000Y170000
X190000
X200000
Y180000
X190000
X180000
X250000
X260000
X270000
Y170000
X260000
X250000
X120000
Y180000
X110000
Y170000
X100000
Y180000
X50000
Y170000
X40000
Y180000
X30000
Y170000
M30
