G04*
G04 #@! TF.GenerationSoftware,Altium Limited,Altium Designer,19.1.5 (86)*
G04*
G04 Layer_Color=65535*
%FSLAX25Y25*%
%MOIN*%
G70*
G01*
G75*
%ADD10C,0.01968*%
%ADD11C,0.00787*%
%ADD12C,0.00500*%
%ADD13C,0.00600*%
D10*
X42743Y32372D02*
G03*
X42743Y32372I-1001J0D01*
G01*
X138000Y12000D02*
G03*
X138000Y12000I-1001J0D01*
G01*
X98000Y161000D02*
G03*
X98000Y161000I-1001J0D01*
G01*
X178000D02*
G03*
X178000Y161000I-1001J0D01*
G01*
X248000D02*
G03*
X248000Y161000I-1001J0D01*
G01*
X28000D02*
G03*
X28000Y161000I-1001J0D01*
G01*
D11*
X263653Y88906D02*
G03*
X263653Y88906I-394J0D01*
G01*
X147244Y146595D02*
G03*
X147244Y146595I-394J0D01*
G01*
X44571Y69142D02*
X58713Y55000D01*
X23358Y47929D02*
X37500Y33787D01*
X23358Y47929D02*
X44571Y69142D01*
X37500Y33787D02*
X58713Y55000D01*
X45160Y41447D02*
X58713Y55000D01*
X284138Y96000D02*
X289256D01*
X283000Y81638D02*
Y86756D01*
X150000Y170138D02*
Y175256D01*
X160744Y150000D02*
X165862D01*
X92500Y112244D02*
Y117362D01*
Y104744D02*
Y109862D01*
X282760Y110638D02*
Y115756D01*
X246744Y99500D02*
X251862D01*
X125138Y47500D02*
X130256D01*
X208500Y119638D02*
Y124756D01*
X159500Y60244D02*
Y65362D01*
X208500Y112138D02*
Y117256D01*
Y104638D02*
Y109756D01*
Y97138D02*
Y102256D01*
Y89638D02*
Y94756D01*
Y82138D02*
Y87256D01*
Y74638D02*
Y79756D01*
Y67138D02*
Y72256D01*
Y59638D02*
Y64756D01*
Y52138D02*
Y57256D01*
X92500Y59744D02*
Y64862D01*
Y67244D02*
Y72362D01*
Y74744D02*
Y79862D01*
Y82244D02*
Y87362D01*
Y89744D02*
Y94862D01*
Y97244D02*
Y102362D01*
X84000Y140000D02*
X94000D01*
Y120000D02*
Y140000D01*
X84000Y120000D02*
X94000D01*
X84000D02*
Y140000D01*
X145833Y16000D02*
X165000D01*
X135000D02*
X165000D01*
X135000Y36000D02*
X165000D01*
X135000Y16000D02*
Y36000D01*
X165000Y16000D02*
Y36000D01*
X105833Y165000D02*
X125000D01*
X95000D02*
X125000D01*
X95000Y185000D02*
X125000D01*
X95000Y165000D02*
Y185000D01*
X125000Y165000D02*
Y185000D01*
X185833Y165000D02*
X205000D01*
X175000D02*
X205000D01*
X175000Y185000D02*
X205000D01*
X175000Y165000D02*
Y185000D01*
X205000Y165000D02*
Y185000D01*
X255833Y165000D02*
X275000D01*
X245000D02*
X275000D01*
X245000Y185000D02*
X275000D01*
X245000Y165000D02*
Y185000D01*
X275000Y165000D02*
Y185000D01*
X35833Y165000D02*
X55000D01*
X25000D02*
X55000D01*
X25000Y185000D02*
X55000D01*
X25000Y165000D02*
Y185000D01*
X55000Y165000D02*
Y185000D01*
D12*
X148800Y130700D02*
G03*
X151200Y130700I1200J0D01*
G01*
X260996Y96701D02*
Y99299D01*
X265681Y101445D02*
X268319D01*
X273004Y96701D02*
Y99299D01*
X145276Y147697D02*
X154724D01*
X145276D02*
Y157303D01*
X154724D01*
Y147697D02*
Y157303D01*
X45500Y37999D02*
X48166D01*
X46833D01*
Y34000D01*
X49499Y37999D02*
Y34000D01*
Y35999D01*
X52165D01*
Y37999D01*
Y34000D01*
X53497Y37999D02*
Y34666D01*
X54164Y34000D01*
X55497D01*
X56163Y34666D01*
Y37999D01*
X57496Y34000D02*
Y37999D01*
X58829Y36666D01*
X60162Y37999D01*
Y34000D01*
X61495Y37999D02*
Y34000D01*
X63494D01*
X64161Y34666D01*
Y35333D01*
X63494Y35999D01*
X61495D01*
X63494D01*
X64161Y36666D01*
Y37332D01*
X63494Y37999D01*
X61495D01*
X294166Y97332D02*
X293499Y97999D01*
X292166D01*
X291500Y97332D01*
Y94666D01*
X292166Y94000D01*
X293499D01*
X294166Y94666D01*
X295499Y97332D02*
X296165Y97999D01*
X297498D01*
X298165Y97332D01*
Y96666D01*
X297498Y95999D01*
X296832D01*
X297498D01*
X298165Y95333D01*
Y94666D01*
X297498Y94000D01*
X296165D01*
X295499Y94666D01*
X294166Y85332D02*
X293499Y85999D01*
X292166D01*
X291500Y85332D01*
Y82666D01*
X292166Y82000D01*
X293499D01*
X294166Y82666D01*
X298165Y82000D02*
X295499D01*
X298165Y84666D01*
Y85332D01*
X297498Y85999D01*
X296165D01*
X295499Y85332D01*
X219166Y115832D02*
X218499Y116499D01*
X217166D01*
X216500Y115832D01*
Y115166D01*
X217166Y114499D01*
X218499D01*
X219166Y113833D01*
Y113166D01*
X218499Y112500D01*
X217166D01*
X216500Y113166D01*
X223165Y115832D02*
X222498Y116499D01*
X221165D01*
X220499Y115832D01*
Y113166D01*
X221165Y112500D01*
X222498D01*
X223165Y113166D01*
X224497Y116499D02*
Y112500D01*
X227163D01*
X219166Y123332D02*
X218499Y123999D01*
X217166D01*
X216500Y123332D01*
Y122666D01*
X217166Y121999D01*
X218499D01*
X219166Y121333D01*
Y120667D01*
X218499Y120000D01*
X217166D01*
X216500Y120667D01*
X220499Y123999D02*
Y120000D01*
X222498D01*
X223165Y120667D01*
Y123332D01*
X222498Y123999D01*
X220499D01*
X224497Y120000D02*
Y122666D01*
X225830Y123999D01*
X227163Y122666D01*
Y120000D01*
Y121999D01*
X224497D01*
X219166Y104332D02*
X218499Y104999D01*
X217166D01*
X216500Y104332D01*
Y103666D01*
X217166Y102999D01*
X218499D01*
X219166Y102333D01*
Y101666D01*
X218499Y101000D01*
X217166D01*
X216500Y101666D01*
X220499Y104999D02*
X223165D01*
Y104332D01*
X220499Y101666D01*
Y101000D01*
X219166Y89832D02*
X218499Y90499D01*
X217166D01*
X216500Y89832D01*
Y89166D01*
X217166Y88499D01*
X218499D01*
X219166Y87833D01*
Y87166D01*
X218499Y86500D01*
X217166D01*
X216500Y87166D01*
X223165Y90499D02*
X221832Y89832D01*
X220499Y88499D01*
Y87166D01*
X221165Y86500D01*
X222498D01*
X223165Y87166D01*
Y87833D01*
X222498Y88499D01*
X220499D01*
X219666Y74832D02*
X218999Y75499D01*
X217666D01*
X217000Y74832D01*
Y74166D01*
X217666Y73499D01*
X218999D01*
X219666Y72833D01*
Y72166D01*
X218999Y71500D01*
X217666D01*
X217000Y72166D01*
X223664Y75499D02*
X220999D01*
Y73499D01*
X222332Y74166D01*
X222998D01*
X223664Y73499D01*
Y72166D01*
X222998Y71500D01*
X221665D01*
X220999Y72166D01*
X219666Y59332D02*
X218999Y59999D01*
X217666D01*
X217000Y59332D01*
Y58666D01*
X217666Y57999D01*
X218999D01*
X219666Y57333D01*
Y56666D01*
X218999Y56000D01*
X217666D01*
X217000Y56666D01*
X222998Y56000D02*
Y59999D01*
X220999Y57999D01*
X223664D01*
X80166Y67832D02*
X79499Y68499D01*
X78166D01*
X77500Y67832D01*
Y67166D01*
X78166Y66499D01*
X79499D01*
X80166Y65833D01*
Y65166D01*
X79499Y64500D01*
X78166D01*
X77500Y65166D01*
X81499Y67832D02*
X82165Y68499D01*
X83498D01*
X84165Y67832D01*
Y67166D01*
X83498Y66499D01*
X82832D01*
X83498D01*
X84165Y65833D01*
Y65166D01*
X83498Y64500D01*
X82165D01*
X81499Y65166D01*
X79666Y82832D02*
X78999Y83499D01*
X77666D01*
X77000Y82832D01*
Y82166D01*
X77666Y81499D01*
X78999D01*
X79666Y80833D01*
Y80166D01*
X78999Y79500D01*
X77666D01*
X77000Y80166D01*
X83665Y79500D02*
X80999D01*
X83665Y82166D01*
Y82832D01*
X82998Y83499D01*
X81665D01*
X80999Y82832D01*
X81666Y97332D02*
X80999Y97999D01*
X79666D01*
X79000Y97332D01*
Y96666D01*
X79666Y95999D01*
X80999D01*
X81666Y95333D01*
Y94666D01*
X80999Y94000D01*
X79666D01*
X79000Y94666D01*
X82999Y94000D02*
X84332D01*
X83665D01*
Y97999D01*
X82999Y97332D01*
X79666Y113832D02*
X78999Y114499D01*
X77666D01*
X77000Y113832D01*
Y113166D01*
X77666Y112499D01*
X78999D01*
X79666Y111833D01*
Y111167D01*
X78999Y110500D01*
X77666D01*
X77000Y111167D01*
X80999Y113832D02*
X81665Y114499D01*
X82998D01*
X83665Y113832D01*
Y111167D01*
X82998Y110500D01*
X81665D01*
X80999Y111167D01*
Y113832D01*
X137502Y134399D02*
Y132114D01*
X136550Y133828D02*
X138454Y132685D01*
Y133828D02*
X136550Y132685D01*
X147000Y138999D02*
Y135667D01*
X147667Y135000D01*
X148999D01*
X149666Y135667D01*
Y138999D01*
X153665Y135000D02*
X150999D01*
X153665Y137666D01*
Y138332D01*
X152998Y138999D01*
X151665D01*
X150999Y138332D01*
X245100Y187900D02*
Y191899D01*
X247099D01*
X247766Y191232D01*
Y189899D01*
X247099Y189233D01*
X245100D01*
X251098Y187900D02*
Y191899D01*
X249099Y189899D01*
X251764D01*
X175100Y187900D02*
Y191899D01*
X177099D01*
X177766Y191232D01*
Y189899D01*
X177099Y189233D01*
X175100D01*
X179099Y191232D02*
X179765Y191899D01*
X181098D01*
X181764Y191232D01*
Y190566D01*
X181098Y189899D01*
X180432D01*
X181098D01*
X181764Y189233D01*
Y188567D01*
X181098Y187900D01*
X179765D01*
X179099Y188567D01*
X95100Y187900D02*
Y191899D01*
X97099D01*
X97766Y191232D01*
Y189899D01*
X97099Y189233D01*
X95100D01*
X101765Y187900D02*
X99099D01*
X101765Y190566D01*
Y191232D01*
X101098Y191899D01*
X99765D01*
X99099Y191232D01*
X142000Y13999D02*
X143333D01*
X142666D01*
Y10000D01*
X142000D01*
X143333D01*
X145332D02*
Y13999D01*
X147998Y10000D01*
Y13999D01*
X149331Y10000D02*
Y13999D01*
X151330D01*
X151997Y13332D01*
Y11999D01*
X151330Y11333D01*
X149331D01*
X153330Y13999D02*
Y10667D01*
X153996Y10000D01*
X155329D01*
X155996Y10667D01*
Y13999D01*
X157328D02*
X159994D01*
X158661D01*
Y10000D01*
X81500Y122500D02*
X78834D01*
X77501Y123833D01*
X78834Y125166D01*
X81500D01*
X79501D01*
Y122500D01*
X77501Y126499D02*
X81500D01*
Y128498D01*
X80834Y129165D01*
X78168D01*
X77501Y128498D01*
Y126499D01*
Y130497D02*
X81500D01*
Y132497D01*
X80834Y133163D01*
X78168D01*
X77501Y132497D01*
Y130497D01*
X81500Y134496D02*
X77501D01*
Y136495D01*
X78168Y137162D01*
X79501D01*
X80167Y136495D01*
Y134496D01*
Y135829D02*
X81500Y137162D01*
X25500Y188000D02*
Y191999D01*
X27499D01*
X28166Y191332D01*
Y189999D01*
X27499Y189333D01*
X25500D01*
X29499Y188000D02*
X30832D01*
X30165D01*
Y191999D01*
X29499Y191332D01*
X161166Y173832D02*
X160499Y174499D01*
X159167D01*
X158500Y173832D01*
Y171167D01*
X159167Y170500D01*
X160499D01*
X161166Y171167D01*
X162499Y170500D02*
X163832D01*
X163165D01*
Y174499D01*
X162499Y173832D01*
X138500Y154499D02*
Y151166D01*
X139166Y150500D01*
X140499D01*
X141166Y151166D01*
Y154499D01*
X142499Y150500D02*
X143832D01*
X143165D01*
Y154499D01*
X142499Y153832D01*
D13*
X278400Y139400D02*
X281600D01*
X278400Y122600D02*
X281600D01*
X134550Y68800D02*
X165450D01*
X134550Y131200D02*
X165450D01*
X134550Y129910D02*
Y131200D01*
X165450Y68800D02*
Y70090D01*
X134550Y68800D02*
Y70090D01*
X165450Y129910D02*
Y131200D01*
M02*
