G04*
G04 #@! TF.GenerationSoftware,Altium Limited,Altium Designer,19.1.5 (86)*
G04*
G04 Layer_Physical_Order=2*
G04 Layer_Color=16711680*
%FSLAX25Y25*%
%MOIN*%
G70*
G01*
G75*
%ADD35C,0.02000*%
%ADD36C,0.01000*%
%ADD37P,0.08352X4X90.0*%
%ADD38C,0.05906*%
%ADD39R,0.05906X0.05906*%
%ADD40R,0.05906X0.05906*%
%ADD41C,0.03000*%
D35*
X21500Y44500D02*
Y161500D01*
X30000Y170000D01*
X21500Y44500D02*
X25142Y40858D01*
X37500D01*
X276328Y180000D02*
X281000Y175328D01*
X270000Y180000D02*
X276328D01*
X281000Y157500D02*
Y175328D01*
X265000Y141500D02*
X281000Y157500D01*
X132500Y146000D02*
X146500Y160000D01*
X132500Y134500D02*
Y146000D01*
X131500Y134500D02*
X132500D01*
X122000Y125000D02*
X131500Y134500D01*
X89000Y125000D02*
X122000D01*
X118000Y54500D02*
X128000Y64500D01*
X82000Y54500D02*
X118000D01*
X77500Y59000D02*
X82000Y54500D01*
X169000Y16500D02*
Y22000D01*
X159500Y7000D02*
X169000Y16500D01*
X137000Y7000D02*
X159500D01*
X128000Y16000D02*
X137000Y7000D01*
X128000Y16000D02*
Y64500D01*
X131500Y68000D01*
X152500Y48500D02*
X156500Y44500D01*
X166500D01*
X246000Y61000D02*
Y79500D01*
X258500Y92000D01*
X266500Y84000D01*
X274000D01*
X261682Y95182D02*
Y96182D01*
X273000Y107500D01*
X258500Y92000D02*
X261682Y95182D01*
X276500Y92000D02*
Y119500D01*
X265000Y131000D02*
X276500Y119500D01*
D36*
X215000Y159000D02*
X254500D01*
X190000Y190000D02*
X227500D01*
X180000Y180000D02*
X190000Y190000D01*
X50000Y170000D02*
X77500D01*
X100000D02*
X110000Y160000D01*
X115500D01*
X117500Y162500D02*
X124500D01*
X110000Y170000D02*
X117500Y162500D01*
X124500D02*
X145500Y183500D01*
X155000Y97500D02*
Y183500D01*
Y97500D02*
X175000Y77500D01*
X152000Y95500D02*
Y182500D01*
X145000Y189500D02*
X152000Y182500D01*
X119500Y189500D02*
X145000D01*
X110000Y180000D02*
X119500Y189500D01*
X85000Y183000D02*
X91500Y176500D01*
X85000Y183000D02*
Y183500D01*
X91500Y153500D02*
Y176500D01*
Y153500D02*
X99500Y145500D01*
X115500D01*
X105000Y112500D02*
X125000D01*
X72500Y115000D02*
X102500D01*
X105000Y112500D01*
X102500Y107500D02*
X125000D01*
X40000Y183500D02*
X42500Y186000D01*
X40000Y180000D02*
Y183500D01*
X42500Y186000D02*
X55000D01*
X64500Y176500D01*
X89000Y135000D02*
X121000D01*
X79459Y188500D02*
X84459Y183500D01*
X38500Y188500D02*
X79459D01*
X30000Y180000D02*
X38500Y188500D01*
X84459Y183500D02*
X85000D01*
X175047Y169500D02*
X175547Y170000D01*
X170000Y169500D02*
X175047D01*
X175547Y170000D02*
X180000D01*
X142000Y138500D02*
Y146000D01*
X77500Y100000D02*
X102500D01*
X67000Y92500D02*
X102500D01*
X60000Y85500D02*
X67000Y92500D01*
X60000Y54000D02*
Y85500D01*
X53929Y47929D02*
X60000Y54000D01*
X44571Y47929D02*
X53929D01*
X65000Y107500D02*
X102500D01*
X57500Y100000D02*
X65000Y107500D01*
X57500Y60858D02*
Y100000D01*
X51642Y55000D02*
X57500Y60858D01*
X252500Y162500D02*
X260000Y170000D01*
X213500Y162500D02*
X252500D01*
X201500Y150500D02*
X213500Y162500D01*
X186000Y150500D02*
X201500D01*
X171500Y136000D02*
X186000Y150500D01*
X171500Y111000D02*
Y136000D01*
Y111000D02*
X175000Y107500D01*
X233500Y188500D02*
X251500D01*
X260000Y180000D01*
X199500Y154500D02*
X233500Y188500D01*
X184000Y154500D02*
X199500D01*
X169000Y139500D02*
X184000Y154500D01*
X169000Y108500D02*
Y139500D01*
Y108500D02*
X175000Y102500D01*
X166500Y143500D02*
X182000Y159000D01*
X166500Y106000D02*
Y143500D01*
Y106000D02*
X175000Y97500D01*
X164000Y146500D02*
X173000Y155500D01*
X164000Y103500D02*
Y146500D01*
Y103500D02*
X175000Y92500D01*
Y122500D02*
X200000D01*
X175000Y97500D02*
X194500D01*
X200000Y92000D01*
X182000Y159000D02*
X190000D01*
X175000Y102500D02*
X197000D01*
X200000Y99500D01*
X194500Y162000D02*
X199061Y166561D01*
Y169061D01*
X200000Y170000D01*
X175000Y162000D02*
X194500D01*
X161000Y148000D02*
X175000Y162000D01*
X161000Y101500D02*
Y148000D01*
Y101500D02*
X175000Y87500D01*
X158000Y179914D02*
X158586Y180500D01*
X179500D01*
X180000Y180000D01*
X158000Y99500D02*
Y179914D01*
Y99500D02*
X175000Y82500D01*
X152000Y95500D02*
X175000Y72500D01*
X189500Y87500D02*
X200000Y77000D01*
X175000Y87500D02*
X189500D01*
X175000Y92500D02*
X192000D01*
X200000Y84500D01*
X175000Y117500D02*
X197000D01*
X200000Y114500D01*
X171959Y61000D02*
X172500D01*
X170459Y62500D02*
X171959Y61000D01*
X150000Y62500D02*
X170459D01*
X102500D02*
X110000D01*
X125000Y77500D01*
X102500Y70000D02*
X112500D01*
X125000Y82500D01*
X102500Y77500D02*
X115000D01*
X125000Y87500D01*
X102500Y85000D02*
X117500D01*
X125000Y92500D01*
X102500D02*
X120000D01*
X125000Y97500D01*
X102500Y100000D02*
X122500D01*
X125000Y102500D01*
X193000Y54500D02*
X200000D01*
X175000Y72500D02*
X193000Y54500D01*
X184500Y77500D02*
X200000Y62000D01*
X175000Y77500D02*
X184500D01*
X187000Y82500D02*
X200000Y69500D01*
X175000Y82500D02*
X187000D01*
X199250Y107250D02*
X199500Y107000D01*
X175250Y107250D02*
X199250D01*
X175000Y107500D02*
X175250Y107250D01*
X143500Y14500D02*
X150000Y21000D01*
X134500Y14500D02*
X143500D01*
X133500Y15500D02*
X134500Y14500D01*
X133500Y15500D02*
Y43500D01*
X142500D01*
X155500Y56500D01*
D37*
X37500Y40858D02*
D03*
D38*
X30429Y47929D02*
D03*
X44571D02*
D03*
X37500Y55000D02*
D03*
X51642D02*
D03*
X44571Y62071D02*
D03*
X89000Y135000D02*
D03*
X160000Y31000D02*
D03*
Y21000D02*
D03*
X150000Y31000D02*
D03*
Y21000D02*
D03*
X140000Y31000D02*
D03*
X120000Y180000D02*
D03*
Y170000D02*
D03*
X110000Y180000D02*
D03*
Y170000D02*
D03*
X100000Y180000D02*
D03*
X200000D02*
D03*
Y170000D02*
D03*
X190000Y180000D02*
D03*
Y170000D02*
D03*
X180000Y180000D02*
D03*
X270000D02*
D03*
Y170000D02*
D03*
X260000Y180000D02*
D03*
Y170000D02*
D03*
X250000Y180000D02*
D03*
X50000D02*
D03*
Y170000D02*
D03*
X40000Y180000D02*
D03*
Y170000D02*
D03*
X30000Y180000D02*
D03*
D39*
X89000Y125000D02*
D03*
D40*
X140000Y21000D02*
D03*
X100000Y170000D02*
D03*
X180000D02*
D03*
X250000D02*
D03*
X30000D02*
D03*
D41*
X215000Y159000D02*
D03*
X254500D02*
D03*
X227500Y190000D02*
D03*
X77500Y170000D02*
D03*
X115500Y160000D02*
D03*
X145500Y183500D02*
D03*
X155000D02*
D03*
X265000Y141500D02*
D03*
X115500Y145500D02*
D03*
X125000Y112500D02*
D03*
Y107500D02*
D03*
X64500Y176500D02*
D03*
X121000Y135000D02*
D03*
X85000Y183500D02*
D03*
X170000Y169500D02*
D03*
X146500Y160000D02*
D03*
X142000Y138500D02*
D03*
Y146000D02*
D03*
X132500Y134500D02*
D03*
X77500Y59000D02*
D03*
X72500Y115000D02*
D03*
X77500Y100000D02*
D03*
X169000Y22000D02*
D03*
X131500Y68000D02*
D03*
X175000Y122500D02*
D03*
X190000Y159000D02*
D03*
X173000Y155500D02*
D03*
X175000Y102500D02*
D03*
Y92500D02*
D03*
Y117500D02*
D03*
Y87500D02*
D03*
X172500Y61000D02*
D03*
X150000Y62500D02*
D03*
X152500Y48500D02*
D03*
X166500Y44500D02*
D03*
X246000Y61000D02*
D03*
X274000Y84000D02*
D03*
X102500Y62500D02*
D03*
X125000Y77500D02*
D03*
X102500Y70000D02*
D03*
X125000Y82500D02*
D03*
X102500Y77500D02*
D03*
X125000Y87500D02*
D03*
X102500Y85000D02*
D03*
X125000Y92500D02*
D03*
X102500D02*
D03*
X125000Y97500D02*
D03*
X102500Y100000D02*
D03*
X125000Y102500D02*
D03*
X102500Y107500D02*
D03*
Y115000D02*
D03*
X200000Y54500D02*
D03*
X175000Y72500D02*
D03*
X200000Y62000D02*
D03*
X175000Y77500D02*
D03*
X200000Y69500D02*
D03*
X175000Y82500D02*
D03*
X200000Y77000D02*
D03*
Y84500D02*
D03*
Y92000D02*
D03*
X175000Y97500D02*
D03*
X200000Y99500D02*
D03*
X199500Y107000D02*
D03*
X175000Y107500D02*
D03*
X200000Y114500D02*
D03*
Y122500D02*
D03*
X133500Y43500D02*
D03*
X155500Y56500D02*
D03*
X258500Y92000D02*
D03*
X273000Y107500D02*
D03*
X276500Y92000D02*
D03*
X265000Y131000D02*
D03*
M02*
