G04*
G04 #@! TF.GenerationSoftware,Altium Limited,Altium Designer,19.1.5 (86)*
G04*
G04 Layer_Color=8388736*
%FSLAX25Y25*%
%MOIN*%
G70*
G01*
G75*
%ADD14R,0.06506X0.05718*%
%ADD15R,0.05718X0.06506*%
%ADD16R,0.07700X0.18300*%
%ADD17R,0.02923X0.05364*%
%ADD18R,0.06112X0.04537*%
%ADD19R,0.09700X0.02800*%
%ADD20R,0.01584X0.01683*%
%ADD21R,0.01683X0.01584*%
%ADD22P,0.09200X4X90.0*%
%ADD23C,0.06506*%
%ADD24R,0.06506X0.06506*%
%ADD25R,0.06506X0.06506*%
%ADD26C,0.03600*%
G36*
X146207Y150774D02*
Y152258D01*
X147789D01*
Y150774D01*
X146207D01*
D02*
G37*
G36*
X146305Y148707D02*
Y150289D01*
X147789D01*
Y148707D01*
X146305D01*
D02*
G37*
G36*
X148274D02*
Y150289D01*
X149758D01*
Y148707D01*
X148274D01*
D02*
G37*
G36*
X146207Y152742D02*
Y154226D01*
X147789D01*
Y152742D01*
X146207D01*
D02*
G37*
G36*
X146305Y154711D02*
Y156293D01*
X147789D01*
Y154711D01*
X146305D01*
D02*
G37*
G36*
X148274D02*
Y156293D01*
X149758D01*
Y154711D01*
X148274D01*
D02*
G37*
G36*
X150242Y148707D02*
Y150289D01*
X151726D01*
Y148707D01*
X150242D01*
D02*
G37*
G36*
X152211D02*
Y150289D01*
X153695D01*
Y148707D01*
X152211D01*
D02*
G37*
G36*
Y150774D02*
Y152258D01*
X153793D01*
Y150774D01*
X152211D01*
D02*
G37*
G36*
X150242Y154711D02*
Y156293D01*
X151726D01*
Y154711D01*
X150242D01*
D02*
G37*
G36*
X152211D02*
Y156293D01*
X153695D01*
Y154711D01*
X152211D01*
D02*
G37*
G36*
Y152742D02*
Y154226D01*
X153793D01*
Y152742D01*
X152211D01*
D02*
G37*
D14*
X286500Y99740D02*
D03*
Y92260D02*
D03*
X163500Y146260D02*
D03*
Y153740D02*
D03*
X249500Y95760D02*
D03*
Y103240D02*
D03*
X127500Y51240D02*
D03*
Y43760D02*
D03*
D15*
X279260Y84000D02*
D03*
X286740D02*
D03*
X146260Y172500D02*
D03*
X153740D02*
D03*
X96240Y115000D02*
D03*
X88760D02*
D03*
X96240Y107500D02*
D03*
X88760D02*
D03*
X279020Y113000D02*
D03*
X286500D02*
D03*
X204760Y122000D02*
D03*
X212240D02*
D03*
X163240Y63000D02*
D03*
X155760D02*
D03*
X204760Y114500D02*
D03*
X212240D02*
D03*
X204760Y107000D02*
D03*
X212240D02*
D03*
X204760Y99500D02*
D03*
X212240D02*
D03*
X204760Y92000D02*
D03*
X212240D02*
D03*
X204760Y84500D02*
D03*
X212240D02*
D03*
X204760Y77000D02*
D03*
X212240D02*
D03*
X204760Y69500D02*
D03*
X212240D02*
D03*
X204760Y62000D02*
D03*
X212240D02*
D03*
X204760Y54500D02*
D03*
X212240D02*
D03*
X96240Y62500D02*
D03*
X88760D02*
D03*
X96240Y70000D02*
D03*
X88760D02*
D03*
X96240Y77500D02*
D03*
X88760D02*
D03*
X96240Y85000D02*
D03*
X88760D02*
D03*
X96240Y92500D02*
D03*
X88760D02*
D03*
X96240Y100000D02*
D03*
X88760D02*
D03*
D16*
X273500Y131000D02*
D03*
X286500D02*
D03*
D17*
X263260Y93059D02*
D03*
X267000D02*
D03*
X270740D02*
D03*
Y102941D02*
D03*
X263260D02*
D03*
D18*
X163169Y52500D02*
D03*
X171831Y56240D02*
D03*
Y48760D02*
D03*
X138169Y52500D02*
D03*
X146831Y56240D02*
D03*
Y48760D02*
D03*
D19*
X132200Y127500D02*
D03*
Y122500D02*
D03*
Y117500D02*
D03*
Y112500D02*
D03*
Y107500D02*
D03*
Y102500D02*
D03*
Y97500D02*
D03*
Y92500D02*
D03*
Y87500D02*
D03*
Y82500D02*
D03*
Y77500D02*
D03*
Y72500D02*
D03*
X167800D02*
D03*
Y82500D02*
D03*
Y87500D02*
D03*
Y92500D02*
D03*
Y97500D02*
D03*
Y102500D02*
D03*
Y107500D02*
D03*
Y112500D02*
D03*
Y117500D02*
D03*
Y122500D02*
D03*
Y127500D02*
D03*
Y77500D02*
D03*
D20*
X147047Y149498D02*
D03*
X149016D02*
D03*
X150984D02*
D03*
X152953D02*
D03*
Y155502D02*
D03*
X150984D02*
D03*
X149016D02*
D03*
X147047D02*
D03*
D21*
X153002Y151516D02*
D03*
Y153484D02*
D03*
X146998D02*
D03*
Y151516D02*
D03*
D22*
X37500Y40858D02*
D03*
D23*
X30429Y47929D02*
D03*
X44571D02*
D03*
X37500Y55000D02*
D03*
X51642D02*
D03*
X44571Y62071D02*
D03*
X89000Y135000D02*
D03*
X160000Y31000D02*
D03*
Y21000D02*
D03*
X150000Y31000D02*
D03*
Y21000D02*
D03*
X140000Y31000D02*
D03*
X120000Y180000D02*
D03*
Y170000D02*
D03*
X110000Y180000D02*
D03*
Y170000D02*
D03*
X100000Y180000D02*
D03*
X200000D02*
D03*
Y170000D02*
D03*
X190000Y180000D02*
D03*
Y170000D02*
D03*
X180000Y180000D02*
D03*
X270000D02*
D03*
Y170000D02*
D03*
X260000Y180000D02*
D03*
Y170000D02*
D03*
X250000Y180000D02*
D03*
X50000D02*
D03*
Y170000D02*
D03*
X40000Y180000D02*
D03*
Y170000D02*
D03*
X30000Y180000D02*
D03*
D24*
X89000Y125000D02*
D03*
D25*
X140000Y21000D02*
D03*
X100000Y170000D02*
D03*
X180000D02*
D03*
X250000D02*
D03*
X30000D02*
D03*
D26*
X215000Y159000D02*
D03*
X254500D02*
D03*
X227500Y190000D02*
D03*
X77500Y170000D02*
D03*
X115500Y160000D02*
D03*
X145500Y183500D02*
D03*
X155000D02*
D03*
X265000Y141500D02*
D03*
X115500Y145500D02*
D03*
X125000Y112500D02*
D03*
Y107500D02*
D03*
X64500Y176500D02*
D03*
X121000Y135000D02*
D03*
X85000Y183500D02*
D03*
X170000Y169500D02*
D03*
X146500Y160000D02*
D03*
X142000Y138500D02*
D03*
Y146000D02*
D03*
X132500Y134500D02*
D03*
X77500Y59000D02*
D03*
X72500Y115000D02*
D03*
X77500Y100000D02*
D03*
X169000Y22000D02*
D03*
X131500Y68000D02*
D03*
X175000Y122500D02*
D03*
X190000Y159000D02*
D03*
X173000Y155500D02*
D03*
X175000Y102500D02*
D03*
Y92500D02*
D03*
Y117500D02*
D03*
Y87500D02*
D03*
X172500Y61000D02*
D03*
X150000Y62500D02*
D03*
X152500Y48500D02*
D03*
X166500Y44500D02*
D03*
X246000Y61000D02*
D03*
X274000Y84000D02*
D03*
X102500Y62500D02*
D03*
X125000Y77500D02*
D03*
X102500Y70000D02*
D03*
X125000Y82500D02*
D03*
X102500Y77500D02*
D03*
X125000Y87500D02*
D03*
X102500Y85000D02*
D03*
X125000Y92500D02*
D03*
X102500D02*
D03*
X125000Y97500D02*
D03*
X102500Y100000D02*
D03*
X125000Y102500D02*
D03*
X102500Y107500D02*
D03*
Y115000D02*
D03*
X200000Y54500D02*
D03*
X175000Y72500D02*
D03*
X200000Y62000D02*
D03*
X175000Y77500D02*
D03*
X200000Y69500D02*
D03*
X175000Y82500D02*
D03*
X200000Y77000D02*
D03*
Y84500D02*
D03*
Y92000D02*
D03*
X175000Y97500D02*
D03*
X200000Y99500D02*
D03*
X199500Y107000D02*
D03*
X175000Y107500D02*
D03*
X200000Y114500D02*
D03*
Y122500D02*
D03*
X133500Y43500D02*
D03*
X155500Y56500D02*
D03*
X258500Y92000D02*
D03*
X273000Y107500D02*
D03*
X276500Y92000D02*
D03*
X265000Y131000D02*
D03*
M02*
