G04*
G04 #@! TF.GenerationSoftware,Altium Limited,Altium Designer,19.1.5 (86)*
G04*
G04 Layer_Physical_Order=1*
G04 Layer_Color=255*
%FSLAX25Y25*%
%MOIN*%
G70*
G01*
G75*
%ADD19R,0.03937X0.04724*%
%ADD20R,0.00984X0.01083*%
%ADD21R,0.01083X0.00984*%
%ADD22R,0.05906X0.05118*%
%ADD23C,0.01000*%
%ADD24C,0.02000*%
%ADD25C,0.05906*%
%ADD26R,0.05906X0.05906*%
%ADD27C,0.03000*%
D19*
X27807Y10000D02*
D03*
X34500D02*
D03*
X41000D02*
D03*
X47693D02*
D03*
D20*
X37047Y21998D02*
D03*
X39016D02*
D03*
X40984D02*
D03*
X42953D02*
D03*
Y28002D02*
D03*
X40984D02*
D03*
X39016D02*
D03*
X37047D02*
D03*
D21*
X43002Y24016D02*
D03*
Y25984D02*
D03*
X36998D02*
D03*
Y24016D02*
D03*
D22*
X31500Y34000D02*
D03*
Y41480D02*
D03*
X39000Y34000D02*
D03*
Y41480D02*
D03*
D23*
X26500Y25000D02*
Y33414D01*
X27086Y34000D01*
X31500D01*
X31894D02*
X39000D01*
X31500D02*
X31894D01*
X39000D02*
X39016Y33984D01*
Y28002D02*
Y33984D01*
X34998Y28002D02*
X37047D01*
X33953Y29047D02*
X34998Y28002D01*
X33953Y29047D02*
Y31941D01*
X31894Y34000D02*
X33953Y31941D01*
X39000Y41480D02*
X39020Y41500D01*
X49959D01*
X51459Y40000D01*
X52000D01*
X31260Y41240D02*
X31500Y41480D01*
X31000Y41500D02*
X31240Y41740D01*
X24041Y41500D02*
X31000D01*
X22541Y40000D02*
X24041Y41500D01*
X22000Y40000D02*
X22541D01*
X31240Y41740D02*
X31500Y41480D01*
X39000D02*
X39240Y41240D01*
X52000Y37083D02*
Y40000D01*
X22000Y25000D02*
Y40000D01*
X47693Y10000D02*
X52500D01*
X67000D02*
X67250Y10250D01*
X22201Y16000D02*
X27807Y10394D01*
X42953Y21998D02*
X51998D01*
X60000Y30000D01*
X67500D01*
X32000Y20000D02*
X35049D01*
X12500D02*
X32000D01*
X35049D02*
X37006Y21957D01*
X37039D01*
X37047Y21965D01*
Y21998D01*
X40984Y10016D02*
Y21998D01*
Y10016D02*
X41000Y10000D01*
X34500D02*
X41000D01*
X42953Y28035D02*
X52000Y37083D01*
X42953Y28002D02*
Y28035D01*
X40984Y28002D02*
X42953D01*
X42961Y27994D01*
Y25992D02*
Y27994D01*
Y25992D02*
X42968Y25984D01*
X43002D01*
D24*
X22000Y16000D02*
X22201D01*
X27807Y10000D02*
Y10394D01*
X67500Y40000D02*
X67750Y40250D01*
D25*
X12500Y40000D02*
D03*
Y20000D02*
D03*
Y30000D02*
D03*
X67500Y40000D02*
D03*
Y20000D02*
D03*
Y30000D02*
D03*
D26*
X12500Y10000D02*
D03*
X67500D02*
D03*
D27*
X52000Y40000D02*
D03*
X22000D02*
D03*
X52500Y10000D02*
D03*
X60000Y20000D02*
D03*
X26500Y25000D02*
D03*
X22000D02*
D03*
Y16000D02*
D03*
X60000Y30000D02*
D03*
X32000Y20000D02*
D03*
M02*
