G04*
G04 #@! TF.GenerationSoftware,Altium Limited,Altium Designer,19.1.5 (86)*
G04*
G04 Layer_Color=65535*
%FSLAX25Y25*%
%MOIN*%
G70*
G01*
G75*
%ADD10C,0.00787*%
%ADD11C,0.00500*%
D10*
X37244Y19094D02*
G03*
X37244Y19094I-394J0D01*
G01*
X17500Y5000D02*
Y45000D01*
X7500D02*
X17500D01*
X7500Y5000D02*
Y45000D01*
Y5000D02*
X17500D01*
X72500D02*
Y45000D01*
X62500D02*
X72500D01*
X62500Y5000D02*
Y45000D01*
Y5000D02*
X72500D01*
X31154Y7500D02*
Y12500D01*
X29000Y37740D02*
X34000D01*
X36500D02*
X41500D01*
X44346Y7500D02*
Y12500D01*
D11*
X35276Y20197D02*
X44724D01*
X35276D02*
Y29803D01*
X44724D01*
Y20197D02*
Y29803D01*
X57000Y44500D02*
Y47499D01*
X58499D01*
X58999Y46999D01*
Y46000D01*
X58499Y45500D01*
X57000D01*
X59999Y44500D02*
X60999D01*
X60499D01*
Y47499D01*
X59999Y46999D01*
X3914Y14147D02*
X4526Y13793D01*
X4785Y12828D01*
X4431Y12216D01*
X3949Y12086D01*
X3337Y12440D01*
X3207Y12923D01*
X3337Y12440D01*
X2983Y11828D01*
X2500Y11698D01*
X1888Y12052D01*
X1629Y13017D01*
X1983Y13629D01*
X5173Y11379D02*
X3242Y10862D01*
X2535Y9638D01*
X3759Y8931D01*
X5691Y9448D01*
X5466Y8353D02*
X6079Y8000D01*
X6337Y7034D01*
X5984Y6422D01*
X5501Y6293D01*
X4889Y6646D01*
X4760Y7129D01*
X4889Y6646D01*
X4535Y6034D01*
X4053Y5904D01*
X3441Y6258D01*
X3182Y7224D01*
X3535Y7836D01*
X4431Y42216D02*
X4785Y42828D01*
X4526Y43793D01*
X3914Y44147D01*
X1983Y43629D01*
X1629Y43017D01*
X1888Y42052D01*
X2500Y41698D01*
X3466Y41957D01*
X3207Y42922D01*
X2276Y40603D02*
X5173Y41379D01*
X2794Y38672D01*
X5691Y39448D01*
X5949Y38482D02*
X3052Y37706D01*
X3441Y36258D01*
X4053Y35904D01*
X5984Y36422D01*
X6337Y37034D01*
X5949Y38482D01*
X4431Y22216D02*
X4785Y22828D01*
X4526Y23793D01*
X3914Y24147D01*
X3431Y24017D01*
X3078Y23405D01*
X3337Y22440D01*
X2983Y21827D01*
X2500Y21698D01*
X1888Y22052D01*
X1629Y23017D01*
X1983Y23629D01*
X5208Y19319D02*
X5561Y19931D01*
X5302Y20897D01*
X4690Y21250D01*
X2759Y20732D01*
X2406Y20120D01*
X2664Y19155D01*
X3277Y18801D01*
X5949Y18483D02*
X3052Y17706D01*
X3570Y15775D01*
X4431Y32216D02*
X4785Y32828D01*
X4526Y33793D01*
X3914Y34147D01*
X3431Y34018D01*
X3078Y33405D01*
X3337Y32440D01*
X2983Y31828D01*
X2500Y31698D01*
X1888Y32052D01*
X1629Y33017D01*
X1983Y33629D01*
X5173Y31379D02*
X2276Y30603D01*
X2664Y29155D01*
X3277Y28801D01*
X5208Y29319D01*
X5561Y29931D01*
X5173Y31379D01*
X3052Y27706D02*
X4984Y28224D01*
X6208Y27517D01*
X5501Y26293D01*
X3570Y25775D01*
X5018Y26163D01*
X4501Y28094D01*
X74603Y28578D02*
X73991Y28225D01*
X73733Y27259D01*
X74086Y26647D01*
X74569Y26518D01*
X75181Y26871D01*
X75440Y27836D01*
X76052Y28190D01*
X76535Y28061D01*
X76888Y27448D01*
X76629Y26483D01*
X76017Y26129D01*
X74379Y29673D02*
X77276Y28897D01*
X77664Y30345D01*
X77311Y30957D01*
X75380Y31475D01*
X74768Y31122D01*
X74379Y29673D01*
X78052Y31794D02*
X76121Y32311D01*
X75414Y33536D01*
X76639Y34242D01*
X78570Y33725D01*
X77122Y34113D01*
X76604Y32182D01*
X74603Y18578D02*
X73991Y18225D01*
X73733Y17259D01*
X74086Y16647D01*
X74569Y16518D01*
X75181Y16871D01*
X75440Y17837D01*
X76052Y18190D01*
X76535Y18061D01*
X76888Y17448D01*
X76629Y16483D01*
X76017Y16129D01*
X75380Y21475D02*
X74768Y21122D01*
X74509Y20156D01*
X74862Y19544D01*
X76793Y19026D01*
X77406Y19380D01*
X77664Y20345D01*
X77311Y20957D01*
X75156Y22570D02*
X78052Y21794D01*
X78570Y23725D01*
X74603Y38578D02*
X73991Y38225D01*
X73733Y37259D01*
X74086Y36647D01*
X76017Y36129D01*
X76629Y36483D01*
X76888Y37448D01*
X76535Y38061D01*
X75569Y38319D01*
X75310Y37354D01*
X77276Y38897D02*
X74379Y39673D01*
X77794Y40828D01*
X74897Y41604D01*
X75156Y42570D02*
X78052Y41794D01*
X78440Y43242D01*
X78087Y43854D01*
X76156Y44372D01*
X75544Y44018D01*
X75156Y42570D01*
X74086Y6647D02*
X73733Y7259D01*
X73991Y8225D01*
X74603Y8578D01*
X75086Y8449D01*
X75440Y7836D01*
X75310Y7354D01*
X75440Y7836D01*
X76052Y8190D01*
X76535Y8061D01*
X76888Y7448D01*
X76629Y6483D01*
X76017Y6129D01*
X74379Y9673D02*
X76311Y9156D01*
X77535Y9862D01*
X76828Y11087D01*
X74897Y11604D01*
X75638Y12440D02*
X75285Y13053D01*
X75544Y14018D01*
X76156Y14372D01*
X76639Y14242D01*
X76992Y13630D01*
X76863Y13147D01*
X76992Y13630D01*
X77604Y13984D01*
X78087Y13854D01*
X78440Y13242D01*
X78182Y12276D01*
X77570Y11923D01*
X19000Y44500D02*
Y47499D01*
X20500D01*
X20999Y46999D01*
Y46000D01*
X20500Y45500D01*
X19000D01*
X23998Y44500D02*
X21999D01*
X23998Y46499D01*
Y46999D01*
X23499Y47499D01*
X22499D01*
X21999Y46999D01*
X28500Y2500D02*
Y5499D01*
X30000D01*
X30499Y4999D01*
Y3999D01*
X30000Y3500D01*
X28500D01*
X29500D02*
X30499Y2500D01*
X33498D02*
X31499D01*
X33498Y4499D01*
Y4999D01*
X32999Y5499D01*
X31999D01*
X31499Y4999D01*
X42500Y2000D02*
X42406Y4998D01*
X43905Y5044D01*
X44420Y4560D01*
X44451Y3561D01*
X43968Y3046D01*
X42469Y2999D01*
X43468Y3030D02*
X44498Y2062D01*
X45498Y2094D02*
X46497Y2125D01*
X45997Y2109D01*
X45904Y5107D01*
X45419Y4592D01*
X38499Y47999D02*
X37999Y48499D01*
X37000D01*
X36500Y47999D01*
Y46000D01*
X37000Y45500D01*
X37999D01*
X38499Y46000D01*
X41498Y45500D02*
X39499D01*
X41498Y47499D01*
Y47999D01*
X40999Y48499D01*
X39999D01*
X39499Y47999D01*
X31499D02*
X30999Y48499D01*
X30000D01*
X29500Y47999D01*
Y46000D01*
X30000Y45500D01*
X30999D01*
X31499Y46000D01*
X32499Y45500D02*
X33499D01*
X32999D01*
Y48499D01*
X32499Y47999D01*
X46500Y24500D02*
Y26499D01*
X47500Y27499D01*
X48499Y26499D01*
Y24500D01*
Y26000D01*
X46500D01*
X49499Y24500D02*
X50499D01*
X49999D01*
Y27499D01*
X49499Y26999D01*
M02*
