G04*
G04 #@! TF.GenerationSoftware,Altium Limited,Altium Designer,19.1.5 (86)*
G04*
G04 Layer_Color=8388736*
%FSLAX25Y25*%
%MOIN*%
G70*
G01*
G75*
%ADD13R,0.06400X0.02000*%
%ADD14R,0.05718X0.06506*%
%ADD15R,0.06506X0.05718*%
%ADD16R,0.06112X0.04537*%
G04:AMPARAMS|DCode=17|XSize=124.9mil|YSize=44.19mil|CornerRadius=12.55mil|HoleSize=0mil|Usage=FLASHONLY|Rotation=90.000|XOffset=0mil|YOffset=0mil|HoleType=Round|Shape=RoundedRectangle|*
%AMROUNDEDRECTD17*
21,1,0.12490,0.01909,0,0,90.0*
21,1,0.09980,0.04419,0,0,90.0*
1,1,0.02509,0.00955,0.04990*
1,1,0.02509,0.00955,-0.04990*
1,1,0.02509,-0.00955,-0.04990*
1,1,0.02509,-0.00955,0.04990*
%
%ADD17ROUNDEDRECTD17*%
%ADD18R,0.20639X0.25482*%
%ADD19R,0.41800X0.43400*%
%ADD20R,0.04600X0.11200*%
%ADD21C,0.06506*%
%ADD22R,0.06506X0.06506*%
%ADD23R,0.06506X0.06506*%
%ADD24C,0.07687*%
%ADD25R,0.07687X0.07687*%
%ADD26C,0.03600*%
D13*
X138500Y116600D02*
D03*
Y114100D02*
D03*
Y111500D02*
D03*
Y109000D02*
D03*
Y106400D02*
D03*
Y103800D02*
D03*
Y101300D02*
D03*
Y98700D02*
D03*
Y96200D02*
D03*
Y93600D02*
D03*
Y91000D02*
D03*
Y88500D02*
D03*
Y85900D02*
D03*
Y83400D02*
D03*
X161500D02*
D03*
Y85900D02*
D03*
Y88500D02*
D03*
Y91000D02*
D03*
Y93600D02*
D03*
Y96200D02*
D03*
Y98700D02*
D03*
Y101300D02*
D03*
Y103800D02*
D03*
Y106400D02*
D03*
Y109000D02*
D03*
Y111500D02*
D03*
Y114100D02*
D03*
Y116600D02*
D03*
D14*
X206240Y127500D02*
D03*
X198760D02*
D03*
Y117500D02*
D03*
X206240D02*
D03*
X161260Y62500D02*
D03*
X168740D02*
D03*
X161260Y40000D02*
D03*
X168740D02*
D03*
X231240Y72500D02*
D03*
X223760D02*
D03*
X231240Y62500D02*
D03*
X223760D02*
D03*
D15*
X258000Y92740D02*
D03*
Y85260D02*
D03*
X137500Y58760D02*
D03*
Y66240D02*
D03*
Y36260D02*
D03*
Y43740D02*
D03*
D16*
X145669Y66240D02*
D03*
Y58760D02*
D03*
X154331Y62500D02*
D03*
X145669Y43740D02*
D03*
Y36260D02*
D03*
X154331Y40000D02*
D03*
D17*
X236500Y50709D02*
D03*
X218500D02*
D03*
D18*
X227500Y25000D02*
D03*
D19*
X232500Y117500D02*
D03*
D20*
X242500Y84900D02*
D03*
X232500D02*
D03*
X222500D02*
D03*
D21*
X150000Y185000D02*
D03*
Y175000D02*
D03*
X172500Y185000D02*
D03*
Y175000D02*
D03*
X192500Y185000D02*
D03*
Y175000D02*
D03*
X212500Y185000D02*
D03*
Y175000D02*
D03*
X87500Y185000D02*
D03*
Y175000D02*
D03*
X107500Y185000D02*
D03*
Y175000D02*
D03*
X127500Y185000D02*
D03*
Y175000D02*
D03*
X47500Y17500D02*
D03*
X37500D02*
D03*
X140000Y25000D02*
D03*
X150000Y15000D02*
D03*
Y25000D02*
D03*
X160000Y15000D02*
D03*
Y25000D02*
D03*
X47500Y37500D02*
D03*
X37500D02*
D03*
X47500Y57500D02*
D03*
X37500D02*
D03*
X47500Y77500D02*
D03*
X37500D02*
D03*
X47500Y97500D02*
D03*
X37500D02*
D03*
X47500Y117500D02*
D03*
X37500D02*
D03*
X47500Y137500D02*
D03*
X37500D02*
D03*
X47500Y157500D02*
D03*
X37500D02*
D03*
X47500Y177500D02*
D03*
X37500D02*
D03*
D22*
X150000Y165000D02*
D03*
X172500D02*
D03*
X192500D02*
D03*
X212500D02*
D03*
X87500D02*
D03*
X107500D02*
D03*
X127500D02*
D03*
D23*
X27500Y17500D02*
D03*
X140000Y15000D02*
D03*
X27500Y37500D02*
D03*
Y57500D02*
D03*
Y77500D02*
D03*
Y97500D02*
D03*
Y117500D02*
D03*
Y137500D02*
D03*
Y157500D02*
D03*
Y177500D02*
D03*
D24*
X199390Y25000D02*
D03*
D25*
X185610D02*
D03*
D26*
X135000Y120000D02*
D03*
X130000Y115000D02*
D03*
X122500Y112500D02*
D03*
X117500Y107500D02*
D03*
X115000Y102500D02*
D03*
Y95000D02*
D03*
Y87500D02*
D03*
X117500Y82500D02*
D03*
X122500Y77500D02*
D03*
X130000Y75000D02*
D03*
X207500Y135000D02*
D03*
X182500Y80000D02*
D03*
X177500Y85000D02*
D03*
X172500Y90000D02*
D03*
X202500Y105000D02*
D03*
X197500Y107500D02*
D03*
X192500Y110000D02*
D03*
X187500Y112500D02*
D03*
X168479D02*
D03*
X167500Y117500D02*
D03*
X154498Y51998D02*
D03*
X155000Y70000D02*
D03*
X210000Y95000D02*
D03*
X138500Y80000D02*
D03*
X215000Y62500D02*
D03*
X130000Y57500D02*
D03*
X247500Y85000D02*
D03*
M02*
