M48
;Layer_Color=9474304
;FILE_FORMAT=2:5
INCH,TZ
;TYPE=PLATED
T1F00S00C0.01600
T2F00S00C0.03543
T3F00S00C0.04724
%
T01
X130000Y57500
Y75000
X122500Y77500
X117500Y82500
X115000Y87500
Y95000
Y102500
X117500Y107500
X122500Y112500
X130000Y115000
X135000Y120000
X138500Y80000
X155000Y70000
X154498Y51998
X182500Y80000
X177500Y85000
X172500Y90000
X168479Y112500
X167500Y117500
X187500Y112500
X192500Y110000
X197500Y107500
X202500Y105000
X210000Y95000
X215000Y62500
X247500Y85000
X207500Y135000
T02
X27500Y17500
X37500
X47500
Y37500
X37500
X27500
Y57500
X37500
X47500
Y77500
X37500
X27500
Y97500
X37500
X47500
Y117500
X37500
X27500
Y137500
X37500
X47500
X140000Y25000
Y15000
X150000
Y25000
X160000
Y15000
X172500Y165000
Y175000
Y185000
X192500
Y175000
Y165000
X212500
Y175000
Y185000
X150000
Y175000
Y165000
X127500
Y175000
Y185000
X107500
Y175000
Y165000
X87500
Y175000
Y185000
X47500Y177500
X37500
X27500
Y157500
X37500
X47500
T03
X185610Y25000
X199390
M30
