G04*
G04 #@! TF.GenerationSoftware,Altium Limited,Altium Designer,19.1.5 (86)*
G04*
G04 Layer_Physical_Order=2*
G04 Layer_Color=16711680*
%FSLAX25Y25*%
%MOIN*%
G70*
G01*
G75*
%ADD35C,0.02500*%
%ADD36C,0.04000*%
%ADD37C,0.01000*%
%ADD38C,0.01200*%
%ADD39C,0.05000*%
%ADD40C,0.05906*%
%ADD41R,0.05906X0.05906*%
%ADD42R,0.05906X0.05906*%
%ADD43C,0.07087*%
%ADD44R,0.07087X0.07087*%
%ADD45C,0.03000*%
D35*
X47500Y177500D02*
X55000Y185000D01*
X87500D01*
X247500Y85000D02*
Y95000D01*
X207500Y135000D02*
X247500Y95000D01*
X237500Y85000D02*
X247500D01*
X215000Y62500D02*
X237500Y85000D01*
X130000Y57500D02*
X140000Y47500D01*
Y25000D02*
Y47500D01*
D36*
X185610Y70610D02*
X210000Y95000D01*
X185610Y25000D02*
Y70610D01*
D37*
X107500Y110000D02*
X115000Y102500D01*
X45000Y110000D02*
X107500D01*
X37500Y117500D02*
X45000Y110000D01*
X105000Y105000D02*
X115000Y95000D01*
X45000Y105000D02*
X105000D01*
X37500Y97500D02*
X45000Y105000D01*
X138500Y80000D02*
Y116500D01*
X135000Y120000D02*
X138500Y116500D01*
X87500Y147500D02*
X122500Y112500D01*
X47500Y147500D02*
X87500D01*
X37500Y157500D02*
X47500Y147500D01*
X97500Y127500D02*
X117500Y107500D01*
X47500Y127500D02*
X97500D01*
X37500Y137500D02*
X47500Y127500D01*
Y87500D02*
X115000D01*
X37500Y77500D02*
X47500Y87500D01*
Y67500D02*
X102500D01*
X117500Y82500D01*
X37500Y57500D02*
X47500Y67500D01*
Y47500D02*
X92500D01*
X122500Y77500D01*
X37500Y37500D02*
X47500Y47500D01*
X82500Y27500D02*
X130000Y75000D01*
X47500Y27500D02*
X82500D01*
X37500Y17500D02*
X47500Y27500D01*
X197500Y107500D02*
Y170000D01*
X192500Y175000D02*
X197500Y170000D01*
X182500Y80000D02*
Y122500D01*
X165000Y140000D02*
X182500Y122500D01*
X162500Y140000D02*
X165000D01*
X127500Y175000D02*
X162500Y140000D01*
X147500Y135000D02*
X165000D01*
X107500Y175000D02*
X147500Y135000D01*
X165000D02*
X177500Y122500D01*
Y85000D02*
Y122500D01*
X172500Y90000D02*
Y122500D01*
X132500Y130000D02*
X165000D01*
X87500Y175000D02*
X132500Y130000D01*
X165000D02*
X172500Y122500D01*
X202500Y165000D02*
X212500Y175000D01*
X202500Y105000D02*
Y165000D01*
X172500Y175000D02*
X192500Y155000D01*
Y110000D02*
Y155000D01*
X150000Y175000D02*
X187500Y137500D01*
Y112500D02*
Y137500D01*
X162500Y112500D02*
X168479D01*
X162500Y117500D02*
X167500D01*
X157600Y107600D02*
X162500Y112500D01*
X157600Y55100D02*
Y107600D01*
X155000Y110000D02*
X162500Y117500D01*
X155000Y70000D02*
Y110000D01*
X154498Y51998D02*
X157600Y55100D01*
X138500Y63643D02*
Y80000D01*
Y63643D02*
X160000Y42143D01*
Y25000D02*
Y42143D01*
D38*
X72500Y152500D02*
X92500D01*
X130000Y115000D01*
X57500Y167500D02*
X72500Y152500D01*
X51627Y167500D02*
X57500D01*
X42253Y176874D02*
X51627Y167500D01*
X38126Y176874D02*
X42253D01*
X37500Y177500D02*
X38126Y176874D01*
D39*
X160000Y25000D02*
X185610D01*
D40*
X150000Y185000D02*
D03*
Y175000D02*
D03*
X172500Y185000D02*
D03*
Y175000D02*
D03*
X192500Y185000D02*
D03*
Y175000D02*
D03*
X212500Y185000D02*
D03*
Y175000D02*
D03*
X87500Y185000D02*
D03*
Y175000D02*
D03*
X107500Y185000D02*
D03*
Y175000D02*
D03*
X127500Y185000D02*
D03*
Y175000D02*
D03*
X47500Y17500D02*
D03*
X37500D02*
D03*
X140000Y25000D02*
D03*
X150000Y15000D02*
D03*
Y25000D02*
D03*
X160000Y15000D02*
D03*
Y25000D02*
D03*
X47500Y37500D02*
D03*
X37500D02*
D03*
X47500Y57500D02*
D03*
X37500D02*
D03*
X47500Y77500D02*
D03*
X37500D02*
D03*
X47500Y97500D02*
D03*
X37500D02*
D03*
X47500Y117500D02*
D03*
X37500D02*
D03*
X47500Y137500D02*
D03*
X37500D02*
D03*
X47500Y157500D02*
D03*
X37500D02*
D03*
X47500Y177500D02*
D03*
X37500D02*
D03*
D41*
X150000Y165000D02*
D03*
X172500D02*
D03*
X192500D02*
D03*
X212500D02*
D03*
X87500D02*
D03*
X107500D02*
D03*
X127500D02*
D03*
D42*
X27500Y17500D02*
D03*
X140000Y15000D02*
D03*
X27500Y37500D02*
D03*
Y57500D02*
D03*
Y77500D02*
D03*
Y97500D02*
D03*
Y117500D02*
D03*
Y137500D02*
D03*
Y157500D02*
D03*
Y177500D02*
D03*
D43*
X199390Y25000D02*
D03*
D44*
X185610D02*
D03*
D45*
X135000Y120000D02*
D03*
X130000Y115000D02*
D03*
X122500Y112500D02*
D03*
X117500Y107500D02*
D03*
X115000Y102500D02*
D03*
Y95000D02*
D03*
Y87500D02*
D03*
X117500Y82500D02*
D03*
X122500Y77500D02*
D03*
X130000Y75000D02*
D03*
X207500Y135000D02*
D03*
X182500Y80000D02*
D03*
X177500Y85000D02*
D03*
X172500Y90000D02*
D03*
X202500Y105000D02*
D03*
X197500Y107500D02*
D03*
X192500Y110000D02*
D03*
X187500Y112500D02*
D03*
X168479D02*
D03*
X167500Y117500D02*
D03*
X154498Y51998D02*
D03*
X155000Y70000D02*
D03*
X210000Y95000D02*
D03*
X138500Y80000D02*
D03*
X215000Y62500D02*
D03*
X130000Y57500D02*
D03*
X247500Y85000D02*
D03*
M02*
