G04*
G04 #@! TF.GenerationSoftware,Altium Limited,Altium Designer,19.1.5 (86)*
G04*
G04 Layer_Physical_Order=1*
G04 Layer_Color=255*
%FSLAX25Y25*%
%MOIN*%
G70*
G01*
G75*
%ADD27R,0.05800X0.01400*%
%ADD28R,0.05118X0.05906*%
%ADD29R,0.05906X0.05118*%
%ADD30R,0.05512X0.03937*%
G04:AMPARAMS|DCode=31|XSize=118.9mil|YSize=38.19mil|CornerRadius=9.55mil|HoleSize=0mil|Usage=FLASHONLY|Rotation=90.000|XOffset=0mil|YOffset=0mil|HoleType=Round|Shape=RoundedRectangle|*
%AMROUNDEDRECTD31*
21,1,0.11890,0.01909,0,0,90.0*
21,1,0.09980,0.03819,0,0,90.0*
1,1,0.01909,0.00955,0.04990*
1,1,0.01909,0.00955,-0.04990*
1,1,0.01909,-0.00955,-0.04990*
1,1,0.01909,-0.00955,0.04990*
%
%ADD31ROUNDEDRECTD31*%
%ADD32R,0.20039X0.24882*%
%ADD33R,0.41200X0.42800*%
%ADD34R,0.04000X0.10600*%
%ADD35C,0.02500*%
%ADD36C,0.04000*%
%ADD37C,0.01000*%
%ADD38C,0.01200*%
%ADD39C,0.05000*%
%ADD40C,0.05906*%
%ADD41R,0.05906X0.05906*%
%ADD42R,0.05906X0.05906*%
%ADD43C,0.07087*%
%ADD44R,0.07087X0.07087*%
%ADD45C,0.03000*%
D27*
X138500Y116600D02*
D03*
Y114100D02*
D03*
Y111500D02*
D03*
Y109000D02*
D03*
Y106400D02*
D03*
Y103800D02*
D03*
Y101300D02*
D03*
Y98700D02*
D03*
Y96200D02*
D03*
Y93600D02*
D03*
Y91000D02*
D03*
Y88500D02*
D03*
Y85900D02*
D03*
Y83400D02*
D03*
X161500D02*
D03*
Y85900D02*
D03*
Y88500D02*
D03*
Y91000D02*
D03*
Y93600D02*
D03*
Y96200D02*
D03*
Y98700D02*
D03*
Y101300D02*
D03*
Y103800D02*
D03*
Y106400D02*
D03*
Y109000D02*
D03*
Y111500D02*
D03*
Y114100D02*
D03*
Y116600D02*
D03*
D28*
X206240Y127500D02*
D03*
X198760D02*
D03*
Y117500D02*
D03*
X206240D02*
D03*
X161260Y62500D02*
D03*
X168740D02*
D03*
X161260Y40000D02*
D03*
X168740D02*
D03*
X231240Y72500D02*
D03*
X223760D02*
D03*
X231240Y62500D02*
D03*
X223760D02*
D03*
D29*
X258000Y92740D02*
D03*
Y85260D02*
D03*
X137500Y58760D02*
D03*
Y66240D02*
D03*
Y36260D02*
D03*
Y43740D02*
D03*
D30*
X145669Y66240D02*
D03*
Y58760D02*
D03*
X154331Y62500D02*
D03*
X145669Y43740D02*
D03*
Y36260D02*
D03*
X154331Y40000D02*
D03*
D31*
X236500Y50709D02*
D03*
X218500D02*
D03*
D32*
X227500Y25000D02*
D03*
D33*
X232500Y117500D02*
D03*
D34*
X242500Y84900D02*
D03*
X232500D02*
D03*
X222500D02*
D03*
D35*
X231700Y117500D02*
X247500Y133300D01*
X72500Y165000D02*
X87500D01*
X45000Y192500D02*
X72500Y165000D01*
X87500D02*
X107500D01*
X27500Y192500D02*
X45000D01*
X27500Y177500D02*
Y192500D01*
X207500Y135000D02*
Y147568D01*
X212500Y152568D01*
Y165000D01*
X247500Y133300D02*
Y160000D01*
X222500Y185000D02*
X247500Y160000D01*
X212500Y185000D02*
X222500D01*
X47500Y157500D02*
Y177500D01*
Y137500D02*
Y157500D01*
Y117500D02*
Y137500D01*
Y97500D02*
Y117500D01*
Y77500D02*
Y97500D01*
Y57500D02*
Y77500D01*
Y37500D02*
Y57500D01*
Y17500D02*
Y37500D01*
X27500Y157500D02*
Y177500D01*
Y137500D02*
Y157500D01*
Y117500D02*
Y137500D01*
Y97500D02*
Y117500D01*
Y77500D02*
Y97500D01*
Y57500D02*
Y77500D01*
Y37500D02*
Y57500D01*
Y17500D02*
Y37500D01*
X192500Y185000D02*
X212500D01*
X172500D02*
X192500D01*
X150000D02*
X172500D01*
X127500D02*
X150000D01*
X107500D02*
X127500D01*
X87500D02*
X107500D01*
X198760Y127500D02*
Y127894D01*
Y127106D02*
Y127500D01*
X192500Y165000D02*
X212500D01*
X172500D02*
X192500D01*
X150000D02*
X172500D01*
X127500D02*
X150000D01*
X107500D02*
X127500D01*
X207404Y134904D02*
X207500Y135000D01*
X205516Y134904D02*
X207404D01*
X201831Y131219D02*
X205516Y134904D01*
X201831Y130965D02*
Y131219D01*
X198760Y127894D02*
X201831Y130965D01*
X247500Y85000D02*
X247596Y85096D01*
X257836D01*
X258000Y85260D01*
X168740Y62500D02*
X177500D01*
X175000Y60000D02*
X177500Y62500D01*
X215000D01*
X175000Y46654D02*
Y60000D01*
X168740Y40394D02*
X175000Y46654D01*
X168740Y40000D02*
Y40394D01*
X122500Y45000D02*
Y60000D01*
Y32500D02*
Y45000D01*
X123760Y43740D01*
X137500D01*
X122500Y60000D02*
X128740Y66240D01*
X137500D01*
X122500Y32500D02*
X140000Y15000D01*
X130000Y57500D02*
X130096Y57596D01*
X136336D01*
X137500Y58760D01*
X145669D01*
X145669Y58760D01*
X137500Y36260D02*
X146457D01*
X150000Y32717D01*
Y25000D02*
Y32717D01*
X137500Y66240D02*
X145669D01*
X137500Y43740D02*
X145669D01*
X154331Y40000D02*
X161260D01*
X154331Y62500D02*
X161260D01*
X242600Y85000D02*
X247500D01*
X242500Y84900D02*
X242600Y85000D01*
D36*
X231700Y117500D02*
X232500Y116700D01*
X210800Y95000D02*
X232500Y116700D01*
X206240Y117500D02*
X231700D01*
X210000Y95000D02*
X210800D01*
X232500Y84900D02*
Y116700D01*
X231299Y81399D02*
X232500Y82600D01*
X231299Y72559D02*
Y81399D01*
X232500Y82600D02*
Y84900D01*
X231240Y58823D02*
Y62500D01*
Y72500D02*
X231299Y72559D01*
X231240Y62500D02*
Y72500D01*
Y58823D02*
X236500Y53563D01*
Y50709D02*
Y53563D01*
X223760Y58823D02*
Y62500D01*
X222500Y82600D02*
Y84900D01*
Y82600D02*
X223701Y81399D01*
Y72559D02*
Y81399D01*
Y72559D02*
X223760Y72500D01*
Y62500D02*
Y72500D01*
X218500Y53563D02*
X223760Y58823D01*
X218500Y50709D02*
Y53563D01*
D37*
X135100Y120000D02*
X138500Y116600D01*
X135000Y120000D02*
X135100D01*
X131200Y101300D02*
X138500D01*
X122500Y110000D02*
X131200Y101300D01*
X122500Y110000D02*
Y112500D01*
X126300Y98700D02*
X138500D01*
X117500Y107500D02*
X126300Y98700D01*
X115000Y102500D02*
X121300Y96200D01*
X138500D01*
X115000Y95000D02*
X115541D01*
X116941Y93600D01*
X138500D01*
X118500Y91000D02*
X138500D01*
X115000Y87500D02*
X118500Y91000D01*
X123500Y88500D02*
X138500D01*
X117500Y82500D02*
X123500Y88500D01*
X130900Y85900D02*
X138500D01*
X122500Y77500D02*
X130900Y85900D01*
X160000Y77500D02*
Y83200D01*
X160200Y83400D01*
X161500D01*
X159297Y76797D02*
X160000Y77500D01*
X132338Y76797D02*
X159297D01*
X130541Y75000D02*
X132338Y76797D01*
X130000Y75000D02*
X130541D01*
X174817Y80000D02*
X182500D01*
X168917Y85900D02*
X174817Y80000D01*
X161500Y85900D02*
X168917D01*
X172079Y85000D02*
X177500D01*
X168579Y88500D02*
X172079Y85000D01*
X161500Y88500D02*
X168579D01*
X171959Y90000D02*
X172500D01*
X170959Y91000D02*
X171959Y90000D01*
X161500Y91000D02*
X170959D01*
X161500Y93600D02*
X191100D01*
X161500Y96200D02*
X186200D01*
X197500Y107500D01*
X191100Y93600D02*
X202500Y105000D01*
X181200Y98700D02*
X192500Y110000D01*
X161500Y98700D02*
X181200D01*
X176300Y101300D02*
X187500Y112500D01*
X161500Y101300D02*
X176300D01*
X185000Y117500D02*
X198760D01*
X171300Y103800D02*
X185000Y117500D01*
X226700Y122500D02*
X231700Y117500D01*
X224153Y125047D02*
X226700Y122500D01*
X208299Y125047D02*
X224153D01*
X206240Y127106D02*
X208299Y125047D01*
X206240Y127106D02*
Y127500D01*
X196260Y125000D02*
X196307Y125047D01*
X196701D01*
X198760Y127106D01*
X167500Y125000D02*
X196260D01*
X161500Y119000D02*
X167500Y125000D01*
X161500Y116600D02*
Y119000D01*
X166959Y112500D02*
X168479D01*
X167500Y115793D02*
Y117500D01*
X166007Y114300D02*
X167500Y115793D01*
X161700Y114300D02*
X166007D01*
X154331Y40000D02*
Y51831D01*
X154498Y51998D01*
X155000Y63169D02*
Y70000D01*
X171500Y109000D02*
X185000Y122500D01*
X168900Y106400D02*
X171500Y109000D01*
X161500Y106400D02*
X168900D01*
X185000Y122500D02*
X226700D01*
X161500Y103800D02*
X171300D01*
X161500Y114100D02*
X161700Y114300D01*
X165959Y111500D02*
X166959Y112500D01*
X161500Y111500D02*
X165959D01*
X161500Y109000D02*
X171500D01*
X138500Y80000D02*
Y83400D01*
Y114100D02*
Y116600D01*
Y111500D02*
Y114100D01*
Y109000D02*
Y111500D01*
Y106400D02*
Y109000D01*
X154331Y62500D02*
X155000Y63169D01*
D38*
X133700Y103800D02*
X138500D01*
X130000Y107500D02*
X133700Y103800D01*
X130000Y107500D02*
Y115000D01*
D39*
X232500Y116700D02*
X250600Y98600D01*
X251747D01*
X257606Y92740D01*
X258000D01*
X199390Y25000D02*
X227500D01*
D40*
X150000Y185000D02*
D03*
Y175000D02*
D03*
X172500Y185000D02*
D03*
Y175000D02*
D03*
X192500Y185000D02*
D03*
Y175000D02*
D03*
X212500Y185000D02*
D03*
Y175000D02*
D03*
X87500Y185000D02*
D03*
Y175000D02*
D03*
X107500Y185000D02*
D03*
Y175000D02*
D03*
X127500Y185000D02*
D03*
Y175000D02*
D03*
X47500Y17500D02*
D03*
X37500D02*
D03*
X140000Y25000D02*
D03*
X150000Y15000D02*
D03*
Y25000D02*
D03*
X160000Y15000D02*
D03*
Y25000D02*
D03*
X47500Y37500D02*
D03*
X37500D02*
D03*
X47500Y57500D02*
D03*
X37500D02*
D03*
X47500Y77500D02*
D03*
X37500D02*
D03*
X47500Y97500D02*
D03*
X37500D02*
D03*
X47500Y117500D02*
D03*
X37500D02*
D03*
X47500Y137500D02*
D03*
X37500D02*
D03*
X47500Y157500D02*
D03*
X37500D02*
D03*
X47500Y177500D02*
D03*
X37500D02*
D03*
D41*
X150000Y165000D02*
D03*
X172500D02*
D03*
X192500D02*
D03*
X212500D02*
D03*
X87500D02*
D03*
X107500D02*
D03*
X127500D02*
D03*
D42*
X27500Y17500D02*
D03*
X140000Y15000D02*
D03*
X27500Y37500D02*
D03*
Y57500D02*
D03*
Y77500D02*
D03*
Y97500D02*
D03*
Y117500D02*
D03*
Y137500D02*
D03*
Y157500D02*
D03*
Y177500D02*
D03*
D43*
X199390Y25000D02*
D03*
D44*
X185610D02*
D03*
D45*
X135000Y120000D02*
D03*
X130000Y115000D02*
D03*
X122500Y112500D02*
D03*
X117500Y107500D02*
D03*
X115000Y102500D02*
D03*
Y95000D02*
D03*
Y87500D02*
D03*
X117500Y82500D02*
D03*
X122500Y77500D02*
D03*
X130000Y75000D02*
D03*
X207500Y135000D02*
D03*
X182500Y80000D02*
D03*
X177500Y85000D02*
D03*
X172500Y90000D02*
D03*
X202500Y105000D02*
D03*
X197500Y107500D02*
D03*
X192500Y110000D02*
D03*
X187500Y112500D02*
D03*
X168479D02*
D03*
X167500Y117500D02*
D03*
X154498Y51998D02*
D03*
X155000Y70000D02*
D03*
X210000Y95000D02*
D03*
X138500Y80000D02*
D03*
X215000Y62500D02*
D03*
X130000Y57500D02*
D03*
X247500Y85000D02*
D03*
M02*
