G04*
G04 #@! TF.GenerationSoftware,Altium Limited,Altium Designer,19.1.5 (86)*
G04*
G04 Layer_Color=65535*
%FSLAX25Y25*%
%MOIN*%
G70*
G01*
G75*
%ADD10C,0.00600*%
%ADD11C,0.00787*%
%ADD12C,0.00500*%
G36*
X199989Y6023D02*
X201736D01*
Y5291D01*
X199989D01*
Y3535D01*
X199247D01*
Y5291D01*
X197500D01*
Y6023D01*
X199247D01*
Y7770D01*
X199989D01*
Y6023D01*
D02*
G37*
G36*
X187411Y4423D02*
X185000D01*
Y5213D01*
X187411D01*
Y4423D01*
D02*
G37*
D10*
X148800Y119300D02*
G03*
X151200Y119300I1200J0D01*
G01*
X158900Y118600D02*
Y119300D01*
X141100Y80700D02*
Y81400D01*
Y80700D02*
X158900D01*
Y81400D01*
X151200Y119300D02*
X158900D01*
X148800D02*
X151200D01*
X141100D02*
X148800D01*
X141100Y118600D02*
Y119300D01*
X244400Y91600D02*
Y94790D01*
X234400Y91600D02*
Y94790D01*
X224400Y91600D02*
Y94790D01*
X240600Y91600D02*
Y94790D01*
X230600Y91600D02*
Y94790D01*
X220600Y91600D02*
Y94790D01*
D11*
X242799Y49807D02*
G03*
X242799Y49807I-394J0D01*
G01*
X202500Y125138D02*
Y130256D01*
Y115138D02*
Y120256D01*
X145000Y160000D02*
X155000D01*
X145000D02*
Y190000D01*
X155000D01*
Y160000D02*
Y190000D01*
X167500Y160000D02*
X177500D01*
X167500D02*
Y190000D01*
X177500D01*
Y160000D02*
Y190000D01*
X187500Y160000D02*
X197500D01*
X187500D02*
Y190000D01*
X197500D01*
Y160000D02*
Y190000D01*
X207500Y160000D02*
X217500D01*
X207500D02*
Y190000D01*
X217500D01*
Y160000D02*
Y190000D01*
X82500Y160000D02*
X92500D01*
X82500D02*
Y190000D01*
X92500D01*
Y160000D02*
Y190000D01*
X102500Y160000D02*
X112500D01*
X102500D02*
Y190000D01*
X112500D01*
Y160000D02*
Y190000D01*
X122500Y160000D02*
X132500D01*
X122500D02*
Y190000D01*
X132500D01*
Y160000D02*
Y190000D01*
X22500Y12500D02*
Y22500D01*
X52500D01*
Y12500D02*
Y22500D01*
X22500Y12500D02*
X52500D01*
X255244Y89000D02*
X260362D01*
X165000Y10000D02*
Y30000D01*
X135000Y10000D02*
Y30000D01*
X165000D01*
X135000Y10000D02*
X165000D01*
X145833D02*
X165000D01*
Y59744D02*
Y64862D01*
Y37244D02*
Y42362D01*
X135138Y62500D02*
X140256D01*
X135138Y40000D02*
X140256D01*
X227500Y70138D02*
Y75256D01*
Y60138D02*
Y65256D01*
X22500Y32500D02*
Y42500D01*
X52500D01*
Y32500D02*
Y42500D01*
X22500Y32500D02*
X52500D01*
X22500Y52500D02*
Y62500D01*
X52500D01*
Y52500D02*
Y62500D01*
X22500Y52500D02*
X52500D01*
X22500Y72500D02*
Y82500D01*
X52500D01*
Y72500D02*
Y82500D01*
X22500Y72500D02*
X52500D01*
X22500Y92500D02*
Y102500D01*
X52500D01*
Y92500D02*
Y102500D01*
X22500Y92500D02*
X52500D01*
X22500Y112500D02*
Y122500D01*
X52500D01*
Y112500D02*
Y122500D01*
X22500Y112500D02*
X52500D01*
X22500Y132500D02*
Y142500D01*
X52500D01*
Y132500D02*
Y142500D01*
X22500Y132500D02*
X52500D01*
X22500Y152500D02*
Y162500D01*
X52500D01*
Y152500D02*
Y162500D01*
X22500Y152500D02*
X52500D01*
X22500Y172500D02*
Y182500D01*
X52500D01*
Y172500D02*
Y182500D01*
X22500Y172500D02*
X52500D01*
D12*
X238705Y18165D02*
X240886D01*
Y42654D01*
X214114Y18165D02*
X216295D01*
X214114D02*
Y42654D01*
X240886D01*
X176358Y14764D02*
X208248D01*
X176555Y10827D02*
Y38386D01*
Y10827D02*
X208445D01*
Y38386D01*
X176555D02*
X208445D01*
X147500Y126499D02*
Y123167D01*
X148167Y122500D01*
X149499D01*
X150166Y123167D01*
Y126499D01*
X151499Y122500D02*
X152832D01*
X152165D01*
Y126499D01*
X151499Y125832D01*
X192666Y135832D02*
X191999Y136499D01*
X190666D01*
X190000Y135832D01*
Y133167D01*
X190666Y132500D01*
X191999D01*
X192666Y133167D01*
X195998Y132500D02*
Y136499D01*
X193999Y134499D01*
X196665D01*
X202500Y107500D02*
Y111499D01*
X204499D01*
X205166Y110832D01*
Y109499D01*
X204499Y108833D01*
X202500D01*
X203833D02*
X205166Y107500D01*
X206499D02*
X207832D01*
X207165D01*
Y111499D01*
X206499Y110832D01*
X139168Y167666D02*
X138501Y166999D01*
Y165666D01*
X139168Y165000D01*
X139834D01*
X140501Y165666D01*
Y166999D01*
X141167Y167666D01*
X141833D01*
X142500Y166999D01*
Y165666D01*
X141833Y165000D01*
X142500Y168999D02*
X138501D01*
Y170998D01*
X139168Y171665D01*
X140501D01*
X141167Y170998D01*
Y168999D01*
Y170332D02*
X142500Y171665D01*
X138501Y172997D02*
X141167D01*
X142500Y174330D01*
X141167Y175663D01*
X138501D01*
X142500Y176996D02*
Y178329D01*
Y177663D01*
X138501D01*
X139168Y176996D01*
X138501Y182994D02*
Y180328D01*
X140501D01*
X139834Y181661D01*
Y182328D01*
X140501Y182994D01*
X141833D01*
X142500Y182328D01*
Y180995D01*
X141833Y180328D01*
X161168Y167666D02*
X160501Y166999D01*
Y165666D01*
X161168Y165000D01*
X161834D01*
X162501Y165666D01*
Y166999D01*
X163167Y167666D01*
X163833D01*
X164500Y166999D01*
Y165666D01*
X163833Y165000D01*
X164500Y168999D02*
X160501D01*
Y170998D01*
X161168Y171665D01*
X162501D01*
X163167Y170998D01*
Y168999D01*
Y170332D02*
X164500Y171665D01*
X160501Y172997D02*
X163167D01*
X164500Y174330D01*
X163167Y175663D01*
X160501D01*
X164500Y176996D02*
Y178329D01*
Y177663D01*
X160501D01*
X161168Y176996D01*
X164500Y182328D02*
X160501D01*
X162501Y180328D01*
Y182994D01*
X181168Y167666D02*
X180501Y166999D01*
Y165666D01*
X181168Y165000D01*
X181834D01*
X182501Y165666D01*
Y166999D01*
X183167Y167666D01*
X183834D01*
X184500Y166999D01*
Y165666D01*
X183834Y165000D01*
X184500Y168999D02*
X180501D01*
Y170998D01*
X181168Y171665D01*
X182501D01*
X183167Y170998D01*
Y168999D01*
Y170332D02*
X184500Y171665D01*
X180501Y172997D02*
X183167D01*
X184500Y174330D01*
X183167Y175663D01*
X180501D01*
X184500Y176996D02*
Y178329D01*
Y177663D01*
X180501D01*
X181168Y176996D01*
Y180328D02*
X180501Y180995D01*
Y182328D01*
X181168Y182994D01*
X181834D01*
X182501Y182328D01*
Y181661D01*
Y182328D01*
X183167Y182994D01*
X183834D01*
X184500Y182328D01*
Y180995D01*
X183834Y180328D01*
X201168Y169666D02*
X200501Y168999D01*
Y167666D01*
X201168Y167000D01*
X201834D01*
X202501Y167666D01*
Y168999D01*
X203167Y169666D01*
X203834D01*
X204500Y168999D01*
Y167666D01*
X203834Y167000D01*
X204500Y170999D02*
X200501D01*
Y172998D01*
X201168Y173664D01*
X202501D01*
X203167Y172998D01*
Y170999D01*
Y172332D02*
X204500Y173664D01*
X200501Y174997D02*
X203167D01*
X204500Y176330D01*
X203167Y177663D01*
X200501D01*
X204500Y178996D02*
Y180329D01*
Y179663D01*
X200501D01*
X201168Y178996D01*
X204500Y184994D02*
Y182328D01*
X201834Y184994D01*
X201168D01*
X200501Y184328D01*
Y182995D01*
X201168Y182328D01*
X76168Y167666D02*
X75501Y166999D01*
Y165666D01*
X76168Y165000D01*
X76834D01*
X77501Y165666D01*
Y166999D01*
X78167Y167666D01*
X78834D01*
X79500Y166999D01*
Y165666D01*
X78834Y165000D01*
X79500Y168999D02*
X75501D01*
Y170998D01*
X76168Y171665D01*
X77501D01*
X78167Y170998D01*
Y168999D01*
Y170332D02*
X79500Y171665D01*
X75501Y172997D02*
X78167D01*
X79500Y174330D01*
X78167Y175663D01*
X75501D01*
X79500Y176996D02*
Y178329D01*
Y177663D01*
X75501D01*
X76168Y176996D01*
X79500Y180328D02*
Y181661D01*
Y180995D01*
X75501D01*
X76168Y180328D01*
X96168Y167666D02*
X95501Y166999D01*
Y165666D01*
X96168Y165000D01*
X96834D01*
X97501Y165666D01*
Y166999D01*
X98167Y167666D01*
X98834D01*
X99500Y166999D01*
Y165666D01*
X98834Y165000D01*
X99500Y168999D02*
X95501D01*
Y170998D01*
X96168Y171665D01*
X97501D01*
X98167Y170998D01*
Y168999D01*
Y170332D02*
X99500Y171665D01*
X95501Y172997D02*
X98167D01*
X99500Y174330D01*
X98167Y175663D01*
X95501D01*
X99500Y176996D02*
Y178329D01*
Y177663D01*
X95501D01*
X96168Y176996D01*
Y180328D02*
X95501Y180995D01*
Y182328D01*
X96168Y182994D01*
X98834D01*
X99500Y182328D01*
Y180995D01*
X98834Y180328D01*
X96168D01*
X116168Y169666D02*
X115501Y168999D01*
Y167666D01*
X116168Y167000D01*
X116834D01*
X117501Y167666D01*
Y168999D01*
X118167Y169666D01*
X118833D01*
X119500Y168999D01*
Y167666D01*
X118833Y167000D01*
X119500Y170999D02*
X115501D01*
Y172998D01*
X116168Y173664D01*
X117501D01*
X118167Y172998D01*
Y170999D01*
Y172332D02*
X119500Y173664D01*
X115501Y174997D02*
X118167D01*
X119500Y176330D01*
X118167Y177663D01*
X115501D01*
X118833Y178996D02*
X119500Y179663D01*
Y180996D01*
X118833Y181662D01*
X116168D01*
X115501Y180996D01*
Y179663D01*
X116168Y178996D01*
X116834D01*
X117501Y179663D01*
Y181662D01*
X32166Y28832D02*
X31499Y29499D01*
X30166D01*
X29500Y28832D01*
Y28166D01*
X30166Y27499D01*
X31499D01*
X32166Y26833D01*
Y26166D01*
X31499Y25500D01*
X30166D01*
X29500Y26166D01*
X33499Y25500D02*
Y29499D01*
X35498D01*
X36165Y28832D01*
Y27499D01*
X35498Y26833D01*
X33499D01*
X34832D02*
X36165Y25500D01*
X37497Y29499D02*
Y26833D01*
X38830Y25500D01*
X40163Y26833D01*
Y29499D01*
X41496Y28832D02*
X42163Y29499D01*
X43496D01*
X44162Y28832D01*
Y28166D01*
X43496Y27499D01*
X44162Y26833D01*
Y26166D01*
X43496Y25500D01*
X42163D01*
X41496Y26166D01*
Y26833D01*
X42163Y27499D01*
X41496Y28166D01*
Y28832D01*
X42163Y27499D02*
X43496D01*
X265166Y90832D02*
X264499Y91499D01*
X263166D01*
X262500Y90832D01*
Y88166D01*
X263166Y87500D01*
X264499D01*
X265166Y88166D01*
X266499Y87500D02*
X267832D01*
X267165D01*
Y91499D01*
X266499Y90832D01*
X142500Y6499D02*
X143833D01*
X143166D01*
Y2500D01*
X142500D01*
X143833D01*
X145832D02*
Y6499D01*
X148498Y2500D01*
Y6499D01*
X149831Y2500D02*
Y6499D01*
X151830D01*
X152497Y5832D01*
Y4499D01*
X151830Y3833D01*
X149831D01*
X153830Y6499D02*
Y3167D01*
X154496Y2500D01*
X155829D01*
X156495Y3167D01*
Y6499D01*
X157828D02*
X160494D01*
X159161D01*
Y2500D01*
X168666Y26999D02*
X167333Y26332D01*
X166000Y24999D01*
Y23666D01*
X166666Y23000D01*
X167999D01*
X168666Y23666D01*
Y24333D01*
X167999Y24999D01*
X166000D01*
X168666Y16999D02*
X166000D01*
Y14999D01*
X167333Y15666D01*
X167999D01*
X168666Y14999D01*
Y13667D01*
X167999Y13000D01*
X166666D01*
X166000Y13667D01*
X132666Y23000D02*
X130000D01*
X132666Y25666D01*
Y26332D01*
X131999Y26999D01*
X130666D01*
X130000Y26332D01*
X132000Y13000D02*
X133333D01*
X132667D01*
Y16999D01*
X132000Y16332D01*
X162500Y67500D02*
Y71499D01*
X164499D01*
X165166Y70832D01*
Y69499D01*
X164499Y68833D01*
X162500D01*
X163833D02*
X165166Y67500D01*
X166499Y70832D02*
X167165Y71499D01*
X168498D01*
X169165Y70832D01*
Y70166D01*
X168498Y69499D01*
X167832D01*
X168498D01*
X169165Y68833D01*
Y68166D01*
X168498Y67500D01*
X167165D01*
X166499Y68166D01*
X162500Y45000D02*
Y48999D01*
X164499D01*
X165166Y48332D01*
Y46999D01*
X164499Y46333D01*
X162500D01*
X163833D02*
X165166Y45000D01*
X169165Y48999D02*
X166499D01*
Y46999D01*
X167832Y47666D01*
X168498D01*
X169165Y46999D01*
Y45666D01*
X168498Y45000D01*
X167165D01*
X166499Y45666D01*
X147666Y70666D02*
Y73332D01*
X146999Y73999D01*
X145667D01*
X145000Y73332D01*
Y70666D01*
X145667Y70000D01*
X146999D01*
X146333Y71333D02*
X147666Y70000D01*
X146999D02*
X147666Y70666D01*
X151664Y70000D02*
X148999D01*
X151664Y72666D01*
Y73332D01*
X150998Y73999D01*
X149665D01*
X148999Y73332D01*
X147666Y48166D02*
Y50832D01*
X146999Y51499D01*
X145667D01*
X145000Y50832D01*
Y48166D01*
X145667Y47500D01*
X146999D01*
X146333Y48833D02*
X147666Y47500D01*
X146999D02*
X147666Y48166D01*
X148999Y50832D02*
X149665Y51499D01*
X150998D01*
X151664Y50832D01*
Y50166D01*
X150998Y49499D01*
X150332D01*
X150998D01*
X151664Y48833D01*
Y48166D01*
X150998Y47500D01*
X149665D01*
X148999Y48166D01*
X135000Y70000D02*
Y73999D01*
X136999D01*
X137666Y73332D01*
Y71999D01*
X136999Y71333D01*
X135000D01*
X136333D02*
X137666Y70000D01*
X141665D02*
X138999D01*
X141665Y72666D01*
Y73332D01*
X140998Y73999D01*
X139665D01*
X138999Y73332D01*
X135000Y47500D02*
Y51499D01*
X136999D01*
X137666Y50832D01*
Y49499D01*
X136999Y48833D01*
X135000D01*
X136333D02*
X137666Y47500D01*
X140998D02*
Y51499D01*
X138999Y49499D01*
X141665D01*
X240166Y73332D02*
X239499Y73999D01*
X238166D01*
X237500Y73332D01*
Y70666D01*
X238166Y70000D01*
X239499D01*
X240166Y70666D01*
X241499Y73332D02*
X242165Y73999D01*
X243498D01*
X244164Y73332D01*
Y72666D01*
X243498Y71999D01*
X242832D01*
X243498D01*
X244164Y71333D01*
Y70666D01*
X243498Y70000D01*
X242165D01*
X241499Y70666D01*
X240166Y63332D02*
X239499Y63999D01*
X238166D01*
X237500Y63332D01*
Y60666D01*
X238166Y60000D01*
X239499D01*
X240166Y60666D01*
X244164Y60000D02*
X241499D01*
X244164Y62666D01*
Y63332D01*
X243498Y63999D01*
X242165D01*
X241499Y63332D01*
X32166Y48832D02*
X31499Y49499D01*
X30166D01*
X29500Y48832D01*
Y48166D01*
X30166Y47499D01*
X31499D01*
X32166Y46833D01*
Y46166D01*
X31499Y45500D01*
X30166D01*
X29500Y46166D01*
X33499Y45500D02*
Y49499D01*
X35498D01*
X36165Y48832D01*
Y47499D01*
X35498Y46833D01*
X33499D01*
X34832D02*
X36165Y45500D01*
X37497Y49499D02*
Y46833D01*
X38830Y45500D01*
X40163Y46833D01*
Y49499D01*
X41496D02*
X44162D01*
Y48832D01*
X41496Y46166D01*
Y45500D01*
X32166Y68832D02*
X31499Y69499D01*
X30166D01*
X29500Y68832D01*
Y68166D01*
X30166Y67499D01*
X31499D01*
X32166Y66833D01*
Y66166D01*
X31499Y65500D01*
X30166D01*
X29500Y66166D01*
X33499Y65500D02*
Y69499D01*
X35498D01*
X36165Y68832D01*
Y67499D01*
X35498Y66833D01*
X33499D01*
X34832D02*
X36165Y65500D01*
X37497Y69499D02*
Y66833D01*
X38830Y65500D01*
X40163Y66833D01*
Y69499D01*
X44162D02*
X42829Y68832D01*
X41496Y67499D01*
Y66166D01*
X42163Y65500D01*
X43496D01*
X44162Y66166D01*
Y66833D01*
X43496Y67499D01*
X41496D01*
X32166Y88832D02*
X31499Y89499D01*
X30166D01*
X29500Y88832D01*
Y88166D01*
X30166Y87499D01*
X31499D01*
X32166Y86833D01*
Y86166D01*
X31499Y85500D01*
X30166D01*
X29500Y86166D01*
X33499Y85500D02*
Y89499D01*
X35498D01*
X36165Y88832D01*
Y87499D01*
X35498Y86833D01*
X33499D01*
X34832D02*
X36165Y85500D01*
X37497Y89499D02*
Y86833D01*
X38830Y85500D01*
X40163Y86833D01*
Y89499D01*
X44162D02*
X41496D01*
Y87499D01*
X42829Y88166D01*
X43496D01*
X44162Y87499D01*
Y86166D01*
X43496Y85500D01*
X42163D01*
X41496Y86166D01*
X32166Y108832D02*
X31499Y109499D01*
X30166D01*
X29500Y108832D01*
Y108166D01*
X30166Y107499D01*
X31499D01*
X32166Y106833D01*
Y106167D01*
X31499Y105500D01*
X30166D01*
X29500Y106167D01*
X33499Y105500D02*
Y109499D01*
X35498D01*
X36165Y108832D01*
Y107499D01*
X35498Y106833D01*
X33499D01*
X34832D02*
X36165Y105500D01*
X37497Y109499D02*
Y106833D01*
X38830Y105500D01*
X40163Y106833D01*
Y109499D01*
X43496Y105500D02*
Y109499D01*
X41496Y107499D01*
X44162D01*
X32166Y128832D02*
X31499Y129499D01*
X30166D01*
X29500Y128832D01*
Y128166D01*
X30166Y127499D01*
X31499D01*
X32166Y126833D01*
Y126166D01*
X31499Y125500D01*
X30166D01*
X29500Y126166D01*
X33499Y125500D02*
Y129499D01*
X35498D01*
X36165Y128832D01*
Y127499D01*
X35498Y126833D01*
X33499D01*
X34832D02*
X36165Y125500D01*
X37497Y129499D02*
Y126833D01*
X38830Y125500D01*
X40163Y126833D01*
Y129499D01*
X41496Y128832D02*
X42163Y129499D01*
X43496D01*
X44162Y128832D01*
Y128166D01*
X43496Y127499D01*
X42829D01*
X43496D01*
X44162Y126833D01*
Y126166D01*
X43496Y125500D01*
X42163D01*
X41496Y126166D01*
X32166Y148832D02*
X31499Y149499D01*
X30166D01*
X29500Y148832D01*
Y148166D01*
X30166Y147499D01*
X31499D01*
X32166Y146833D01*
Y146167D01*
X31499Y145500D01*
X30166D01*
X29500Y146167D01*
X33499Y145500D02*
Y149499D01*
X35498D01*
X36165Y148832D01*
Y147499D01*
X35498Y146833D01*
X33499D01*
X34832D02*
X36165Y145500D01*
X37497Y149499D02*
Y146833D01*
X38830Y145500D01*
X40163Y146833D01*
Y149499D01*
X44162Y145500D02*
X41496D01*
X44162Y148166D01*
Y148832D01*
X43496Y149499D01*
X42163D01*
X41496Y148832D01*
X32166Y168832D02*
X31499Y169499D01*
X30166D01*
X29500Y168832D01*
Y168166D01*
X30166Y167499D01*
X31499D01*
X32166Y166833D01*
Y166166D01*
X31499Y165500D01*
X30166D01*
X29500Y166166D01*
X33499Y165500D02*
Y169499D01*
X35498D01*
X36165Y168832D01*
Y167499D01*
X35498Y166833D01*
X33499D01*
X34832D02*
X36165Y165500D01*
X37497Y169499D02*
Y166833D01*
X38830Y165500D01*
X40163Y166833D01*
Y169499D01*
X41496Y165500D02*
X42829D01*
X42163D01*
Y169499D01*
X41496Y168832D01*
X32166Y188832D02*
X31499Y189499D01*
X30166D01*
X29500Y188832D01*
Y188166D01*
X30166Y187499D01*
X31499D01*
X32166Y186833D01*
Y186167D01*
X31499Y185500D01*
X30166D01*
X29500Y186167D01*
X33499Y185500D02*
Y189499D01*
X35498D01*
X36165Y188832D01*
Y187499D01*
X35498Y186833D01*
X33499D01*
X34832D02*
X36165Y185500D01*
X37497Y189499D02*
Y186833D01*
X38830Y185500D01*
X40163Y186833D01*
Y189499D01*
X41496Y188832D02*
X42163Y189499D01*
X43496D01*
X44162Y188832D01*
Y186167D01*
X43496Y185500D01*
X42163D01*
X41496Y186167D01*
Y188832D01*
X247666Y28166D02*
Y30832D01*
X246999Y31499D01*
X245666D01*
X245000Y30832D01*
Y28166D01*
X245666Y27500D01*
X246999D01*
X246333Y28833D02*
X247666Y27500D01*
X246999D02*
X247666Y28166D01*
X248999Y27500D02*
X250332D01*
X249665D01*
Y31499D01*
X248999Y30832D01*
X190000Y42500D02*
Y46499D01*
X191999D01*
X192666Y45832D01*
Y44499D01*
X191999Y43833D01*
X190000D01*
X193999Y46499D02*
Y42500D01*
X195332Y43833D01*
X196665Y42500D01*
Y46499D01*
X197997Y42500D02*
Y46499D01*
X199997D01*
X200663Y45832D01*
Y44499D01*
X199997Y43833D01*
X197997D01*
X199330D02*
X200663Y42500D01*
X215952Y88899D02*
Y86614D01*
X215000Y88328D02*
X216904Y87185D01*
Y88328D02*
X215000Y87185D01*
X220166Y146499D02*
X217500D01*
Y144499D01*
X218833Y145166D01*
X219499D01*
X220166Y144499D01*
Y143166D01*
X219499Y142500D01*
X218166D01*
X217500Y143166D01*
X221499Y146499D02*
Y143833D01*
X222832Y142500D01*
X224165Y143833D01*
Y146499D01*
X229496Y142500D02*
Y146499D01*
X231495D01*
X232162Y145832D01*
Y144499D01*
X231495Y143833D01*
X229496D01*
X230829D02*
X232162Y142500D01*
X236161Y146499D02*
X233495D01*
Y142500D01*
X236161D01*
X233495Y144499D02*
X234828D01*
X240159Y145832D02*
X239493Y146499D01*
X238160D01*
X237494Y145832D01*
Y143166D01*
X238160Y142500D01*
X239493D01*
X240159Y143166D01*
Y144499D01*
X238826D01*
M02*
