G04*
G04 #@! TF.GenerationSoftware,Altium Limited,Altium Designer,19.1.5 (86)*
G04*
G04 Layer_Color=65535*
%FSLAX25Y25*%
%MOIN*%
G70*
G01*
G75*
%ADD10C,0.01000*%
%ADD11C,0.01968*%
%ADD12C,0.00787*%
%ADD13C,0.00500*%
D10*
X18000Y10000D02*
G03*
X18000Y10000I-8000J0D01*
G01*
Y58000D02*
G03*
X18000Y58000I-8000J0D01*
G01*
X78000D02*
G03*
X78000Y58000I-8000J0D01*
G01*
Y10000D02*
G03*
X78000Y10000I-8000J0D01*
G01*
D11*
X76501Y20999D02*
G03*
X76501Y20999I-1001J0D01*
G01*
D12*
X37244Y28095D02*
G03*
X37244Y28095I-394J0D01*
G01*
X29000Y7500D02*
X49000D01*
Y17500D01*
X29000D02*
X49000D01*
X29000Y7500D02*
Y17500D01*
X71500Y29833D02*
Y49000D01*
Y19000D02*
Y49000D01*
X51500Y19000D02*
Y49000D01*
Y19000D02*
X71500D01*
X51500Y49000D02*
X71500D01*
X24154Y22500D02*
Y27500D01*
X40740Y50500D02*
Y55500D01*
D13*
X35276Y29197D02*
X44724D01*
X35276D02*
Y38803D01*
X44724D01*
Y29197D02*
Y38803D01*
X33500Y3000D02*
Y4999D01*
X34500Y5999D01*
X35499Y4999D01*
Y3000D01*
Y4499D01*
X33500D01*
X36499Y5999D02*
Y3000D01*
X37999D01*
X38498Y3500D01*
Y5499D01*
X37999Y5999D01*
X36499D01*
X39498D02*
Y3000D01*
X40998D01*
X41497Y3500D01*
Y5499D01*
X40998Y5999D01*
X39498D01*
X42497Y3000D02*
Y5999D01*
X43997D01*
X44496Y5499D01*
Y4499D01*
X43997Y4000D01*
X42497D01*
X43497D02*
X44496Y3000D01*
X53500Y51000D02*
Y53999D01*
X55000D01*
X55499Y53499D01*
Y52500D01*
X55000Y52000D01*
X53500D01*
X56499Y51000D02*
X57499D01*
X56999D01*
Y53999D01*
X56499Y53499D01*
X22000Y18000D02*
Y20999D01*
X23499D01*
X23999Y20499D01*
Y19500D01*
X23499Y19000D01*
X22000D01*
X23000D02*
X23999Y18000D01*
X24999D02*
X25999D01*
X25499D01*
Y20999D01*
X24999Y20499D01*
X40999Y48499D02*
X40499Y48999D01*
X39500D01*
X39000Y48499D01*
Y46500D01*
X39500Y46000D01*
X40499D01*
X40999Y46500D01*
X41999Y46000D02*
X42999D01*
X42499D01*
Y48999D01*
X41999Y48499D01*
X30500Y37999D02*
Y35500D01*
X31000Y35000D01*
X31999D01*
X32499Y35500D01*
Y37999D01*
X33499Y35000D02*
X34499D01*
X33999D01*
Y37999D01*
X33499Y37499D01*
M02*
