G04*
G04 #@! TF.GenerationSoftware,Altium Limited,Altium Designer,19.1.5 (86)*
G04*
G04 Layer_Physical_Order=1*
G04 Layer_Color=255*
%FSLAX25Y25*%
%MOIN*%
G70*
G01*
G75*
%ADD10C,0.01000*%
%ADD14C,0.10000*%
%ADD22C,0.05000*%
%ADD23R,0.00984X0.01083*%
%ADD24R,0.01083X0.00984*%
%ADD25R,0.05906X0.05118*%
%ADD26C,0.05906*%
%ADD27R,0.05906X0.05906*%
%ADD28C,0.03000*%
D10*
X30500Y42000D02*
X37500Y35000D01*
X23000Y42000D02*
X30500D01*
X22760Y42240D02*
X23000Y42000D01*
X22500Y42240D02*
X22760D01*
X28532Y30083D02*
X30500D01*
X26484Y28035D02*
X28532Y30083D01*
X26484Y28002D02*
Y28035D01*
X30500Y30083D02*
X34479Y34061D01*
X28453Y28035D02*
X30500Y30083D01*
Y27949D02*
Y30083D01*
X28535Y25984D02*
X30500Y27949D01*
X28502Y25984D02*
X28535D01*
X36561Y34061D02*
X37500Y35000D01*
X34479Y34061D02*
X36561D01*
X28453Y28002D02*
Y28035D01*
X22500Y30051D02*
X24516Y28035D01*
Y28002D02*
Y28035D01*
X22500Y30051D02*
Y34760D01*
X22240Y28260D02*
X22500Y28000D01*
X22240Y28260D02*
Y34500D01*
X22500Y28000D02*
X22502Y28002D01*
X22547D01*
X19000Y34500D02*
X22240D01*
X13500Y29000D02*
X19000Y34500D01*
X13500Y19500D02*
Y29000D01*
Y19500D02*
X18484Y14516D01*
X26484D01*
X32000Y9000D01*
X26484Y14516D02*
Y21998D01*
X32000Y9000D02*
X41500D01*
X47500Y15000D01*
X17500Y22000D02*
X17501Y21999D01*
X22546D01*
X22547Y21998D01*
X37207Y25000D02*
X37500D01*
X34205Y21998D02*
X37207Y25000D01*
X28453Y21998D02*
X34205D01*
D14*
X10000Y10000D02*
D03*
Y40000D02*
D03*
D22*
X7500Y25000D02*
D03*
D23*
X22547Y21998D02*
D03*
X24516D02*
D03*
X26484D02*
D03*
X28453D02*
D03*
Y28002D02*
D03*
X26484D02*
D03*
X24516D02*
D03*
X22547D02*
D03*
D24*
X28502Y24016D02*
D03*
Y25984D02*
D03*
X22498D02*
D03*
Y24016D02*
D03*
D25*
X22500Y34760D02*
D03*
Y42240D02*
D03*
D26*
X37500Y35000D02*
D03*
X47500D02*
D03*
X37500Y25000D02*
D03*
X47500D02*
D03*
X37500Y15000D02*
D03*
D27*
X47500D02*
D03*
D28*
X17500Y22000D02*
D03*
M02*
