G04*
G04 #@! TF.GenerationSoftware,Altium Limited,Altium Designer,19.1.5 (86)*
G04*
G04 Layer_Physical_Order=1*
G04 Layer_Color=255*
%FSLAX25Y25*%
%MOIN*%
G70*
G01*
G75*
%ADD10C,0.01000*%
%ADD14C,0.10000*%
%ADD22C,0.05000*%
%ADD23R,0.00984X0.01083*%
%ADD24R,0.01083X0.00984*%
%ADD25R,0.05118X0.05906*%
%ADD26C,0.05906*%
%ADD27R,0.05906X0.05906*%
%ADD28C,0.03000*%
D10*
X29500Y16500D02*
X48500D01*
X18500Y27500D02*
X29500Y16500D01*
X48500D02*
X56000Y24000D01*
X26000Y31000D02*
X26001Y30999D01*
X31046D01*
X31047Y30998D01*
X39000Y35586D02*
Y37500D01*
X38414Y35000D02*
X39000Y35586D01*
X37000Y35000D02*
X38414D01*
X34984Y37035D02*
X34992Y37043D01*
X36953Y37002D02*
Y37035D01*
X35482Y37500D02*
X39000D01*
X36961Y37043D02*
X38543D01*
X34992Y37043D02*
X35026D01*
X34984Y37002D02*
Y37035D01*
X38543Y37043D02*
X39000Y37500D01*
X36953Y37035D02*
X36961Y37043D01*
X37000Y35000D02*
X37002Y34998D01*
X35026Y37043D02*
X35482Y37500D01*
X37002Y34984D02*
Y34998D01*
X27260Y50606D02*
Y51000D01*
Y41740D02*
Y50606D01*
X18500Y27500D02*
Y41846D01*
X27260Y50606D01*
X34740Y44674D02*
Y51000D01*
Y44674D02*
X35414Y44000D01*
X29000Y39083D02*
Y40000D01*
Y39083D02*
X31047Y37035D01*
Y37002D02*
Y37035D01*
X33000Y37000D02*
Y39000D01*
X27260Y41740D02*
X29000Y40000D01*
X32000D01*
X33000Y39000D01*
Y37000D02*
X33002Y37002D01*
X33016D01*
X35414Y44000D02*
X45500D01*
X22000Y29500D02*
Y40500D01*
Y29500D02*
X26500Y25000D01*
X31500D01*
X35000Y28500D01*
Y30362D01*
X34992Y30370D02*
X35000Y30362D01*
X34992Y30370D02*
Y30990D01*
X34984Y30998D02*
X34992Y30990D01*
X45707Y34000D02*
X46000D01*
X42705Y30998D02*
X45707Y34000D01*
X36953Y30998D02*
X42705D01*
X39000Y37500D02*
X45500Y44000D01*
D14*
X10000Y10000D02*
D03*
Y58000D02*
D03*
X58000D02*
D03*
Y10000D02*
D03*
D22*
X34000Y60000D02*
D03*
Y8000D02*
D03*
X10000Y34000D02*
D03*
D23*
X31047Y30998D02*
D03*
X33016D02*
D03*
X34984D02*
D03*
X36953D02*
D03*
Y37002D02*
D03*
X34984D02*
D03*
X33016D02*
D03*
X31047D02*
D03*
D24*
X37002Y33016D02*
D03*
Y34984D02*
D03*
X30998D02*
D03*
Y33016D02*
D03*
D25*
X27260Y51000D02*
D03*
X34740D02*
D03*
D26*
X46000Y44000D02*
D03*
X56000D02*
D03*
X46000Y34000D02*
D03*
X56000D02*
D03*
X46000Y24000D02*
D03*
D27*
X56000D02*
D03*
D28*
X26000Y31000D02*
D03*
X22000Y40500D02*
D03*
M02*
