M48
;Layer_Color=9474304
;FILE_FORMAT=2:5
INCH,TZ
;TYPE=PLATED
T1F00S00C0.00800
T2F00S00C0.01600
T3F00S00C0.04000
T4F00S00C0.12598
%
T01
X144095Y97512
X147638
Y94126
X152362
Y97512
X155905
Y102000
X152362
Y106488
Y109874
X147638
Y106488
X144095
Y102000
X147638
X155905Y106488
T02
X67500Y19000
X65000Y29000
X87500Y19000
X94846Y10000
X193000Y119000
X177000Y135213
X154000Y140000
X157087Y144000
X159000Y153000
X136276
X128000Y167331
X98000Y176000
X84000Y183500
X71106
X50000Y183000
X54000Y156000
X74000
X72500Y147000
X94000
Y156000
X121000Y122000
X136000Y121000
X142000Y127842
X155541Y122000
X155000Y60000
X177000Y71000
X189000Y81000
X122000Y67158
X110000Y84000
X112500Y43740
X82500Y45000
X75000Y40000
X67500Y36260
Y45000
X42500Y43740
Y36260
X36900Y54100
X34000Y36000
X16700Y98800
T03
X110000Y10000
X120000
X130000
X140000
X150000
X160000
X170000
X180000
X200000
X210000
X220000
X230000
X240000
X250000
X250551Y99803
Y109803
Y119803
X260551
Y109803
Y99803
X190000Y200000
X180000
X164000
X154000
X144000
X134000
X124000
X114000
X104000
X94000
X84000
X74000
X200000
X210000
X220000
X230000
X240000
X250000
T04
X55000Y10000
X260000Y30000
Y140000
X60000Y200000
M30
