G04*
G04 #@! TF.GenerationSoftware,Altium Limited,Altium Designer,19.1.5 (86)*
G04*
G04 Layer_Physical_Order=1*
G04 Layer_Color=255*
%FSLAX25Y25*%
%MOIN*%
G70*
G01*
G75*
%ADD11C,0.01000*%
%ADD35R,0.05118X0.05906*%
%ADD36C,0.05000*%
%ADD37R,0.02800X0.05600*%
%ADD38R,0.05600X0.02800*%
%ADD39R,0.04331X0.05512*%
%ADD40R,0.02165X0.00787*%
%ADD41R,0.00787X0.02165*%
%ADD42R,0.13780X0.17717*%
%ADD43R,0.03937X0.01968*%
%ADD44R,0.01968X0.03937*%
%ADD45R,0.03937X0.05512*%
%ADD46R,0.04724X0.09843*%
%ADD47R,0.03937X0.04724*%
%ADD48R,0.03150X0.03543*%
%ADD49R,0.07100X0.17700*%
%ADD50R,0.04764X0.02323*%
%ADD51C,0.02000*%
%ADD52C,0.00800*%
%ADD53C,0.07000*%
%ADD54C,0.01968*%
%ADD55R,0.06000X0.06000*%
%ADD56C,0.06000*%
%ADD57C,0.12598*%
%ADD58C,0.03000*%
G36*
X250905Y197002D02*
X250820Y196972D01*
X250745Y196922D01*
X250680Y196852D01*
X250625Y196762D01*
X250580Y196652D01*
X250545Y196522D01*
X250520Y196372D01*
X250505Y196202D01*
X250500Y196012D01*
X249500D01*
X249495Y196202D01*
X249480Y196372D01*
X249455Y196522D01*
X249420Y196652D01*
X249375Y196762D01*
X249320Y196852D01*
X249255Y196922D01*
X249180Y196972D01*
X249095Y197002D01*
X249000Y197012D01*
X251000D01*
X250905Y197002D01*
D02*
G37*
G36*
X164905D02*
X164820Y196972D01*
X164745Y196922D01*
X164680Y196852D01*
X164625Y196762D01*
X164580Y196652D01*
X164545Y196522D01*
X164520Y196372D01*
X164505Y196202D01*
X164500Y196012D01*
X163500D01*
X163495Y196202D01*
X163480Y196372D01*
X163455Y196522D01*
X163420Y196652D01*
X163375Y196762D01*
X163320Y196852D01*
X163255Y196922D01*
X163180Y196972D01*
X163095Y197002D01*
X163000Y197012D01*
X165000D01*
X164905Y197002D01*
D02*
G37*
G36*
X241796Y197549D02*
X241284Y196964D01*
X241076Y196686D01*
X240900Y196420D01*
X240756Y196163D01*
X240644Y195917D01*
X240564Y195682D01*
X240516Y195457D01*
X240500Y195242D01*
X239500D01*
X239484Y195457D01*
X239436Y195682D01*
X239356Y195917D01*
X239244Y196163D01*
X239100Y196420D01*
X238924Y196686D01*
X238716Y196964D01*
X238204Y197549D01*
X237900Y197858D01*
X242100D01*
X241796Y197549D01*
D02*
G37*
G36*
X231796D02*
X231284Y196964D01*
X231076Y196686D01*
X230900Y196420D01*
X230756Y196163D01*
X230644Y195917D01*
X230564Y195682D01*
X230516Y195457D01*
X230500Y195242D01*
X229500D01*
X229484Y195457D01*
X229436Y195682D01*
X229356Y195917D01*
X229244Y196163D01*
X229100Y196420D01*
X228924Y196686D01*
X228716Y196964D01*
X228204Y197549D01*
X227900Y197858D01*
X232100D01*
X231796Y197549D01*
D02*
G37*
G36*
X221796D02*
X221284Y196964D01*
X221076Y196686D01*
X220900Y196420D01*
X220756Y196163D01*
X220644Y195917D01*
X220564Y195682D01*
X220516Y195457D01*
X220500Y195242D01*
X219500D01*
X219484Y195457D01*
X219436Y195682D01*
X219356Y195917D01*
X219244Y196163D01*
X219100Y196420D01*
X218924Y196686D01*
X218716Y196964D01*
X218204Y197549D01*
X217900Y197858D01*
X222100D01*
X221796Y197549D01*
D02*
G37*
G36*
X211796D02*
X211284Y196964D01*
X211076Y196686D01*
X210900Y196420D01*
X210756Y196163D01*
X210644Y195917D01*
X210564Y195682D01*
X210516Y195457D01*
X210500Y195242D01*
X209500D01*
X209484Y195457D01*
X209436Y195682D01*
X209356Y195917D01*
X209244Y196163D01*
X209100Y196420D01*
X208924Y196686D01*
X208716Y196964D01*
X208204Y197549D01*
X207900Y197858D01*
X212100D01*
X211796Y197549D01*
D02*
G37*
G36*
X201796D02*
X201284Y196964D01*
X201076Y196686D01*
X200900Y196420D01*
X200756Y196163D01*
X200644Y195917D01*
X200564Y195682D01*
X200516Y195457D01*
X200500Y195242D01*
X199500D01*
X199484Y195457D01*
X199436Y195682D01*
X199356Y195917D01*
X199244Y196163D01*
X199100Y196420D01*
X198924Y196686D01*
X198716Y196964D01*
X198204Y197549D01*
X197900Y197858D01*
X202100D01*
X201796Y197549D01*
D02*
G37*
G36*
X191796D02*
X191284Y196964D01*
X191076Y196686D01*
X190900Y196420D01*
X190756Y196163D01*
X190644Y195917D01*
X190564Y195682D01*
X190516Y195457D01*
X190500Y195242D01*
X189500D01*
X189484Y195457D01*
X189436Y195682D01*
X189356Y195917D01*
X189244Y196163D01*
X189100Y196420D01*
X188924Y196686D01*
X188716Y196964D01*
X188204Y197549D01*
X187900Y197858D01*
X192100D01*
X191796Y197549D01*
D02*
G37*
G36*
X181796D02*
X181284Y196964D01*
X181076Y196686D01*
X180900Y196420D01*
X180756Y196163D01*
X180644Y195917D01*
X180564Y195682D01*
X180516Y195457D01*
X180500Y195242D01*
X179500D01*
X179484Y195457D01*
X179436Y195682D01*
X179356Y195917D01*
X179244Y196163D01*
X179100Y196420D01*
X178924Y196686D01*
X178716Y196964D01*
X178204Y197549D01*
X177900Y197858D01*
X182100D01*
X181796Y197549D01*
D02*
G37*
G36*
X155796D02*
X155284Y196964D01*
X155076Y196686D01*
X154900Y196420D01*
X154756Y196163D01*
X154644Y195917D01*
X154564Y195682D01*
X154516Y195457D01*
X154500Y195242D01*
X153500D01*
X153484Y195457D01*
X153436Y195682D01*
X153356Y195917D01*
X153244Y196163D01*
X153100Y196420D01*
X152924Y196686D01*
X152716Y196964D01*
X152204Y197549D01*
X151900Y197858D01*
X156100D01*
X155796Y197549D01*
D02*
G37*
G36*
X145796D02*
X145284Y196964D01*
X145076Y196686D01*
X144900Y196420D01*
X144756Y196163D01*
X144644Y195917D01*
X144564Y195682D01*
X144516Y195457D01*
X144500Y195242D01*
X143500D01*
X143484Y195457D01*
X143436Y195682D01*
X143356Y195917D01*
X143244Y196163D01*
X143100Y196420D01*
X142924Y196686D01*
X142716Y196964D01*
X142204Y197549D01*
X141900Y197858D01*
X146100D01*
X145796Y197549D01*
D02*
G37*
G36*
X135796D02*
X135284Y196964D01*
X135076Y196686D01*
X134900Y196420D01*
X134756Y196163D01*
X134644Y195917D01*
X134564Y195682D01*
X134516Y195457D01*
X134500Y195242D01*
X133500D01*
X133484Y195457D01*
X133436Y195682D01*
X133356Y195917D01*
X133244Y196163D01*
X133100Y196420D01*
X132924Y196686D01*
X132716Y196964D01*
X132204Y197549D01*
X131900Y197858D01*
X136100D01*
X135796Y197549D01*
D02*
G37*
G36*
X125796D02*
X125284Y196964D01*
X125076Y196686D01*
X124900Y196420D01*
X124756Y196163D01*
X124644Y195917D01*
X124564Y195682D01*
X124516Y195457D01*
X124500Y195242D01*
X123500D01*
X123484Y195457D01*
X123436Y195682D01*
X123356Y195917D01*
X123244Y196163D01*
X123100Y196420D01*
X122924Y196686D01*
X122716Y196964D01*
X122204Y197549D01*
X121900Y197858D01*
X126100D01*
X125796Y197549D01*
D02*
G37*
G36*
X115796D02*
X115284Y196964D01*
X115076Y196686D01*
X114900Y196420D01*
X114756Y196163D01*
X114644Y195917D01*
X114564Y195682D01*
X114516Y195457D01*
X114500Y195242D01*
X113500D01*
X113484Y195457D01*
X113436Y195682D01*
X113356Y195917D01*
X113244Y196163D01*
X113100Y196420D01*
X112924Y196686D01*
X112716Y196964D01*
X112204Y197549D01*
X111900Y197858D01*
X116100D01*
X115796Y197549D01*
D02*
G37*
G36*
X105796D02*
X105284Y196964D01*
X105076Y196686D01*
X104900Y196420D01*
X104756Y196163D01*
X104644Y195917D01*
X104564Y195682D01*
X104516Y195457D01*
X104500Y195242D01*
X103500D01*
X103484Y195457D01*
X103436Y195682D01*
X103356Y195917D01*
X103244Y196163D01*
X103100Y196420D01*
X102924Y196686D01*
X102716Y196964D01*
X102204Y197549D01*
X101900Y197858D01*
X106100D01*
X105796Y197549D01*
D02*
G37*
G36*
X95796D02*
X95284Y196964D01*
X95076Y196686D01*
X94900Y196420D01*
X94756Y196163D01*
X94644Y195917D01*
X94564Y195682D01*
X94516Y195457D01*
X94500Y195242D01*
X93500D01*
X93484Y195457D01*
X93436Y195682D01*
X93356Y195917D01*
X93244Y196163D01*
X93100Y196420D01*
X92924Y196686D01*
X92716Y196964D01*
X92204Y197549D01*
X91900Y197858D01*
X96100D01*
X95796Y197549D01*
D02*
G37*
G36*
X85796D02*
X85284Y196964D01*
X85076Y196686D01*
X84900Y196420D01*
X84756Y196163D01*
X84644Y195917D01*
X84564Y195682D01*
X84516Y195457D01*
X84500Y195242D01*
X83500D01*
X83484Y195457D01*
X83436Y195682D01*
X83356Y195917D01*
X83244Y196163D01*
X83100Y196420D01*
X82924Y196686D01*
X82716Y196964D01*
X82204Y197549D01*
X81900Y197858D01*
X86100D01*
X85796Y197549D01*
D02*
G37*
G36*
X75796D02*
X75284Y196964D01*
X75076Y196686D01*
X74900Y196420D01*
X74756Y196163D01*
X74644Y195917D01*
X74564Y195682D01*
X74516Y195457D01*
X74500Y195242D01*
X73500D01*
X73484Y195457D01*
X73436Y195682D01*
X73356Y195917D01*
X73244Y196163D01*
X73100Y196420D01*
X72924Y196686D01*
X72716Y196964D01*
X72204Y197549D01*
X71900Y197858D01*
X76100D01*
X75796Y197549D01*
D02*
G37*
G36*
X250505Y194596D02*
X250520Y194424D01*
X250545Y194272D01*
X250580Y194140D01*
X250625Y194029D01*
X250680Y193938D01*
X250745Y193867D01*
X250820Y193816D01*
X250905Y193786D01*
X251000Y193776D01*
X249000D01*
X249095Y193786D01*
X249180Y193816D01*
X249255Y193867D01*
X249320Y193938D01*
X249375Y194029D01*
X249420Y194140D01*
X249455Y194272D01*
X249480Y194424D01*
X249495Y194596D01*
X249500Y194788D01*
X250500D01*
X250505Y194596D01*
D02*
G37*
G36*
X240505D02*
X240520Y194424D01*
X240545Y194272D01*
X240580Y194140D01*
X240625Y194029D01*
X240680Y193938D01*
X240745Y193867D01*
X240820Y193816D01*
X240905Y193786D01*
X241000Y193776D01*
X239000D01*
X239095Y193786D01*
X239180Y193816D01*
X239255Y193867D01*
X239320Y193938D01*
X239375Y194029D01*
X239420Y194140D01*
X239455Y194272D01*
X239480Y194424D01*
X239495Y194596D01*
X239500Y194788D01*
X240500D01*
X240505Y194596D01*
D02*
G37*
G36*
X230505D02*
X230520Y194424D01*
X230545Y194272D01*
X230580Y194140D01*
X230625Y194029D01*
X230680Y193938D01*
X230745Y193867D01*
X230820Y193816D01*
X230905Y193786D01*
X231000Y193776D01*
X229000D01*
X229095Y193786D01*
X229180Y193816D01*
X229255Y193867D01*
X229320Y193938D01*
X229375Y194029D01*
X229420Y194140D01*
X229455Y194272D01*
X229480Y194424D01*
X229495Y194596D01*
X229500Y194788D01*
X230500D01*
X230505Y194596D01*
D02*
G37*
G36*
X220505D02*
X220520Y194424D01*
X220545Y194272D01*
X220580Y194140D01*
X220625Y194029D01*
X220680Y193938D01*
X220745Y193867D01*
X220820Y193816D01*
X220905Y193786D01*
X221000Y193776D01*
X219000D01*
X219095Y193786D01*
X219180Y193816D01*
X219255Y193867D01*
X219320Y193938D01*
X219375Y194029D01*
X219420Y194140D01*
X219455Y194272D01*
X219480Y194424D01*
X219495Y194596D01*
X219500Y194788D01*
X220500D01*
X220505Y194596D01*
D02*
G37*
G36*
X210505D02*
X210520Y194424D01*
X210545Y194272D01*
X210580Y194140D01*
X210625Y194029D01*
X210680Y193938D01*
X210745Y193867D01*
X210820Y193816D01*
X210905Y193786D01*
X211000Y193776D01*
X209000D01*
X209095Y193786D01*
X209180Y193816D01*
X209255Y193867D01*
X209320Y193938D01*
X209375Y194029D01*
X209420Y194140D01*
X209455Y194272D01*
X209480Y194424D01*
X209495Y194596D01*
X209500Y194788D01*
X210500D01*
X210505Y194596D01*
D02*
G37*
G36*
X200505D02*
X200520Y194424D01*
X200545Y194272D01*
X200580Y194140D01*
X200625Y194029D01*
X200680Y193938D01*
X200745Y193867D01*
X200820Y193816D01*
X200905Y193786D01*
X201000Y193776D01*
X199000D01*
X199095Y193786D01*
X199180Y193816D01*
X199255Y193867D01*
X199320Y193938D01*
X199375Y194029D01*
X199420Y194140D01*
X199455Y194272D01*
X199480Y194424D01*
X199495Y194596D01*
X199500Y194788D01*
X200500D01*
X200505Y194596D01*
D02*
G37*
G36*
X190505D02*
X190520Y194424D01*
X190545Y194272D01*
X190580Y194140D01*
X190625Y194029D01*
X190680Y193938D01*
X190745Y193867D01*
X190820Y193816D01*
X190905Y193786D01*
X191000Y193776D01*
X189000D01*
X189095Y193786D01*
X189180Y193816D01*
X189255Y193867D01*
X189320Y193938D01*
X189375Y194029D01*
X189420Y194140D01*
X189455Y194272D01*
X189480Y194424D01*
X189495Y194596D01*
X189500Y194788D01*
X190500D01*
X190505Y194596D01*
D02*
G37*
G36*
X180505D02*
X180520Y194424D01*
X180545Y194272D01*
X180580Y194140D01*
X180625Y194029D01*
X180680Y193938D01*
X180745Y193867D01*
X180820Y193816D01*
X180905Y193786D01*
X181000Y193776D01*
X179000D01*
X179095Y193786D01*
X179180Y193816D01*
X179255Y193867D01*
X179320Y193938D01*
X179375Y194029D01*
X179420Y194140D01*
X179455Y194272D01*
X179480Y194424D01*
X179495Y194596D01*
X179500Y194788D01*
X180500D01*
X180505Y194596D01*
D02*
G37*
G36*
X164505D02*
X164520Y194424D01*
X164545Y194272D01*
X164580Y194140D01*
X164625Y194029D01*
X164680Y193938D01*
X164745Y193867D01*
X164820Y193816D01*
X164905Y193786D01*
X165000Y193776D01*
X163000D01*
X163095Y193786D01*
X163180Y193816D01*
X163255Y193867D01*
X163320Y193938D01*
X163375Y194029D01*
X163420Y194140D01*
X163455Y194272D01*
X163480Y194424D01*
X163495Y194596D01*
X163500Y194788D01*
X164500D01*
X164505Y194596D01*
D02*
G37*
G36*
X154505D02*
X154520Y194424D01*
X154545Y194272D01*
X154580Y194140D01*
X154625Y194029D01*
X154680Y193938D01*
X154745Y193867D01*
X154820Y193816D01*
X154905Y193786D01*
X155000Y193776D01*
X153000D01*
X153095Y193786D01*
X153180Y193816D01*
X153255Y193867D01*
X153320Y193938D01*
X153375Y194029D01*
X153420Y194140D01*
X153455Y194272D01*
X153480Y194424D01*
X153495Y194596D01*
X153500Y194788D01*
X154500D01*
X154505Y194596D01*
D02*
G37*
G36*
X144505D02*
X144520Y194424D01*
X144545Y194272D01*
X144580Y194140D01*
X144625Y194029D01*
X144680Y193938D01*
X144745Y193867D01*
X144820Y193816D01*
X144905Y193786D01*
X145000Y193776D01*
X143000D01*
X143095Y193786D01*
X143180Y193816D01*
X143255Y193867D01*
X143320Y193938D01*
X143375Y194029D01*
X143420Y194140D01*
X143455Y194272D01*
X143480Y194424D01*
X143495Y194596D01*
X143500Y194788D01*
X144500D01*
X144505Y194596D01*
D02*
G37*
G36*
X134505D02*
X134520Y194424D01*
X134545Y194272D01*
X134580Y194140D01*
X134625Y194029D01*
X134680Y193938D01*
X134745Y193867D01*
X134820Y193816D01*
X134905Y193786D01*
X135000Y193776D01*
X133000D01*
X133095Y193786D01*
X133180Y193816D01*
X133255Y193867D01*
X133320Y193938D01*
X133375Y194029D01*
X133420Y194140D01*
X133455Y194272D01*
X133480Y194424D01*
X133495Y194596D01*
X133500Y194788D01*
X134500D01*
X134505Y194596D01*
D02*
G37*
G36*
X124505D02*
X124520Y194424D01*
X124545Y194272D01*
X124580Y194140D01*
X124625Y194029D01*
X124680Y193938D01*
X124745Y193867D01*
X124820Y193816D01*
X124905Y193786D01*
X125000Y193776D01*
X123000D01*
X123095Y193786D01*
X123180Y193816D01*
X123255Y193867D01*
X123320Y193938D01*
X123375Y194029D01*
X123420Y194140D01*
X123455Y194272D01*
X123480Y194424D01*
X123495Y194596D01*
X123500Y194788D01*
X124500D01*
X124505Y194596D01*
D02*
G37*
G36*
X114505D02*
X114520Y194424D01*
X114545Y194272D01*
X114580Y194140D01*
X114625Y194029D01*
X114680Y193938D01*
X114745Y193867D01*
X114820Y193816D01*
X114905Y193786D01*
X115000Y193776D01*
X113000D01*
X113095Y193786D01*
X113180Y193816D01*
X113255Y193867D01*
X113320Y193938D01*
X113375Y194029D01*
X113420Y194140D01*
X113455Y194272D01*
X113480Y194424D01*
X113495Y194596D01*
X113500Y194788D01*
X114500D01*
X114505Y194596D01*
D02*
G37*
G36*
X104505D02*
X104520Y194424D01*
X104545Y194272D01*
X104580Y194140D01*
X104625Y194029D01*
X104680Y193938D01*
X104745Y193867D01*
X104820Y193816D01*
X104905Y193786D01*
X105000Y193776D01*
X103000D01*
X103095Y193786D01*
X103180Y193816D01*
X103255Y193867D01*
X103320Y193938D01*
X103375Y194029D01*
X103420Y194140D01*
X103455Y194272D01*
X103480Y194424D01*
X103495Y194596D01*
X103500Y194788D01*
X104500D01*
X104505Y194596D01*
D02*
G37*
G36*
X94505D02*
X94520Y194424D01*
X94545Y194272D01*
X94580Y194140D01*
X94625Y194029D01*
X94680Y193938D01*
X94745Y193867D01*
X94820Y193816D01*
X94905Y193786D01*
X95000Y193776D01*
X93000D01*
X93095Y193786D01*
X93180Y193816D01*
X93255Y193867D01*
X93320Y193938D01*
X93375Y194029D01*
X93420Y194140D01*
X93455Y194272D01*
X93480Y194424D01*
X93495Y194596D01*
X93500Y194788D01*
X94500D01*
X94505Y194596D01*
D02*
G37*
G36*
X84505D02*
X84520Y194424D01*
X84545Y194272D01*
X84580Y194140D01*
X84625Y194029D01*
X84680Y193938D01*
X84745Y193867D01*
X84820Y193816D01*
X84905Y193786D01*
X85000Y193776D01*
X83000D01*
X83095Y193786D01*
X83180Y193816D01*
X83255Y193867D01*
X83320Y193938D01*
X83375Y194029D01*
X83420Y194140D01*
X83455Y194272D01*
X83480Y194424D01*
X83495Y194596D01*
X83500Y194788D01*
X84500D01*
X84505Y194596D01*
D02*
G37*
G36*
X74505D02*
X74520Y194424D01*
X74545Y194272D01*
X74580Y194140D01*
X74625Y194029D01*
X74680Y193938D01*
X74745Y193867D01*
X74820Y193816D01*
X74905Y193786D01*
X75000Y193776D01*
X73000D01*
X73095Y193786D01*
X73180Y193816D01*
X73255Y193867D01*
X73320Y193938D01*
X73375Y194029D01*
X73420Y194140D01*
X73455Y194272D01*
X73480Y194424D01*
X73495Y194596D01*
X73500Y194788D01*
X74500D01*
X74505Y194596D01*
D02*
G37*
G36*
X164905Y188214D02*
X164820Y188183D01*
X164745Y188133D01*
X164680Y188062D01*
X164625Y187971D01*
X164580Y187860D01*
X164545Y187728D01*
X164520Y187576D01*
X164505Y187404D01*
X164500Y187212D01*
X163500D01*
X163495Y187404D01*
X163480Y187576D01*
X163455Y187728D01*
X163420Y187860D01*
X163375Y187971D01*
X163320Y188062D01*
X163255Y188133D01*
X163180Y188183D01*
X163095Y188214D01*
X163000Y188224D01*
X165000D01*
X164905Y188214D01*
D02*
G37*
G36*
X84905D02*
X84820Y188183D01*
X84745Y188133D01*
X84680Y188062D01*
X84625Y187971D01*
X84580Y187860D01*
X84545Y187728D01*
X84520Y187576D01*
X84505Y187404D01*
X84500Y187212D01*
X83500D01*
X83495Y187404D01*
X83480Y187576D01*
X83455Y187728D01*
X83420Y187860D01*
X83375Y187971D01*
X83320Y188062D01*
X83255Y188133D01*
X83180Y188183D01*
X83095Y188214D01*
X83000Y188224D01*
X85000D01*
X84905Y188214D01*
D02*
G37*
G36*
X74905D02*
X74820Y188183D01*
X74745Y188133D01*
X74680Y188062D01*
X74625Y187971D01*
X74580Y187860D01*
X74545Y187728D01*
X74520Y187576D01*
X74505Y187404D01*
X74500Y187212D01*
X73500D01*
X73495Y187404D01*
X73480Y187576D01*
X73455Y187728D01*
X73420Y187860D01*
X73375Y187971D01*
X73320Y188062D01*
X73255Y188133D01*
X73180Y188183D01*
X73095Y188214D01*
X73000Y188224D01*
X75000D01*
X74905Y188214D01*
D02*
G37*
G36*
X73096Y184783D02*
X73002Y184681D01*
X72917Y184573D01*
X72843Y184460D01*
X72779Y184341D01*
X72725Y184217D01*
X72681Y184088D01*
X72647Y183953D01*
X72623Y183812D01*
X72610Y183666D01*
X72606Y183515D01*
X71106Y183500D01*
X71091Y182000D01*
X70940Y181997D01*
X70794Y181983D01*
X70654Y181959D01*
X70519Y181925D01*
X70389Y181881D01*
X70265Y181827D01*
X70147Y181763D01*
X70033Y181689D01*
X69926Y181605D01*
X69823Y181510D01*
X69116Y182217D01*
X69211Y182319D01*
X69295Y182427D01*
X69370Y182540D01*
X69434Y182659D01*
X69488Y182783D01*
X69532Y182913D01*
X69565Y183047D01*
X69589Y183188D01*
X69603Y183334D01*
X69606Y183485D01*
X71106Y183500D01*
X71121Y185000D01*
X71273Y185003D01*
X71418Y185017D01*
X71559Y185041D01*
X71694Y185075D01*
X71823Y185119D01*
X71947Y185173D01*
X72066Y185237D01*
X72179Y185311D01*
X72287Y185396D01*
X72389Y185490D01*
X73096Y184783D01*
D02*
G37*
G36*
X84505Y185675D02*
X84522Y185539D01*
X84549Y185407D01*
X84588Y185277D01*
X84637Y185152D01*
X84698Y185029D01*
X84769Y184909D01*
X84852Y184793D01*
X84945Y184681D01*
X85050Y184571D01*
X84000Y183500D01*
X85050Y182429D01*
X84945Y182319D01*
X84852Y182206D01*
X84769Y182090D01*
X84698Y181971D01*
X84637Y181849D01*
X84588Y181722D01*
X84549Y181593D01*
X84522Y181461D01*
X84505Y181325D01*
X84500Y181186D01*
X83500D01*
X83495Y181325D01*
X83478Y181461D01*
X83451Y181593D01*
X83412Y181722D01*
X83363Y181849D01*
X83302Y181971D01*
X83231Y182090D01*
X83148Y182206D01*
X83055Y182319D01*
X82950Y182429D01*
X84000Y183500D01*
X82950Y184571D01*
X83055Y184681D01*
X83148Y184793D01*
X83231Y184909D01*
X83302Y185029D01*
X83363Y185152D01*
X83412Y185277D01*
X83451Y185407D01*
X83478Y185539D01*
X83495Y185675D01*
X83500Y185814D01*
X84500D01*
X84505Y185675D01*
D02*
G37*
G36*
X51503Y182900D02*
X51522Y182866D01*
X51553Y182821D01*
X51597Y182765D01*
X51723Y182620D01*
X52127Y182200D01*
X50636Y180864D01*
X49954Y181501D01*
X51498Y182924D01*
X51503Y182900D01*
D02*
G37*
G36*
X84505Y179748D02*
X84520Y179576D01*
X84545Y179425D01*
X84580Y179293D01*
X84625Y179182D01*
X84680Y179091D01*
X84745Y179020D01*
X84820Y178969D01*
X84905Y178939D01*
X85000Y178929D01*
X83000D01*
X83095Y178939D01*
X83180Y178969D01*
X83255Y179020D01*
X83320Y179091D01*
X83375Y179182D01*
X83420Y179293D01*
X83455Y179425D01*
X83480Y179576D01*
X83495Y179748D01*
X83500Y179941D01*
X84500D01*
X84505Y179748D01*
D02*
G37*
G36*
X67254Y178941D02*
X67055Y178735D01*
X66741Y178366D01*
X66627Y178202D01*
X66541Y178054D01*
X66483Y177920D01*
X66454Y177800D01*
X66453Y177694D01*
X66480Y177603D01*
X66535Y177526D01*
X65133Y178929D01*
X65210Y178873D01*
X65301Y178846D01*
X65406Y178848D01*
X65526Y178877D01*
X65660Y178935D01*
X65809Y179021D01*
X65972Y179135D01*
X66149Y179278D01*
X66547Y179648D01*
X67254Y178941D01*
D02*
G37*
G36*
X54383Y179959D02*
X55118Y179337D01*
X55443Y179111D01*
X55740Y178941D01*
X56009Y178828D01*
X56249Y178771D01*
X56462D01*
X56646Y178828D01*
X56801Y178941D01*
X53973Y176112D01*
X54086Y176268D01*
X54142Y176452D01*
Y176664D01*
X54086Y176904D01*
X53973Y177173D01*
X53803Y177470D01*
X53577Y177795D01*
X53294Y178149D01*
X52558Y178941D01*
X53973Y180355D01*
X54383Y179959D01*
D02*
G37*
G36*
X111270Y176905D02*
X111300Y176820D01*
X111351Y176745D01*
X111421Y176680D01*
X111512Y176625D01*
X111624Y176580D01*
X111755Y176545D01*
X111907Y176520D01*
X112079Y176505D01*
X112271Y176500D01*
Y175500D01*
X112079Y175495D01*
X111907Y175480D01*
X111755Y175455D01*
X111624Y175420D01*
X111512Y175375D01*
X111421Y175320D01*
X111351Y175255D01*
X111300Y175180D01*
X111270Y175095D01*
X111259Y175000D01*
Y177000D01*
X111270Y176905D01*
D02*
G37*
G36*
X94047Y177810D02*
X94107Y177640D01*
X94207Y177490D01*
X94347Y177360D01*
X94527Y177250D01*
X94747Y177160D01*
X95007Y177090D01*
X95307Y177040D01*
X95647Y177010D01*
X95997Y177001D01*
X96929Y177050D01*
Y174950D01*
X96911Y174960D01*
X96875Y174968D01*
X96823Y174976D01*
X96668Y174987D01*
X96153Y174999D01*
X96023Y175000D01*
X95647Y174990D01*
X95307Y174960D01*
X95007Y174910D01*
X94747Y174840D01*
X94527Y174750D01*
X94347Y174640D01*
X94207Y174510D01*
X94107Y174360D01*
X94047Y174190D01*
X94027Y174000D01*
Y178000D01*
X94047Y177810D01*
D02*
G37*
G36*
X104905Y174242D02*
X104820Y174212D01*
X104745Y174161D01*
X104680Y174090D01*
X104625Y173999D01*
X104580Y173888D01*
X104545Y173757D01*
X104520Y173605D01*
X104505Y173433D01*
X104500Y173240D01*
X103500D01*
X103495Y173433D01*
X103480Y173605D01*
X103455Y173757D01*
X103420Y173888D01*
X103375Y173999D01*
X103320Y174090D01*
X103255Y174161D01*
X103180Y174212D01*
X103095Y174242D01*
X103000Y174252D01*
X105000D01*
X104905Y174242D01*
D02*
G37*
G36*
X84905Y173061D02*
X84820Y173031D01*
X84745Y172980D01*
X84680Y172909D01*
X84625Y172818D01*
X84580Y172707D01*
X84545Y172575D01*
X84520Y172424D01*
X84505Y172251D01*
X84500Y172059D01*
X83500D01*
X83495Y172251D01*
X83480Y172424D01*
X83455Y172575D01*
X83420Y172707D01*
X83375Y172818D01*
X83320Y172909D01*
X83255Y172980D01*
X83180Y173031D01*
X83095Y173061D01*
X83000Y173071D01*
X85000D01*
X84905Y173061D01*
D02*
G37*
G36*
X64905D02*
X64820Y173031D01*
X64745Y172980D01*
X64680Y172909D01*
X64625Y172818D01*
X64580Y172707D01*
X64545Y172575D01*
X64520Y172424D01*
X64505Y172251D01*
X64500Y172059D01*
X63500D01*
X63495Y172251D01*
X63480Y172424D01*
X63455Y172575D01*
X63420Y172707D01*
X63375Y172818D01*
X63320Y172909D01*
X63255Y172980D01*
X63180Y173031D01*
X63095Y173061D01*
X63000Y173071D01*
X65000D01*
X64905Y173061D01*
D02*
G37*
G36*
X104505Y170882D02*
X104520Y170710D01*
X104545Y170559D01*
X104580Y170427D01*
X104625Y170316D01*
X104680Y170224D01*
X104745Y170154D01*
X104820Y170103D01*
X104905Y170073D01*
X105000Y170063D01*
X103000D01*
X103095Y170073D01*
X103180Y170103D01*
X103255Y170154D01*
X103320Y170224D01*
X103375Y170316D01*
X103420Y170427D01*
X103455Y170559D01*
X103480Y170710D01*
X103495Y170882D01*
X103500Y171075D01*
X104500D01*
X104505Y170882D01*
D02*
G37*
G36*
X84505D02*
X84520Y170710D01*
X84545Y170559D01*
X84580Y170427D01*
X84625Y170316D01*
X84680Y170224D01*
X84745Y170154D01*
X84820Y170103D01*
X84905Y170073D01*
X85000Y170063D01*
X83000D01*
X83095Y170073D01*
X83180Y170103D01*
X83255Y170154D01*
X83320Y170224D01*
X83375Y170316D01*
X83420Y170427D01*
X83455Y170559D01*
X83480Y170710D01*
X83495Y170882D01*
X83500Y171075D01*
X84500D01*
X84505Y170882D01*
D02*
G37*
G36*
X64505D02*
X64520Y170710D01*
X64545Y170559D01*
X64580Y170427D01*
X64625Y170316D01*
X64680Y170224D01*
X64745Y170154D01*
X64820Y170103D01*
X64905Y170073D01*
X65000Y170063D01*
X63000D01*
X63095Y170073D01*
X63180Y170103D01*
X63255Y170154D01*
X63320Y170224D01*
X63375Y170316D01*
X63420Y170427D01*
X63455Y170559D01*
X63480Y170710D01*
X63495Y170882D01*
X63500Y171075D01*
X64500D01*
X64505Y170882D01*
D02*
G37*
G36*
X126929Y167927D02*
X127012Y167932D01*
X127140Y167964D01*
X127234Y167999D01*
X127293Y168038D01*
Y166623D01*
X127234Y166663D01*
X127140Y166698D01*
X127012Y166729D01*
X126929Y166743D01*
Y166281D01*
X126819Y166385D01*
X126707Y166479D01*
X126591Y166561D01*
X126471Y166633D01*
X126348Y166693D01*
X126223Y166743D01*
X126093Y166781D01*
X125961Y166809D01*
X125910Y166815D01*
X125507Y166829D01*
X125134Y166831D01*
Y167831D01*
X125507Y167833D01*
X126032Y167868D01*
X126093Y167880D01*
X126223Y167919D01*
X126348Y167968D01*
X126471Y168029D01*
X126591Y168100D01*
X126707Y168183D01*
X126819Y168276D01*
X126929Y168381D01*
Y167927D01*
D02*
G37*
G36*
X124037Y168236D02*
X124067Y168151D01*
X124117Y168076D01*
X124187Y168011D01*
X124277Y167956D01*
X124387Y167911D01*
X124517Y167876D01*
X124667Y167851D01*
X124837Y167836D01*
X125027Y167831D01*
Y166831D01*
X124837Y166826D01*
X124667Y166811D01*
X124517Y166786D01*
X124387Y166751D01*
X124277Y166706D01*
X124187Y166651D01*
X124117Y166586D01*
X124067Y166511D01*
X124037Y166426D01*
X124027Y166331D01*
Y168331D01*
X124037Y168236D01*
D02*
G37*
G36*
X111465Y166331D02*
X111455Y166426D01*
X111425Y166511D01*
X111374Y166586D01*
X111303Y166651D01*
X111212Y166706D01*
X111101Y166751D01*
X110969Y166786D01*
X110817Y166811D01*
X110645Y166826D01*
X110453Y166831D01*
Y167831D01*
X110645Y167836D01*
X110817Y167851D01*
X110969Y167876D01*
X111101Y167911D01*
X111212Y167956D01*
X111303Y168011D01*
X111374Y168076D01*
X111425Y168151D01*
X111455Y168236D01*
X111465Y168331D01*
Y166331D01*
D02*
G37*
G36*
X105955Y168236D02*
X105985Y168151D01*
X106036Y168076D01*
X106106Y168011D01*
X106198Y167956D01*
X106309Y167911D01*
X106440Y167876D01*
X106592Y167851D01*
X106764Y167836D01*
X106957Y167831D01*
Y166831D01*
X106764Y166826D01*
X106592Y166811D01*
X106440Y166786D01*
X106309Y166751D01*
X106198Y166706D01*
X106106Y166651D01*
X106036Y166586D01*
X105985Y166511D01*
X105955Y166426D01*
X105945Y166331D01*
Y168331D01*
X105955Y168236D01*
D02*
G37*
G36*
X129089Y168371D02*
X129125Y168363D01*
X129177Y168355D01*
X129332Y168343D01*
X129847Y168331D01*
X130018Y168331D01*
Y166331D01*
X129071Y166281D01*
Y168381D01*
X129089Y168371D01*
D02*
G37*
G36*
X98315Y157669D02*
X98305Y157764D01*
X98275Y157849D01*
X98224Y157924D01*
X98153Y157989D01*
X98062Y158044D01*
X97951Y158089D01*
X97820Y158124D01*
X97668Y158149D01*
X97496Y158164D01*
X97303Y158169D01*
Y159169D01*
X97496Y159174D01*
X97668Y159189D01*
X97820Y159214D01*
X97951Y159249D01*
X98062Y159294D01*
X98153Y159349D01*
X98224Y159414D01*
X98275Y159489D01*
X98305Y159574D01*
X98315Y159669D01*
Y157669D01*
D02*
G37*
G36*
X78315D02*
X78305Y157764D01*
X78275Y157849D01*
X78224Y157924D01*
X78153Y157989D01*
X78062Y158044D01*
X77951Y158089D01*
X77820Y158124D01*
X77668Y158149D01*
X77496Y158164D01*
X77303Y158169D01*
Y159169D01*
X77496Y159174D01*
X77668Y159189D01*
X77820Y159214D01*
X77951Y159249D01*
X78062Y159294D01*
X78153Y159349D01*
X78224Y159414D01*
X78275Y159489D01*
X78305Y159574D01*
X78315Y159669D01*
Y157669D01*
D02*
G37*
G36*
X58315D02*
X58305Y157764D01*
X58275Y157849D01*
X58224Y157924D01*
X58153Y157989D01*
X58062Y158044D01*
X57951Y158089D01*
X57819Y158124D01*
X57668Y158149D01*
X57496Y158164D01*
X57303Y158169D01*
Y159169D01*
X57496Y159174D01*
X57668Y159189D01*
X57819Y159214D01*
X57951Y159249D01*
X58062Y159294D01*
X58153Y159349D01*
X58224Y159414D01*
X58275Y159489D01*
X58305Y159574D01*
X58315Y159669D01*
Y157669D01*
D02*
G37*
G36*
X95990Y157283D02*
X95895Y157181D01*
X95811Y157073D01*
X95737Y156960D01*
X95673Y156841D01*
X95619Y156717D01*
X95575Y156588D01*
X95541Y156453D01*
X95517Y156312D01*
X95503Y156166D01*
X95500Y156015D01*
X94015Y157500D01*
X94166Y157503D01*
X94312Y157517D01*
X94453Y157541D01*
X94587Y157575D01*
X94717Y157619D01*
X94841Y157673D01*
X94960Y157737D01*
X95073Y157811D01*
X95181Y157896D01*
X95283Y157990D01*
X95990Y157283D01*
D02*
G37*
G36*
X75990D02*
X75896Y157181D01*
X75811Y157073D01*
X75737Y156960D01*
X75673Y156841D01*
X75619Y156717D01*
X75575Y156588D01*
X75541Y156453D01*
X75517Y156312D01*
X75503Y156166D01*
X75500Y156015D01*
X74015Y157500D01*
X74166Y157503D01*
X74312Y157517D01*
X74453Y157541D01*
X74588Y157575D01*
X74717Y157619D01*
X74841Y157673D01*
X74960Y157737D01*
X75073Y157811D01*
X75181Y157896D01*
X75283Y157990D01*
X75990Y157283D01*
D02*
G37*
G36*
X55990D02*
X55896Y157181D01*
X55811Y157073D01*
X55737Y156960D01*
X55673Y156841D01*
X55619Y156717D01*
X55575Y156588D01*
X55541Y156453D01*
X55517Y156312D01*
X55503Y156166D01*
X55500Y156015D01*
X54015Y157500D01*
X54166Y157503D01*
X54312Y157517D01*
X54453Y157541D01*
X54588Y157575D01*
X54717Y157619D01*
X54841Y157673D01*
X54960Y157737D01*
X55073Y157811D01*
X55181Y157896D01*
X55283Y157990D01*
X55990Y157283D01*
D02*
G37*
G36*
X108645Y155915D02*
X108560Y155885D01*
X108485Y155835D01*
X108420Y155765D01*
X108365Y155675D01*
X108320Y155565D01*
X108285Y155435D01*
X108260Y155285D01*
X108245Y155115D01*
X108240Y154933D01*
X108245Y154748D01*
X108260Y154576D01*
X108285Y154425D01*
X108320Y154293D01*
X108365Y154182D01*
X108420Y154091D01*
X108485Y154020D01*
X108560Y153969D01*
X108645Y153939D01*
X108740Y153929D01*
X106740D01*
X106835Y153939D01*
X106920Y153969D01*
X106995Y154020D01*
X107060Y154091D01*
X107115Y154182D01*
X107160Y154293D01*
X107195Y154425D01*
X107220Y154576D01*
X107235Y154748D01*
X107240Y154933D01*
X107235Y155115D01*
X107220Y155285D01*
X107195Y155435D01*
X107160Y155565D01*
X107115Y155675D01*
X107060Y155765D01*
X106995Y155835D01*
X106920Y155885D01*
X106835Y155915D01*
X106740Y155925D01*
X108740D01*
X108645Y155915D01*
D02*
G37*
G36*
X101165D02*
X101080Y155885D01*
X101005Y155835D01*
X100940Y155765D01*
X100885Y155675D01*
X100840Y155565D01*
X100805Y155435D01*
X100780Y155285D01*
X100765Y155115D01*
X100760Y154933D01*
X100765Y154748D01*
X100780Y154576D01*
X100805Y154425D01*
X100840Y154293D01*
X100885Y154182D01*
X100940Y154091D01*
X101005Y154020D01*
X101080Y153969D01*
X101165Y153939D01*
X101260Y153929D01*
X99260D01*
X99355Y153939D01*
X99440Y153969D01*
X99515Y154020D01*
X99580Y154091D01*
X99635Y154182D01*
X99680Y154293D01*
X99715Y154425D01*
X99740Y154576D01*
X99755Y154748D01*
X99760Y154933D01*
X99755Y155115D01*
X99740Y155285D01*
X99715Y155435D01*
X99680Y155565D01*
X99635Y155675D01*
X99580Y155765D01*
X99515Y155835D01*
X99440Y155885D01*
X99355Y155915D01*
X99260Y155925D01*
X101260D01*
X101165Y155915D01*
D02*
G37*
G36*
X88645D02*
X88560Y155885D01*
X88485Y155835D01*
X88420Y155765D01*
X88365Y155675D01*
X88320Y155565D01*
X88285Y155435D01*
X88260Y155285D01*
X88245Y155115D01*
X88240Y154933D01*
X88245Y154748D01*
X88260Y154576D01*
X88285Y154425D01*
X88320Y154293D01*
X88365Y154182D01*
X88420Y154091D01*
X88485Y154020D01*
X88560Y153969D01*
X88645Y153939D01*
X88740Y153929D01*
X86740D01*
X86835Y153939D01*
X86920Y153969D01*
X86995Y154020D01*
X87060Y154091D01*
X87115Y154182D01*
X87160Y154293D01*
X87195Y154425D01*
X87220Y154576D01*
X87235Y154748D01*
X87240Y154933D01*
X87235Y155115D01*
X87220Y155285D01*
X87195Y155435D01*
X87160Y155565D01*
X87115Y155675D01*
X87060Y155765D01*
X86995Y155835D01*
X86920Y155885D01*
X86835Y155915D01*
X86740Y155925D01*
X88740D01*
X88645Y155915D01*
D02*
G37*
G36*
X81165D02*
X81080Y155885D01*
X81005Y155835D01*
X80940Y155765D01*
X80885Y155675D01*
X80840Y155565D01*
X80805Y155435D01*
X80780Y155285D01*
X80765Y155115D01*
X80760Y154933D01*
X80765Y154748D01*
X80780Y154576D01*
X80805Y154425D01*
X80840Y154293D01*
X80885Y154182D01*
X80940Y154091D01*
X81005Y154020D01*
X81080Y153969D01*
X81165Y153939D01*
X81260Y153929D01*
X79260D01*
X79355Y153939D01*
X79440Y153969D01*
X79515Y154020D01*
X79580Y154091D01*
X79635Y154182D01*
X79680Y154293D01*
X79715Y154425D01*
X79740Y154576D01*
X79755Y154748D01*
X79760Y154933D01*
X79755Y155115D01*
X79740Y155285D01*
X79715Y155435D01*
X79680Y155565D01*
X79635Y155675D01*
X79580Y155765D01*
X79515Y155835D01*
X79440Y155885D01*
X79355Y155915D01*
X79260Y155925D01*
X81260D01*
X81165Y155915D01*
D02*
G37*
G36*
X68645D02*
X68560Y155885D01*
X68485Y155835D01*
X68420Y155765D01*
X68365Y155675D01*
X68320Y155565D01*
X68285Y155435D01*
X68260Y155285D01*
X68245Y155115D01*
X68240Y154933D01*
X68245Y154748D01*
X68260Y154576D01*
X68285Y154425D01*
X68320Y154293D01*
X68365Y154182D01*
X68420Y154091D01*
X68485Y154020D01*
X68560Y153969D01*
X68645Y153939D01*
X68740Y153929D01*
X66740D01*
X66835Y153939D01*
X66920Y153969D01*
X66995Y154020D01*
X67060Y154091D01*
X67115Y154182D01*
X67160Y154293D01*
X67195Y154425D01*
X67220Y154576D01*
X67235Y154748D01*
X67240Y154933D01*
X67235Y155115D01*
X67220Y155285D01*
X67195Y155435D01*
X67160Y155565D01*
X67115Y155675D01*
X67060Y155765D01*
X66995Y155835D01*
X66920Y155885D01*
X66835Y155915D01*
X66740Y155925D01*
X68740D01*
X68645Y155915D01*
D02*
G37*
G36*
X61165D02*
X61080Y155885D01*
X61005Y155835D01*
X60940Y155765D01*
X60885Y155675D01*
X60840Y155565D01*
X60805Y155435D01*
X60780Y155285D01*
X60765Y155115D01*
X60760Y154933D01*
X60765Y154748D01*
X60780Y154576D01*
X60805Y154425D01*
X60840Y154293D01*
X60885Y154182D01*
X60940Y154091D01*
X61005Y154020D01*
X61080Y153969D01*
X61165Y153939D01*
X61260Y153929D01*
X59260D01*
X59355Y153939D01*
X59440Y153969D01*
X59515Y154020D01*
X59580Y154091D01*
X59635Y154182D01*
X59680Y154293D01*
X59715Y154425D01*
X59740Y154576D01*
X59755Y154748D01*
X59760Y154933D01*
X59755Y155115D01*
X59740Y155285D01*
X59715Y155435D01*
X59680Y155565D01*
X59635Y155675D01*
X59580Y155765D01*
X59515Y155835D01*
X59440Y155885D01*
X59355Y155915D01*
X59260Y155925D01*
X61260D01*
X61165Y155915D01*
D02*
G37*
G36*
X152358Y153724D02*
X152382Y153656D01*
X152422Y153596D01*
X152478Y153544D01*
X152550Y153500D01*
X152638Y153464D01*
X152742Y153436D01*
X152862Y153416D01*
X152998Y153404D01*
X153150Y153400D01*
Y152600D01*
X152998Y152596D01*
X152862Y152584D01*
X152742Y152564D01*
X152638Y152536D01*
X152550Y152500D01*
X152478Y152456D01*
X152422Y152404D01*
X152382Y152344D01*
X152358Y152276D01*
X152350Y152200D01*
Y153800D01*
X152358Y153724D01*
D02*
G37*
G36*
X139788Y152000D02*
X139778Y152095D01*
X139747Y152180D01*
X139697Y152255D01*
X139626Y152320D01*
X139535Y152375D01*
X139424Y152420D01*
X139292Y152455D01*
X139140Y152480D01*
X138968Y152495D01*
X138776Y152500D01*
Y153500D01*
X138968Y153505D01*
X139140Y153520D01*
X139292Y153545D01*
X139424Y153580D01*
X139535Y153625D01*
X139626Y153680D01*
X139697Y153745D01*
X139747Y153820D01*
X139778Y153905D01*
X139788Y154000D01*
Y152000D01*
D02*
G37*
G36*
X157929Y151950D02*
X157801Y152074D01*
X157674Y152184D01*
X157546Y152281D01*
X157419Y152366D01*
X157292Y152437D01*
X157164Y152496D01*
X157037Y152541D01*
X156909Y152574D01*
X156782Y152594D01*
X156654Y152600D01*
Y153400D01*
X156782Y153407D01*
X156909Y153426D01*
X157037Y153458D01*
X157164Y153504D01*
X157292Y153562D01*
X157419Y153634D01*
X157546Y153718D01*
X157674Y153816D01*
X157801Y153927D01*
X157929Y154050D01*
Y151950D01*
D02*
G37*
G36*
X137456Y153946D02*
X137569Y153852D01*
X137685Y153770D01*
X137804Y153698D01*
X137927Y153638D01*
X138053Y153588D01*
X138182Y153550D01*
X138315Y153522D01*
X138451Y153506D01*
X138590Y153500D01*
Y152500D01*
X138451Y152495D01*
X138315Y152478D01*
X138182Y152451D01*
X138053Y152412D01*
X137927Y152363D01*
X137804Y152302D01*
X137685Y152231D01*
X137569Y152148D01*
X137456Y152055D01*
X137347Y151950D01*
Y154050D01*
X137456Y153946D01*
D02*
G37*
G36*
X110283Y151724D02*
X110308Y151656D01*
X110348Y151596D01*
X110405Y151544D01*
X110478Y151500D01*
X110567Y151464D01*
X110673Y151436D01*
X110795Y151416D01*
X110933Y151404D01*
X111087Y151400D01*
Y150600D01*
X110933Y150596D01*
X110795Y150584D01*
X110673Y150564D01*
X110567Y150536D01*
X110478Y150500D01*
X110405Y150456D01*
X110348Y150404D01*
X110308Y150344D01*
X110283Y150276D01*
X110275Y150200D01*
Y151800D01*
X110283Y151724D01*
D02*
G37*
G36*
X106607Y148059D02*
X106529Y148116D01*
X106438Y148144D01*
X106332D01*
X106211Y148116D01*
X106077Y148059D01*
X105929Y147974D01*
X105766Y147861D01*
X105589Y147720D01*
X105193Y147352D01*
X104486Y148059D01*
X104684Y148264D01*
X104995Y148632D01*
X105108Y148795D01*
X105193Y148943D01*
X105250Y149077D01*
X105278Y149198D01*
Y149304D01*
X105250Y149396D01*
X105193Y149474D01*
X106607Y148059D01*
D02*
G37*
G36*
X90241Y149769D02*
X90238Y149654D01*
X90267Y149521D01*
X90327Y149371D01*
X90418Y149203D01*
X90541Y149017D01*
X90696Y148814D01*
X91099Y148355D01*
X91348Y148099D01*
X90681Y147352D01*
X90457Y147569D01*
X90065Y147906D01*
X89896Y148026D01*
X89745Y148114D01*
X89613Y148170D01*
X89499Y148194D01*
X89403Y148185D01*
X89326Y148144D01*
X89267Y148071D01*
X90275Y149867D01*
X90241Y149769D01*
D02*
G37*
G36*
X70225Y149342D02*
X70202Y149257D01*
X70207Y149158D01*
X70238Y149044D01*
X70297Y148916D01*
X70382Y148773D01*
X70494Y148616D01*
X70634Y148445D01*
X70994Y148059D01*
X70287Y147352D01*
X70087Y147546D01*
X69730Y147852D01*
X69573Y147965D01*
X69431Y148050D01*
X69303Y148108D01*
X69189Y148140D01*
X69090Y148144D01*
X69005Y148121D01*
X68934Y148071D01*
X70275Y149412D01*
X70225Y149342D01*
D02*
G37*
G36*
X92696Y146258D02*
X92621Y146377D01*
X92539Y146483D01*
X92449Y146577D01*
X92351Y146658D01*
X92246Y146727D01*
X92133Y146783D01*
X92012Y146826D01*
X91884Y146858D01*
X91748Y146876D01*
X91605Y146883D01*
X91887Y147883D01*
X92020Y147887D01*
X92153Y147899D01*
X92287Y147919D01*
X92421Y147948D01*
X92555Y147984D01*
X92690Y148029D01*
X92825Y148082D01*
X93096Y148211D01*
X93232Y148289D01*
X92696Y146258D01*
D02*
G37*
G36*
X158013Y142801D02*
X157903Y142674D01*
X157805Y142546D01*
X157721Y142419D01*
X157649Y142292D01*
X157591Y142164D01*
X157545Y142037D01*
X157513Y141909D01*
X157493Y141782D01*
X157487Y141654D01*
X156687D01*
X156680Y141782D01*
X156661Y141909D01*
X156628Y142037D01*
X156583Y142164D01*
X156524Y142292D01*
X156453Y142419D01*
X156368Y142546D01*
X156271Y142674D01*
X156160Y142801D01*
X156037Y142929D01*
X158137D01*
X158013Y142801D01*
D02*
G37*
G36*
X153985Y138500D02*
X153808Y138497D01*
X153639Y138485D01*
X153480Y138464D01*
X153330Y138434D01*
X153190Y138394D01*
X153058Y138346D01*
X152936Y138287D01*
X152823Y138220D01*
X152719Y138144D01*
X152624Y138058D01*
X152058Y138624D01*
X152144Y138719D01*
X152220Y138823D01*
X152287Y138936D01*
X152346Y139058D01*
X152394Y139190D01*
X152434Y139330D01*
X152464Y139480D01*
X152485Y139639D01*
X152497Y139808D01*
X152500Y139985D01*
X153985Y138500D01*
D02*
G37*
G36*
X175929Y134163D02*
X175801Y134286D01*
X175674Y134397D01*
X175547Y134494D01*
X175419Y134579D01*
X175292Y134650D01*
X175164Y134709D01*
X175037Y134754D01*
X174909Y134787D01*
X174782Y134806D01*
X174654Y134813D01*
Y135613D01*
X174782Y135619D01*
X174909Y135639D01*
X175037Y135671D01*
X175164Y135717D01*
X175292Y135775D01*
X175419Y135847D01*
X175547Y135931D01*
X175674Y136029D01*
X175801Y136139D01*
X175929Y136263D01*
Y134163D01*
D02*
G37*
G36*
X127004Y132000D02*
X126994Y132095D01*
X126964Y132180D01*
X126914Y132255D01*
X126844Y132320D01*
X126754Y132375D01*
X126644Y132420D01*
X126514Y132455D01*
X126364Y132480D01*
X126194Y132495D01*
X126004Y132500D01*
Y133500D01*
X126194Y133505D01*
X126364Y133520D01*
X126514Y133545D01*
X126644Y133580D01*
X126754Y133625D01*
X126844Y133680D01*
X126914Y133745D01*
X126964Y133820D01*
X126994Y133905D01*
X127004Y134000D01*
Y132000D01*
D02*
G37*
G36*
X135984Y130260D02*
X135916Y130236D01*
X135856Y130195D01*
X135804Y130138D01*
X135760Y130065D01*
X135724Y129976D01*
X135696Y129870D01*
X135676Y129748D01*
X135664Y129610D01*
X135660Y129456D01*
X134860D01*
X134856Y129610D01*
X134844Y129748D01*
X134824Y129870D01*
X134796Y129976D01*
X134760Y130065D01*
X134716Y130138D01*
X134664Y130195D01*
X134604Y130236D01*
X134536Y130260D01*
X134460Y130268D01*
X136060D01*
X135984Y130260D01*
D02*
G37*
G36*
X129882D02*
X129814Y130236D01*
X129753Y130195D01*
X129701Y130138D01*
X129657Y130065D01*
X129622Y129976D01*
X129594Y129870D01*
X129574Y129748D01*
X129561Y129610D01*
X129558Y129456D01*
X128758D01*
X128753Y129610D01*
X128742Y129748D01*
X128721Y129870D01*
X128693Y129976D01*
X128657Y130065D01*
X128613Y130138D01*
X128561Y130195D01*
X128501Y130236D01*
X128434Y130260D01*
X128358Y130268D01*
X129957D01*
X129882Y130260D01*
D02*
G37*
G36*
X143503Y127650D02*
X143515Y127482D01*
X143536Y127323D01*
X143566Y127173D01*
X143606Y127032D01*
X143655Y126901D01*
X143712Y126778D01*
X143780Y126665D01*
X143856Y126561D01*
X143941Y126467D01*
X143376Y125901D01*
X143281Y125987D01*
X143177Y126063D01*
X143064Y126130D01*
X142942Y126188D01*
X142810Y126237D01*
X142670Y126276D01*
X142520Y126307D01*
X142361Y126328D01*
X142192Y126340D01*
X142015Y126343D01*
X143500Y127828D01*
X143503Y127650D01*
D02*
G37*
G36*
X261456Y126017D02*
X261371Y125987D01*
X261296Y125936D01*
X261231Y125865D01*
X261176Y125774D01*
X261131Y125663D01*
X261096Y125531D01*
X261071Y125379D01*
X261060Y125255D01*
X261071Y125129D01*
X261129Y124876D01*
X261227Y124607D01*
X261363Y124323D01*
X261539Y124024D01*
X261753Y123710D01*
X262007Y123381D01*
X262631Y122677D01*
X263001Y122303D01*
X258101D01*
X258472Y122677D01*
X259096Y123381D01*
X259349Y123710D01*
X259564Y124024D01*
X259739Y124323D01*
X259876Y124607D01*
X259973Y124876D01*
X260032Y125129D01*
X260042Y125255D01*
X260031Y125379D01*
X260006Y125531D01*
X259971Y125663D01*
X259926Y125774D01*
X259871Y125865D01*
X259806Y125936D01*
X259731Y125987D01*
X259646Y126017D01*
X259551Y126027D01*
X261551D01*
X261456Y126017D01*
D02*
G37*
G36*
X186100Y123457D02*
X186130Y123377D01*
X186180Y123306D01*
X186250Y123245D01*
X186340Y123193D01*
X186450Y123150D01*
X186580Y123117D01*
X186730Y123094D01*
X186900Y123080D01*
X187090Y123075D01*
Y122075D01*
X186900Y122070D01*
X186730Y122056D01*
X186580Y122032D01*
X186450Y121999D01*
X186340Y121957D01*
X186250Y121905D01*
X186180Y121843D01*
X186130Y121773D01*
X186100Y121692D01*
X186090Y121602D01*
Y123547D01*
X186100Y123457D01*
D02*
G37*
G36*
X173910Y121602D02*
X173902Y121632D01*
X173878Y121658D01*
X173838Y121681D01*
X173782Y121701D01*
X173710Y121718D01*
X173622Y121732D01*
X173518Y121743D01*
X173262Y121755D01*
X173110Y121757D01*
Y122557D01*
X173263Y122561D01*
X173401Y122573D01*
X173522Y122593D01*
X173628Y122621D01*
X173717Y122657D01*
X173790Y122701D01*
X173847Y122753D01*
X173888Y122813D01*
X173913Y122881D01*
X173922Y122957D01*
X173910Y121602D01*
D02*
G37*
G36*
X134719Y122856D02*
X134823Y122780D01*
X134936Y122713D01*
X135058Y122654D01*
X135190Y122606D01*
X135330Y122566D01*
X135480Y122536D01*
X135639Y122515D01*
X135808Y122503D01*
X135985Y122500D01*
X134500Y121015D01*
X134497Y121192D01*
X134485Y121361D01*
X134464Y121520D01*
X134434Y121670D01*
X134394Y121810D01*
X134345Y121942D01*
X134288Y122064D01*
X134220Y122177D01*
X134144Y122281D01*
X134058Y122376D01*
X134624Y122942D01*
X134719Y122856D01*
D02*
G37*
G36*
X124453Y121000D02*
X124443Y121095D01*
X124413Y121180D01*
X124363Y121255D01*
X124293Y121320D01*
X124203Y121375D01*
X124093Y121420D01*
X123963Y121455D01*
X123813Y121480D01*
X123643Y121495D01*
X123453Y121500D01*
Y122500D01*
X123643Y122505D01*
X123813Y122520D01*
X123963Y122545D01*
X124093Y122580D01*
X124203Y122625D01*
X124293Y122680D01*
X124363Y122745D01*
X124413Y122820D01*
X124443Y122905D01*
X124453Y123000D01*
Y121000D01*
D02*
G37*
G36*
X122181Y122945D02*
X122293Y122852D01*
X122409Y122769D01*
X122529Y122698D01*
X122652Y122637D01*
X122777Y122588D01*
X122907Y122549D01*
X123039Y122522D01*
X123175Y122505D01*
X123314Y122500D01*
Y121500D01*
X123175Y121494D01*
X123039Y121478D01*
X122907Y121450D01*
X122777Y121412D01*
X122652Y121362D01*
X122529Y121302D01*
X122409Y121230D01*
X122293Y121148D01*
X122181Y121054D01*
X122071Y120950D01*
Y123050D01*
X122181Y122945D01*
D02*
G37*
G36*
X156936Y121410D02*
X156910Y121261D01*
X156898Y121118D01*
X156901Y120981D01*
X156919Y120851D01*
X156950Y120726D01*
X156997Y120607D01*
X157058Y120495D01*
X157133Y120388D01*
X157223Y120288D01*
X156485Y119895D01*
X156401Y119972D01*
X156306Y120047D01*
X156199Y120119D01*
X156081Y120189D01*
X156046Y120207D01*
X156023Y120158D01*
X155977Y120031D01*
X155944Y119904D01*
X155925Y119776D01*
X155918Y119648D01*
X155118Y119661D01*
X155112Y119788D01*
X155092Y119915D01*
X155060Y120043D01*
X155015Y120171D01*
X155008Y120188D01*
X154883Y120119D01*
X154777Y120047D01*
X154681Y119972D01*
X154598Y119895D01*
X153859Y120288D01*
X153949Y120388D01*
X154025Y120495D01*
X154086Y120607D01*
X154132Y120726D01*
X154164Y120851D01*
X154181Y120981D01*
X154184Y121118D01*
X154173Y121261D01*
X154146Y121410D01*
X154106Y121565D01*
X155259Y120933D01*
X155807Y120925D01*
X156977Y121565D01*
X156936Y121410D01*
D02*
G37*
G36*
X248052Y117353D02*
X247677Y117724D01*
X246973Y118348D01*
X246644Y118601D01*
X246330Y118816D01*
X246031Y118991D01*
X245747Y119128D01*
X245479Y119225D01*
X245225Y119284D01*
X245099Y119294D01*
X244975Y119283D01*
X244823Y119258D01*
X244691Y119223D01*
X244580Y119178D01*
X244489Y119123D01*
X244418Y119058D01*
X244368Y118983D01*
X244337Y118898D01*
X244327Y118803D01*
Y120803D01*
X244337Y120708D01*
X244368Y120623D01*
X244418Y120548D01*
X244489Y120483D01*
X244580Y120428D01*
X244691Y120383D01*
X244823Y120348D01*
X244975Y120323D01*
X245099Y120312D01*
X245225Y120323D01*
X245479Y120381D01*
X245747Y120479D01*
X246031Y120615D01*
X246330Y120791D01*
X246644Y121005D01*
X246973Y121259D01*
X247677Y121883D01*
X248052Y122253D01*
Y117353D01*
D02*
G37*
G36*
X120985Y120500D02*
X120834Y120497D01*
X120688Y120483D01*
X120547Y120459D01*
X120413Y120425D01*
X120283Y120381D01*
X120159Y120327D01*
X120040Y120263D01*
X119927Y120189D01*
X119819Y120105D01*
X119717Y120010D01*
X119010Y120717D01*
X119105Y120819D01*
X119189Y120927D01*
X119263Y121040D01*
X119327Y121159D01*
X119381Y121283D01*
X119425Y121413D01*
X119459Y121547D01*
X119483Y121688D01*
X119497Y121834D01*
X119500Y121985D01*
X120985Y120500D01*
D02*
G37*
G36*
X129491Y121248D02*
X129470Y121175D01*
X129471Y121091D01*
X129495Y120995D01*
X129541Y120887D01*
X129610Y120769D01*
X129702Y120638D01*
X129816Y120496D01*
X130113Y120177D01*
X129547Y119612D01*
X129382Y119771D01*
X129086Y120023D01*
X128956Y120114D01*
X128837Y120183D01*
X128730Y120230D01*
X128634Y120254D01*
X128550Y120255D01*
X128477Y120233D01*
X128416Y120189D01*
X129535Y121309D01*
X129491Y121248D01*
D02*
G37*
G36*
X137510Y120880D02*
X137557Y120549D01*
X137593Y120397D01*
X137637Y120256D01*
X137689Y120124D01*
X137749Y120002D01*
X137817Y119889D01*
X137894Y119786D01*
X137978Y119693D01*
X137442Y119098D01*
X137346Y119185D01*
X137241Y119261D01*
X137128Y119327D01*
X137005Y119383D01*
X136875Y119428D01*
X136735Y119464D01*
X136587Y119489D01*
X136430Y119504D01*
X136264Y119508D01*
X136090Y119503D01*
X137499Y121060D01*
X137510Y120880D01*
D02*
G37*
G36*
X191819Y120896D02*
X191927Y120811D01*
X192040Y120737D01*
X192159Y120673D01*
X192283Y120619D01*
X192412Y120575D01*
X192547Y120541D01*
X192688Y120517D01*
X192834Y120503D01*
X192985Y120500D01*
X191500Y119015D01*
X191497Y119166D01*
X191483Y119312D01*
X191459Y119453D01*
X191425Y119588D01*
X191381Y119717D01*
X191327Y119841D01*
X191263Y119960D01*
X191189Y120073D01*
X191104Y120181D01*
X191010Y120283D01*
X191717Y120990D01*
X191819Y120896D01*
D02*
G37*
G36*
X175041Y118465D02*
X174980Y118509D01*
X174907Y118530D01*
X174823Y118529D01*
X174727Y118505D01*
X174620Y118459D01*
X174501Y118390D01*
X174370Y118298D01*
X174228Y118184D01*
X173910Y117887D01*
X173344Y118453D01*
X173503Y118618D01*
X173755Y118914D01*
X173847Y119044D01*
X173916Y119163D01*
X173962Y119270D01*
X173986Y119366D01*
X173987Y119450D01*
X173966Y119523D01*
X173922Y119584D01*
X175041Y118465D01*
D02*
G37*
G36*
X184581Y118457D02*
X184513Y118432D01*
X184453Y118392D01*
X184402Y118335D01*
X184358Y118262D01*
X184321Y118173D01*
X184293Y118067D01*
X184274Y117945D01*
X184262Y117807D01*
X184257Y117653D01*
X183458D01*
X183454Y117807D01*
X183441Y117945D01*
X183422Y118067D01*
X183394Y118173D01*
X183358Y118262D01*
X183314Y118335D01*
X183262Y118392D01*
X183202Y118432D01*
X183133Y118457D01*
X183057Y118465D01*
X184658D01*
X184581Y118457D01*
D02*
G37*
G36*
X193946Y117819D02*
X193852Y117707D01*
X193770Y117590D01*
X193698Y117471D01*
X193638Y117349D01*
X193588Y117222D01*
X193550Y117093D01*
X193522Y116961D01*
X193506Y116825D01*
X193500Y116686D01*
X192500D01*
X192494Y116825D01*
X192478Y116961D01*
X192450Y117093D01*
X192412Y117222D01*
X192362Y117349D01*
X192302Y117471D01*
X192230Y117590D01*
X192148Y117707D01*
X192054Y117819D01*
X191950Y117929D01*
X194050D01*
X193946Y117819D01*
D02*
G37*
G36*
X142629Y115045D02*
X142996Y114728D01*
X143070Y114677D01*
X143137Y114637D01*
X143197Y114609D01*
X143249Y114592D01*
X143295Y114586D01*
X142532Y113443D01*
X142567Y113515D01*
X142581Y113596D01*
X142576Y113687D01*
X142550Y113786D01*
X142503Y113895D01*
X142437Y114013D01*
X142350Y114139D01*
X142242Y114275D01*
X142114Y114420D01*
X141966Y114574D01*
X142519Y115152D01*
X142629Y115045D01*
D02*
G37*
G36*
X117930Y113389D02*
X117944Y113219D01*
X117968Y113069D01*
X118001Y112939D01*
X118043Y112829D01*
X118095Y112739D01*
X118157Y112669D01*
X118227Y112619D01*
X118308Y112589D01*
X118397Y112578D01*
X116453D01*
X116543Y112589D01*
X116623Y112619D01*
X116694Y112669D01*
X116755Y112739D01*
X116807Y112829D01*
X116850Y112939D01*
X116883Y113069D01*
X116906Y113219D01*
X116920Y113389D01*
X116925Y113578D01*
X117925D01*
X117930Y113389D01*
D02*
G37*
G36*
X191797Y112547D02*
X191600Y112342D01*
X191288Y111974D01*
X191175Y111812D01*
X191090Y111663D01*
X191034Y111529D01*
X191006Y111409D01*
Y111302D01*
X191034Y111211D01*
X191090Y111133D01*
X189676Y112547D01*
X189754Y112490D01*
X189846Y112462D01*
X189952D01*
X190072Y112490D01*
X190207Y112547D01*
X190355Y112632D01*
X190518Y112745D01*
X190694Y112887D01*
X191090Y113254D01*
X191797Y112547D01*
D02*
G37*
G36*
X129491Y112980D02*
X129470Y112907D01*
X129471Y112823D01*
X129495Y112727D01*
X129541Y112620D01*
X129610Y112501D01*
X129702Y112370D01*
X129816Y112228D01*
X130113Y111910D01*
X129547Y111344D01*
X129382Y111504D01*
X129086Y111755D01*
X128956Y111847D01*
X128837Y111916D01*
X128730Y111962D01*
X128634Y111986D01*
X128550Y111987D01*
X128477Y111966D01*
X128416Y111922D01*
X129535Y113041D01*
X129491Y112980D01*
D02*
G37*
G36*
X126398Y111910D02*
X126346Y111902D01*
X126300Y111878D01*
X126260Y111838D01*
X126225Y111782D01*
X126195Y111710D01*
X126171Y111622D01*
X126152Y111518D01*
X126138Y111398D01*
X126130Y111262D01*
X126128Y111110D01*
X125328D01*
X125324Y111263D01*
X125312Y111401D01*
X125292Y111522D01*
X125264Y111628D01*
X125228Y111717D01*
X125184Y111790D01*
X125132Y111847D01*
X125072Y111888D01*
X125004Y111913D01*
X124928Y111922D01*
X126398Y111910D01*
D02*
G37*
G36*
X178922Y110775D02*
X178913Y110851D01*
X178889Y110919D01*
X178849Y110979D01*
X178792Y111031D01*
X178719Y111075D01*
X178629Y111111D01*
X178524Y111139D01*
X178402Y111159D01*
X178264Y111171D01*
X178110Y111175D01*
Y111975D01*
X178264Y111979D01*
X178402Y111991D01*
X178524Y112011D01*
X178629Y112039D01*
X178719Y112075D01*
X178792Y112119D01*
X178849Y112171D01*
X178889Y112231D01*
X178913Y112299D01*
X178922Y112375D01*
Y110775D01*
D02*
G37*
G36*
X248052Y107353D02*
X247677Y107724D01*
X246973Y108348D01*
X246644Y108601D01*
X246330Y108816D01*
X246031Y108991D01*
X245747Y109128D01*
X245479Y109225D01*
X245225Y109284D01*
X245099Y109294D01*
X244975Y109283D01*
X244823Y109258D01*
X244691Y109223D01*
X244580Y109178D01*
X244489Y109123D01*
X244418Y109058D01*
X244368Y108983D01*
X244337Y108898D01*
X244327Y108803D01*
Y110803D01*
X244337Y110708D01*
X244368Y110623D01*
X244418Y110548D01*
X244489Y110483D01*
X244580Y110428D01*
X244691Y110383D01*
X244823Y110348D01*
X244975Y110323D01*
X245099Y110312D01*
X245225Y110323D01*
X245479Y110381D01*
X245747Y110479D01*
X246031Y110615D01*
X246330Y110791D01*
X246644Y111005D01*
X246973Y111259D01*
X247677Y111883D01*
X248052Y112253D01*
Y107353D01*
D02*
G37*
G36*
X121543Y111346D02*
X121567Y111278D01*
X121608Y111218D01*
X121665Y111166D01*
X121738Y111122D01*
X121827Y111086D01*
X121933Y111058D01*
X122055Y111038D01*
X122193Y111026D01*
X122347Y111022D01*
Y110222D01*
X122193Y110218D01*
X122055Y110206D01*
X121933Y110186D01*
X121827Y110158D01*
X121738Y110122D01*
X121665Y110078D01*
X121608Y110026D01*
X121567Y109966D01*
X121543Y109898D01*
X121535Y109822D01*
Y111422D01*
X121543Y111346D01*
D02*
G37*
G36*
X263425Y111883D02*
X264129Y111259D01*
X264458Y111005D01*
X264773Y110791D01*
X265071Y110615D01*
X265355Y110479D01*
X265624Y110381D01*
X265692Y110365D01*
X265760Y110383D01*
X265871Y110428D01*
X265962Y110483D01*
X266033Y110548D01*
X266084Y110623D01*
X266114Y110708D01*
X266124Y110803D01*
Y108803D01*
X266114Y108898D01*
X266084Y108983D01*
X266033Y109058D01*
X265962Y109123D01*
X265871Y109178D01*
X265760Y109223D01*
X265692Y109241D01*
X265624Y109225D01*
X265355Y109128D01*
X265071Y108991D01*
X264773Y108816D01*
X264458Y108601D01*
X264129Y108348D01*
X263425Y107724D01*
X263051Y107353D01*
Y112253D01*
X263425Y111883D01*
D02*
G37*
G36*
X178922Y107625D02*
X178913Y107701D01*
X178889Y107769D01*
X178849Y107829D01*
X178792Y107881D01*
X178719Y107925D01*
X178629Y107961D01*
X178524Y107989D01*
X178402Y108009D01*
X178264Y108021D01*
X178110Y108025D01*
Y108825D01*
X178264Y108829D01*
X178402Y108841D01*
X178524Y108861D01*
X178629Y108889D01*
X178719Y108925D01*
X178792Y108969D01*
X178849Y109021D01*
X178889Y109081D01*
X178913Y109149D01*
X178922Y109225D01*
Y107625D01*
D02*
G37*
G36*
X188309Y107465D02*
X188248Y107509D01*
X188175Y107530D01*
X188091Y107529D01*
X187995Y107505D01*
X187888Y107459D01*
X187769Y107390D01*
X187638Y107298D01*
X187496Y107184D01*
X187177Y106887D01*
X186612Y107453D01*
X186771Y107618D01*
X187023Y107914D01*
X187114Y108044D01*
X187183Y108163D01*
X187230Y108270D01*
X187254Y108366D01*
X187255Y108450D01*
X187233Y108523D01*
X187189Y108584D01*
X188309Y107465D01*
D02*
G37*
G36*
X121543Y103078D02*
X121567Y103010D01*
X121608Y102950D01*
X121665Y102898D01*
X121738Y102854D01*
X121827Y102818D01*
X121933Y102790D01*
X122055Y102770D01*
X122193Y102758D01*
X122347Y102754D01*
Y101954D01*
X122193Y101950D01*
X122055Y101938D01*
X121933Y101918D01*
X121827Y101890D01*
X121738Y101854D01*
X121665Y101810D01*
X121608Y101758D01*
X121567Y101698D01*
X121543Y101630D01*
X121535Y101554D01*
Y103154D01*
X121543Y103078D01*
D02*
G37*
G36*
X248052Y97353D02*
X247677Y97724D01*
X246973Y98348D01*
X246644Y98601D01*
X246330Y98816D01*
X246031Y98991D01*
X245747Y99128D01*
X245479Y99225D01*
X245225Y99284D01*
X245099Y99294D01*
X244975Y99283D01*
X244823Y99258D01*
X244691Y99223D01*
X244580Y99178D01*
X244489Y99123D01*
X244418Y99058D01*
X244368Y98983D01*
X244337Y98898D01*
X244327Y98803D01*
Y100803D01*
X244337Y100708D01*
X244368Y100623D01*
X244418Y100548D01*
X244489Y100483D01*
X244580Y100428D01*
X244691Y100383D01*
X244823Y100348D01*
X244975Y100323D01*
X245099Y100312D01*
X245225Y100323D01*
X245479Y100381D01*
X245747Y100479D01*
X246031Y100615D01*
X246330Y100791D01*
X246644Y101005D01*
X246973Y101259D01*
X247677Y101883D01*
X248052Y102253D01*
Y97353D01*
D02*
G37*
G36*
X118397Y100398D02*
X118400Y100390D01*
X118402Y100366D01*
X118406Y100198D01*
X118409Y99598D01*
X117609D01*
X117605Y99751D01*
X117594Y99889D01*
X117573Y100010D01*
X117545Y100116D01*
X117509Y100205D01*
X117465Y100278D01*
X117413Y100335D01*
X117353Y100376D01*
X117285Y100401D01*
X117209Y100410D01*
X118397Y100398D01*
D02*
G37*
G36*
X39281Y100905D02*
X39312Y100820D01*
X39362Y100745D01*
X39432Y100680D01*
X39522Y100625D01*
X39632Y100580D01*
X39761Y100545D01*
X39911Y100520D01*
X40082Y100505D01*
X40271Y100500D01*
Y99500D01*
X40082Y99495D01*
X39911Y99480D01*
X39761Y99455D01*
X39632Y99420D01*
X39522Y99375D01*
X39432Y99320D01*
X39362Y99255D01*
X39312Y99180D01*
X39281Y99095D01*
X39272Y99000D01*
Y101000D01*
X39281Y100905D01*
D02*
G37*
G36*
X187411Y99287D02*
X187423Y99149D01*
X187443Y99027D01*
X187471Y98922D01*
X187507Y98832D01*
X187551Y98760D01*
X187603Y98703D01*
X187663Y98662D01*
X187731Y98638D01*
X187807Y98629D01*
X186207D01*
X186283Y98638D01*
X186351Y98662D01*
X186411Y98703D01*
X186463Y98760D01*
X186507Y98832D01*
X186543Y98922D01*
X186571Y99027D01*
X186591Y99149D01*
X186603Y99287D01*
X186607Y99441D01*
X187407D01*
X187411Y99287D01*
D02*
G37*
G36*
X32905Y98242D02*
X32820Y98212D01*
X32745Y98161D01*
X32680Y98090D01*
X32625Y97999D01*
X32580Y97888D01*
X32545Y97756D01*
X32520Y97605D01*
X32505Y97433D01*
X32500Y97240D01*
X31500D01*
X31495Y97433D01*
X31480Y97605D01*
X31455Y97756D01*
X31420Y97888D01*
X31375Y97999D01*
X31320Y98090D01*
X31255Y98161D01*
X31180Y98212D01*
X31095Y98242D01*
X31000Y98252D01*
X33000D01*
X32905Y98242D01*
D02*
G37*
G36*
X18206Y98765D02*
X18225Y98734D01*
X18257Y98692D01*
X18358Y98574D01*
X18713Y98202D01*
X18834Y98080D01*
X17420Y96666D01*
X16715Y97300D01*
X18200Y98785D01*
X18206Y98765D01*
D02*
G37*
G36*
X182897Y95885D02*
X182889Y95961D01*
X182865Y96029D01*
X182824Y96089D01*
X182767Y96141D01*
X182694Y96185D01*
X182605Y96221D01*
X182499Y96249D01*
X182378Y96269D01*
X182239Y96281D01*
X182085Y96285D01*
Y97085D01*
X182239Y97089D01*
X182378Y97101D01*
X182499Y97121D01*
X182605Y97149D01*
X182694Y97185D01*
X182767Y97229D01*
X182824Y97281D01*
X182865Y97341D01*
X182889Y97409D01*
X182897Y97485D01*
Y95885D01*
D02*
G37*
G36*
X262631Y96929D02*
X262007Y96225D01*
X261753Y95896D01*
X261539Y95582D01*
X261363Y95283D01*
X261227Y94999D01*
X261129Y94731D01*
X261071Y94477D01*
X261060Y94351D01*
X261071Y94227D01*
X261096Y94075D01*
X261131Y93943D01*
X261176Y93832D01*
X261231Y93741D01*
X261296Y93670D01*
X261371Y93620D01*
X261456Y93589D01*
X261551Y93579D01*
X259551D01*
X259646Y93589D01*
X259731Y93620D01*
X259806Y93670D01*
X259871Y93741D01*
X259926Y93832D01*
X259971Y93943D01*
X260006Y94075D01*
X260031Y94227D01*
X260042Y94351D01*
X260032Y94477D01*
X259973Y94731D01*
X259876Y94999D01*
X259739Y95283D01*
X259564Y95582D01*
X259349Y95896D01*
X259096Y96225D01*
X258472Y96929D01*
X258101Y97304D01*
X263001D01*
X262631Y96929D01*
D02*
G37*
G36*
X32505Y92544D02*
X32520Y92372D01*
X32545Y92220D01*
X32580Y92088D01*
X32625Y91977D01*
X32680Y91886D01*
X32745Y91815D01*
X32820Y91764D01*
X32905Y91734D01*
X33000Y91724D01*
X31000D01*
X31095Y91734D01*
X31180Y91764D01*
X31255Y91815D01*
X31320Y91886D01*
X31375Y91977D01*
X31420Y92088D01*
X31455Y92220D01*
X31480Y92372D01*
X31495Y92544D01*
X31500Y92736D01*
X32500D01*
X32505Y92544D01*
D02*
G37*
G36*
X23164Y93035D02*
X23212Y92517D01*
X23255Y92307D01*
X23309Y92129D01*
X23376Y91983D01*
X23455Y91870D01*
X23546Y91789D01*
X23649Y91740D01*
X23764Y91724D01*
X20551D01*
X20666Y91740D01*
X20769Y91789D01*
X20860Y91870D01*
X20939Y91983D01*
X21006Y92129D01*
X21060Y92307D01*
X21103Y92517D01*
X21133Y92760D01*
X21151Y93035D01*
X21158Y93343D01*
X23157D01*
X23164Y93035D01*
D02*
G37*
G36*
X124686Y91610D02*
X124698Y91472D01*
X124718Y91350D01*
X124746Y91245D01*
X124782Y91155D01*
X124826Y91082D01*
X124878Y91026D01*
X124938Y90985D01*
X125006Y90961D01*
X125082Y90952D01*
X123482D01*
X123558Y90961D01*
X123626Y90985D01*
X123686Y91026D01*
X123738Y91082D01*
X123782Y91155D01*
X123818Y91245D01*
X123846Y91350D01*
X123866Y91472D01*
X123878Y91610D01*
X123882Y91764D01*
X124682D01*
X124686Y91610D01*
D02*
G37*
G36*
X117955Y90964D02*
X117796Y90799D01*
X117544Y90504D01*
X117453Y90373D01*
X117384Y90254D01*
X117337Y90147D01*
X117313Y90051D01*
X117312Y89967D01*
X117333Y89894D01*
X117378Y89833D01*
X116258Y90952D01*
X116319Y90908D01*
X116392Y90887D01*
X116476Y90888D01*
X116572Y90912D01*
X116680Y90958D01*
X116798Y91027D01*
X116929Y91119D01*
X117071Y91233D01*
X117390Y91530D01*
X117955Y90964D01*
D02*
G37*
G36*
X178395Y89737D02*
X178407Y89599D01*
X178427Y89478D01*
X178454Y89373D01*
X178491Y89283D01*
X178534Y89210D01*
X178587Y89153D01*
X178647Y89112D01*
X178715Y89087D01*
X178791Y89078D01*
X177603Y89090D01*
X177600Y89098D01*
X177598Y89122D01*
X177594Y89290D01*
X177591Y89890D01*
X178391D01*
X178395Y89737D01*
D02*
G37*
G36*
X157433Y90485D02*
X157419Y90404D01*
X157424Y90313D01*
X157450Y90214D01*
X157497Y90105D01*
X157563Y89987D01*
X157650Y89861D01*
X157758Y89725D01*
X157886Y89580D01*
X158034Y89426D01*
X157481Y88848D01*
X157371Y88955D01*
X157004Y89272D01*
X156930Y89323D01*
X156863Y89363D01*
X156803Y89391D01*
X156751Y89408D01*
X156705Y89414D01*
X157468Y90557D01*
X157433Y90485D01*
D02*
G37*
G36*
X182897Y88200D02*
X182889Y88276D01*
X182865Y88344D01*
X182824Y88404D01*
X182767Y88456D01*
X182694Y88500D01*
X182605Y88536D01*
X182499Y88564D01*
X182378Y88584D01*
X182239Y88596D01*
X182085Y88600D01*
Y89400D01*
X182239Y89404D01*
X182378Y89416D01*
X182499Y89436D01*
X182605Y89464D01*
X182694Y89500D01*
X182767Y89544D01*
X182824Y89596D01*
X182865Y89656D01*
X182889Y89724D01*
X182897Y89800D01*
Y88200D01*
D02*
G37*
G36*
X174465Y86334D02*
X174457Y86410D01*
X174433Y86478D01*
X174392Y86538D01*
X174335Y86590D01*
X174262Y86634D01*
X174173Y86670D01*
X174067Y86698D01*
X173945Y86718D01*
X173807Y86730D01*
X173653Y86734D01*
Y87534D01*
X173807Y87538D01*
X173945Y87550D01*
X174067Y87570D01*
X174173Y87598D01*
X174262Y87634D01*
X174335Y87678D01*
X174392Y87730D01*
X174433Y87790D01*
X174457Y87858D01*
X174465Y87934D01*
Y86334D01*
D02*
G37*
G36*
X125653Y87727D02*
X125678Y87659D01*
X125718Y87599D01*
X125775Y87547D01*
X125848Y87503D01*
X125938Y87467D01*
X126043Y87439D01*
X126165Y87419D01*
X126303Y87407D01*
X126457Y87403D01*
Y86603D01*
X126303Y86599D01*
X126165Y86587D01*
X126043Y86567D01*
X125938Y86539D01*
X125848Y86503D01*
X125775Y86459D01*
X125718Y86407D01*
X125678Y86347D01*
X125653Y86279D01*
X125645Y86203D01*
Y87803D01*
X125653Y87727D01*
D02*
G37*
G36*
X114891Y85870D02*
X114813Y85927D01*
X114721Y85955D01*
X114615D01*
X114495Y85927D01*
X114360Y85870D01*
X114212Y85785D01*
X114049Y85672D01*
X113873Y85531D01*
X113477Y85163D01*
X112769Y85870D01*
X112968Y86075D01*
X113279Y86443D01*
X113392Y86606D01*
X113477Y86754D01*
X113533Y86888D01*
X113561Y87009D01*
Y87115D01*
X113533Y87207D01*
X113477Y87284D01*
X114891Y85870D01*
D02*
G37*
G36*
X44191Y87732D02*
X44221Y87647D01*
X44272Y87572D01*
X44343Y87507D01*
X44434Y87452D01*
X44545Y87407D01*
X44677Y87372D01*
X44828Y87347D01*
X45000Y87332D01*
X45193Y87327D01*
Y86327D01*
X45000Y86322D01*
X44828Y86307D01*
X44677Y86282D01*
X44545Y86247D01*
X44434Y86202D01*
X44343Y86147D01*
X44272Y86082D01*
X44221Y86007D01*
X44191Y85922D01*
X44181Y85827D01*
Y87827D01*
X44191Y87732D01*
D02*
G37*
G36*
X187890Y86451D02*
X187809Y86421D01*
X187739Y86371D01*
X187677Y86301D01*
X187625Y86211D01*
X187583Y86101D01*
X187550Y85971D01*
X187526Y85821D01*
X187512Y85651D01*
X187507Y85461D01*
X186507D01*
X186502Y85651D01*
X186488Y85821D01*
X186465Y85971D01*
X186432Y86101D01*
X186389Y86211D01*
X186337Y86301D01*
X186276Y86371D01*
X186205Y86421D01*
X186125Y86451D01*
X186035Y86461D01*
X187979D01*
X187890Y86451D01*
D02*
G37*
G36*
X111176Y84941D02*
X111209Y84929D01*
X111257Y84918D01*
X111319Y84909D01*
X111485Y84894D01*
X111842Y84883D01*
X111989Y84883D01*
Y83883D01*
X111896Y83881D01*
X111739Y83870D01*
X111674Y83860D01*
X111618Y83847D01*
X111571Y83831D01*
X111534Y83813D01*
X111506Y83791D01*
X111487Y83767D01*
X111477Y83740D01*
X111157Y84955D01*
X111176Y84941D01*
D02*
G37*
G36*
X110945Y82819D02*
X110852Y82707D01*
X110769Y82591D01*
X110698Y82471D01*
X110637Y82349D01*
X110588Y82222D01*
X110549Y82093D01*
X110522Y81961D01*
X110505Y81825D01*
X110500Y81686D01*
X109500D01*
X109494Y81825D01*
X109478Y81961D01*
X109450Y82093D01*
X109412Y82222D01*
X109362Y82349D01*
X109302Y82471D01*
X109230Y82591D01*
X109148Y82707D01*
X109055Y82819D01*
X108950Y82929D01*
X111050D01*
X110945Y82819D01*
D02*
G37*
G36*
X188001Y82970D02*
X188107Y82885D01*
X188218Y82808D01*
X188336Y82739D01*
X188460Y82678D01*
X188589Y82624D01*
X188725Y82579D01*
X188866Y82542D01*
X189014Y82512D01*
X189167Y82491D01*
X187513Y81196D01*
X187527Y81343D01*
X187528Y81484D01*
X187517Y81621D01*
X187494Y81753D01*
X187459Y81880D01*
X187412Y82003D01*
X187353Y82121D01*
X187281Y82235D01*
X187198Y82344D01*
X187102Y82448D01*
X187901Y83063D01*
X188001Y82970D01*
D02*
G37*
G36*
X32905Y81907D02*
X32820Y81877D01*
X32745Y81827D01*
X32680Y81757D01*
X32625Y81668D01*
X32580Y81558D01*
X32545Y81428D01*
X32520Y81278D01*
X32505Y81107D01*
X32500Y80918D01*
X31500D01*
X31495Y81107D01*
X31480Y81278D01*
X31455Y81428D01*
X31420Y81558D01*
X31375Y81668D01*
X31320Y81757D01*
X31255Y81827D01*
X31180Y81877D01*
X31095Y81907D01*
X31000Y81918D01*
X33000D01*
X32905Y81907D01*
D02*
G37*
G36*
X174618Y81229D02*
X174914Y80977D01*
X175044Y80886D01*
X175163Y80817D01*
X175270Y80770D01*
X175366Y80746D01*
X175451Y80745D01*
X175523Y80767D01*
X175584Y80811D01*
X174465Y79691D01*
X174509Y79752D01*
X174530Y79825D01*
X174529Y79909D01*
X174505Y80005D01*
X174459Y80112D01*
X174390Y80231D01*
X174298Y80362D01*
X174184Y80504D01*
X173887Y80823D01*
X174453Y81388D01*
X174618Y81229D01*
D02*
G37*
G36*
X126522Y79122D02*
X126363Y78957D01*
X126111Y78661D01*
X126020Y78531D01*
X125951Y78412D01*
X125904Y78304D01*
X125880Y78209D01*
X125879Y78124D01*
X125900Y78052D01*
X125944Y77991D01*
X124825Y79110D01*
X124886Y79066D01*
X124959Y79044D01*
X125043Y79046D01*
X125139Y79069D01*
X125246Y79116D01*
X125365Y79185D01*
X125496Y79277D01*
X125638Y79391D01*
X125956Y79688D01*
X126522Y79122D01*
D02*
G37*
G36*
X118254D02*
X118095Y78957D01*
X117844Y78661D01*
X117752Y78531D01*
X117683Y78412D01*
X117636Y78304D01*
X117613Y78209D01*
X117611Y78124D01*
X117633Y78052D01*
X117677Y77991D01*
X116557Y79110D01*
X116619Y79066D01*
X116691Y79044D01*
X116776Y79046D01*
X116871Y79069D01*
X116979Y79116D01*
X117098Y79185D01*
X117228Y79277D01*
X117370Y79391D01*
X117689Y79688D01*
X118254Y79122D01*
D02*
G37*
G36*
X170728Y77602D02*
X170740Y77464D01*
X170760Y77342D01*
X170788Y77237D01*
X170824Y77148D01*
X170868Y77074D01*
X170920Y77018D01*
X170980Y76977D01*
X171048Y76953D01*
X171124Y76945D01*
X169524D01*
X169600Y76953D01*
X169668Y76977D01*
X169728Y77018D01*
X169780Y77074D01*
X169824Y77148D01*
X169860Y77237D01*
X169888Y77342D01*
X169908Y77464D01*
X169920Y77602D01*
X169924Y77757D01*
X170724D01*
X170728Y77602D01*
D02*
G37*
G36*
X167579D02*
X167591Y77464D01*
X167611Y77342D01*
X167639Y77237D01*
X167675Y77148D01*
X167719Y77074D01*
X167771Y77018D01*
X167831Y76977D01*
X167899Y76953D01*
X167975Y76945D01*
X166375D01*
X166451Y76953D01*
X166519Y76977D01*
X166579Y77018D01*
X166631Y77074D01*
X166675Y77148D01*
X166711Y77237D01*
X166739Y77342D01*
X166759Y77464D01*
X166771Y77602D01*
X166775Y77757D01*
X167575D01*
X167579Y77602D01*
D02*
G37*
G36*
X179457Y76900D02*
X179377Y76870D01*
X179306Y76820D01*
X179245Y76750D01*
X179193Y76660D01*
X179150Y76550D01*
X179117Y76420D01*
X179094Y76270D01*
X179079Y76100D01*
X179075Y75910D01*
X178075D01*
X178070Y76100D01*
X178056Y76270D01*
X178032Y76420D01*
X177999Y76550D01*
X177957Y76660D01*
X177905Y76750D01*
X177843Y76820D01*
X177773Y76870D01*
X177692Y76900D01*
X177603Y76910D01*
X179547D01*
X179457Y76900D01*
D02*
G37*
G36*
X162394Y75718D02*
X162406Y75580D01*
X162426Y75458D01*
X162454Y75353D01*
X162490Y75264D01*
X162534Y75190D01*
X162586Y75134D01*
X162646Y75093D01*
X162714Y75069D01*
X162790Y75060D01*
X161190D01*
X161266Y75069D01*
X161334Y75093D01*
X161394Y75134D01*
X161446Y75190D01*
X161490Y75264D01*
X161526Y75353D01*
X161554Y75458D01*
X161574Y75580D01*
X161586Y75718D01*
X161590Y75872D01*
X162390D01*
X162394Y75718D01*
D02*
G37*
G36*
X159244D02*
X159256Y75580D01*
X159276Y75458D01*
X159304Y75353D01*
X159340Y75264D01*
X159384Y75190D01*
X159436Y75134D01*
X159496Y75093D01*
X159564Y75069D01*
X159640Y75060D01*
X158040D01*
X158116Y75069D01*
X158184Y75093D01*
X158244Y75134D01*
X158296Y75190D01*
X158340Y75264D01*
X158376Y75353D01*
X158404Y75458D01*
X158424Y75580D01*
X158436Y75718D01*
X158440Y75872D01*
X159240D01*
X159244Y75718D01*
D02*
G37*
G36*
X152766D02*
X152778Y75580D01*
X152798Y75458D01*
X152826Y75353D01*
X152862Y75264D01*
X152906Y75190D01*
X152958Y75134D01*
X153018Y75093D01*
X153086Y75069D01*
X153162Y75060D01*
X151562D01*
X151638Y75069D01*
X151706Y75093D01*
X151766Y75134D01*
X151818Y75190D01*
X151862Y75264D01*
X151898Y75353D01*
X151926Y75458D01*
X151946Y75580D01*
X151958Y75718D01*
X151962Y75872D01*
X152762D01*
X152766Y75718D01*
D02*
G37*
G36*
X149617D02*
X149629Y75580D01*
X149649Y75458D01*
X149677Y75353D01*
X149713Y75264D01*
X149757Y75190D01*
X149809Y75134D01*
X149869Y75093D01*
X149937Y75069D01*
X150013Y75060D01*
X148413D01*
X148489Y75069D01*
X148557Y75093D01*
X148617Y75134D01*
X148669Y75190D01*
X148713Y75264D01*
X148749Y75353D01*
X148777Y75458D01*
X148797Y75580D01*
X148809Y75718D01*
X148813Y75872D01*
X149613D01*
X149617Y75718D01*
D02*
G37*
G36*
X125953Y75724D02*
X125977Y75656D01*
X126018Y75596D01*
X126074Y75544D01*
X126147Y75500D01*
X126237Y75464D01*
X126342Y75436D01*
X126464Y75416D01*
X126602Y75404D01*
X126757Y75400D01*
Y74600D01*
X126602Y74596D01*
X126464Y74584D01*
X126342Y74564D01*
X126237Y74536D01*
X126147Y74500D01*
X126074Y74456D01*
X126018Y74404D01*
X125977Y74344D01*
X125953Y74276D01*
X125944Y74200D01*
Y75800D01*
X125953Y75724D01*
D02*
G37*
G36*
X113776Y74028D02*
X113766Y74117D01*
X113736Y74198D01*
X113686Y74269D01*
X113616Y74330D01*
X113526Y74382D01*
X113416Y74424D01*
X113286Y74458D01*
X113136Y74481D01*
X112966Y74495D01*
X112776Y74500D01*
Y75500D01*
X112966Y75505D01*
X113136Y75519D01*
X113286Y75542D01*
X113416Y75576D01*
X113526Y75618D01*
X113616Y75670D01*
X113686Y75731D01*
X113736Y75802D01*
X113766Y75883D01*
X113776Y75972D01*
Y74028D01*
D02*
G37*
G36*
X178777Y72611D02*
X178680Y72505D01*
X178597Y72396D01*
X178528Y72283D01*
X178474Y72167D01*
X178434Y72047D01*
X178408Y71924D01*
X178396Y71798D01*
X178399Y71667D01*
X178416Y71534D01*
X178446Y71397D01*
X176632Y72454D01*
X176783Y72496D01*
X177066Y72596D01*
X177199Y72654D01*
X177326Y72717D01*
X177446Y72787D01*
X177561Y72861D01*
X177670Y72941D01*
X177773Y73027D01*
X177870Y73118D01*
X178777Y72611D01*
D02*
G37*
G36*
X131388Y71279D02*
X131229Y71114D01*
X130977Y70819D01*
X130886Y70688D01*
X130817Y70569D01*
X130770Y70462D01*
X130746Y70366D01*
X130745Y70282D01*
X130767Y70209D01*
X130811Y70148D01*
X129691Y71267D01*
X129752Y71223D01*
X129825Y71202D01*
X129909Y71203D01*
X130005Y71227D01*
X130113Y71273D01*
X130231Y71342D01*
X130362Y71434D01*
X130504Y71548D01*
X130823Y71845D01*
X131388Y71279D01*
D02*
G37*
G36*
X32505Y70890D02*
X32520Y70718D01*
X32545Y70566D01*
X32580Y70435D01*
X32625Y70323D01*
X32680Y70232D01*
X32745Y70162D01*
X32820Y70111D01*
X32905Y70081D01*
X33000Y70070D01*
X31000D01*
X31095Y70081D01*
X31180Y70111D01*
X31255Y70162D01*
X31320Y70232D01*
X31375Y70323D01*
X31420Y70435D01*
X31455Y70566D01*
X31480Y70718D01*
X31495Y70890D01*
X31500Y71083D01*
X32500D01*
X32505Y70890D01*
D02*
G37*
G36*
X176232Y69712D02*
X176096Y69789D01*
X175825Y69918D01*
X175690Y69971D01*
X175555Y70016D01*
X175421Y70052D01*
X175287Y70081D01*
X175153Y70101D01*
X175020Y70113D01*
X174887Y70117D01*
X174605Y71117D01*
X174748Y71124D01*
X174884Y71142D01*
X175012Y71174D01*
X175133Y71217D01*
X175246Y71273D01*
X175351Y71342D01*
X175449Y71423D01*
X175539Y71517D01*
X175621Y71623D01*
X175696Y71742D01*
X176232Y69712D01*
D02*
G37*
G36*
X139086Y71031D02*
X139111Y70963D01*
X139151Y70903D01*
X139208Y70851D01*
X139281Y70807D01*
X139371Y70771D01*
X139476Y70743D01*
X139598Y70723D01*
X139736Y70711D01*
X139890Y70707D01*
Y69907D01*
X139736Y69903D01*
X139598Y69891D01*
X139476Y69871D01*
X139371Y69843D01*
X139281Y69807D01*
X139208Y69763D01*
X139151Y69711D01*
X139111Y69651D01*
X139086Y69583D01*
X139078Y69507D01*
Y71107D01*
X139086Y71031D01*
D02*
G37*
G36*
X123181Y68103D02*
X123293Y68010D01*
X123409Y67927D01*
X123529Y67856D01*
X123652Y67795D01*
X123777Y67746D01*
X123907Y67707D01*
X124039Y67680D01*
X124090Y67673D01*
X124493Y67660D01*
X124866Y67658D01*
Y66658D01*
X124493Y66655D01*
X123968Y66621D01*
X123907Y66608D01*
X123777Y66570D01*
X123652Y66520D01*
X123529Y66460D01*
X123409Y66388D01*
X123293Y66306D01*
X123181Y66212D01*
X123071Y66107D01*
Y66561D01*
X122988Y66556D01*
X122860Y66525D01*
X122766Y66489D01*
X122707Y66450D01*
Y67865D01*
X122766Y67826D01*
X122860Y67790D01*
X122988Y67759D01*
X123071Y67746D01*
Y68208D01*
X123181Y68103D01*
D02*
G37*
G36*
X166368Y69095D02*
X166663Y68844D01*
X166794Y68752D01*
X166913Y68683D01*
X167020Y68636D01*
X167116Y68612D01*
X167200Y68611D01*
X167273Y68633D01*
X167334Y68677D01*
X166215Y67557D01*
X166259Y67619D01*
X166280Y67691D01*
X166279Y67775D01*
X166255Y67871D01*
X166209Y67979D01*
X166139Y68098D01*
X166048Y68228D01*
X165933Y68370D01*
X165637Y68689D01*
X166203Y69254D01*
X166368Y69095D01*
D02*
G37*
G36*
X139086Y67882D02*
X139111Y67813D01*
X139151Y67753D01*
X139208Y67702D01*
X139281Y67658D01*
X139371Y67621D01*
X139476Y67593D01*
X139598Y67573D01*
X139736Y67562D01*
X139890Y67558D01*
Y66758D01*
X139736Y66754D01*
X139598Y66742D01*
X139476Y66721D01*
X139371Y66694D01*
X139281Y66658D01*
X139208Y66614D01*
X139151Y66562D01*
X139111Y66501D01*
X139086Y66434D01*
X139078Y66357D01*
Y67958D01*
X139086Y67882D01*
D02*
G37*
G36*
X126910Y66185D02*
X126900Y66275D01*
X126870Y66355D01*
X126820Y66426D01*
X126750Y66487D01*
X126660Y66539D01*
X126550Y66582D01*
X126420Y66615D01*
X126270Y66639D01*
X126100Y66653D01*
X125910Y66658D01*
Y67658D01*
X126100Y67662D01*
X126270Y67676D01*
X126420Y67700D01*
X126550Y67733D01*
X126660Y67775D01*
X126750Y67827D01*
X126820Y67889D01*
X126870Y67960D01*
X126900Y68040D01*
X126910Y68130D01*
Y66185D01*
D02*
G37*
G36*
X158033Y67211D02*
X158329Y66960D01*
X158459Y66868D01*
X158578Y66799D01*
X158685Y66752D01*
X158781Y66729D01*
X158865Y66727D01*
X158938Y66749D01*
X158999Y66793D01*
X157880Y65673D01*
X157924Y65735D01*
X157945Y65807D01*
X157944Y65891D01*
X157920Y65987D01*
X157874Y66095D01*
X157805Y66214D01*
X157713Y66344D01*
X157599Y66486D01*
X157302Y66805D01*
X157868Y67370D01*
X158033Y67211D01*
D02*
G37*
G36*
X148406D02*
X148701Y66960D01*
X148831Y66868D01*
X148951Y66799D01*
X149058Y66752D01*
X149154Y66729D01*
X149238Y66727D01*
X149311Y66749D01*
X149372Y66793D01*
X148252Y65673D01*
X148296Y65735D01*
X148318Y65807D01*
X148317Y65891D01*
X148293Y65987D01*
X148246Y66095D01*
X148177Y66214D01*
X148086Y66344D01*
X147971Y66486D01*
X147675Y66805D01*
X148240Y67370D01*
X148406Y67211D01*
D02*
G37*
G36*
X121985Y65658D02*
X121965Y65651D01*
X121934Y65632D01*
X121892Y65601D01*
X121774Y65499D01*
X121402Y65144D01*
X121280Y65023D01*
X119866Y66438D01*
X120500Y67142D01*
X121985Y65658D01*
D02*
G37*
G36*
X153278Y64228D02*
X153250Y64136D01*
Y64030D01*
X153278Y63910D01*
X153334Y63776D01*
X153419Y63627D01*
X153532Y63464D01*
X153674Y63288D01*
X154042Y62892D01*
X153334Y62185D01*
X153129Y62383D01*
X152762Y62694D01*
X152599Y62807D01*
X152451Y62892D01*
X152316Y62948D01*
X152196Y62977D01*
X152090D01*
X151998Y62948D01*
X151920Y62892D01*
X153334Y64306D01*
X153278Y64228D01*
D02*
G37*
G36*
X162872Y62882D02*
X162792Y62852D01*
X162721Y62802D01*
X162660Y62732D01*
X162608Y62642D01*
X162565Y62532D01*
X162532Y62402D01*
X162509Y62252D01*
X162495Y62082D01*
X162490Y61892D01*
X161490D01*
X161485Y62082D01*
X161471Y62252D01*
X161447Y62402D01*
X161414Y62532D01*
X161372Y62642D01*
X161320Y62732D01*
X161258Y62802D01*
X161188Y62852D01*
X161107Y62882D01*
X161018Y62892D01*
X162962D01*
X162872Y62882D01*
D02*
G37*
G36*
X23063Y60254D02*
X22977Y60224D01*
X22903Y60174D01*
X22838Y60104D01*
X22783Y60014D01*
X22738Y59904D01*
X22703Y59774D01*
X22678Y59624D01*
X22662Y59454D01*
X22658Y59264D01*
X21657D01*
X21653Y59454D01*
X21637Y59624D01*
X21612Y59774D01*
X21577Y59904D01*
X21532Y60014D01*
X21477Y60104D01*
X21413Y60174D01*
X21338Y60224D01*
X21252Y60254D01*
X21158Y60264D01*
X23157D01*
X23063Y60254D01*
D02*
G37*
G36*
X43052Y60253D02*
X43041Y60221D01*
X43031Y60168D01*
X43023Y60094D01*
X43006Y59743D01*
X43000Y59200D01*
X41000D01*
X40999Y59402D01*
X40948Y60253D01*
X40936Y60264D01*
X43064D01*
X43052Y60253D01*
D02*
G37*
G36*
X39034Y54820D02*
X38400Y54115D01*
X36915Y55600D01*
X36935Y55606D01*
X36966Y55625D01*
X37008Y55657D01*
X37126Y55758D01*
X37499Y56113D01*
X37620Y56234D01*
X39034Y54820D01*
D02*
G37*
G36*
X22662Y50748D02*
X22678Y50576D01*
X22703Y50425D01*
X22738Y50293D01*
X22783Y50182D01*
X22838Y50091D01*
X22903Y50020D01*
X22977Y49969D01*
X23063Y49939D01*
X23157Y49929D01*
X21158D01*
X21252Y49939D01*
X21338Y49969D01*
X21413Y50020D01*
X21477Y50091D01*
X21532Y50182D01*
X21577Y50293D01*
X21612Y50425D01*
X21637Y50576D01*
X21653Y50748D01*
X21657Y50941D01*
X22658D01*
X22662Y50748D01*
D02*
G37*
G36*
X32307Y48912D02*
X32367Y48742D01*
X32467Y48592D01*
X32607Y48462D01*
X32787Y48352D01*
X33007Y48262D01*
X33267Y48192D01*
X33567Y48142D01*
X33907Y48112D01*
X34287Y48102D01*
Y46102D01*
X33907Y46092D01*
X33567Y46062D01*
X33267Y46012D01*
X33007Y45942D01*
X32787Y45852D01*
X32607Y45742D01*
X32467Y45612D01*
X32367Y45462D01*
X32307Y45292D01*
X32287Y45102D01*
Y49102D01*
X32307Y48912D01*
D02*
G37*
G36*
X113550Y44811D02*
X111450D01*
X111460Y44830D01*
X111468Y44865D01*
X111476Y44917D01*
X111487Y45073D01*
X111500Y45587D01*
X111500Y45758D01*
X113500D01*
X113550Y44811D01*
D02*
G37*
G36*
X42485Y45240D02*
X41000Y43755D01*
X40994Y43775D01*
X40975Y43806D01*
X40943Y43848D01*
X40842Y43966D01*
X40486Y44339D01*
X40366Y44460D01*
X41780Y45874D01*
X42485Y45240D01*
D02*
G37*
G36*
X22854Y44061D02*
X22769Y44031D01*
X22694Y43980D01*
X22629Y43909D01*
X22574Y43818D01*
X22529Y43707D01*
X22494Y43575D01*
X22469Y43424D01*
X22454Y43251D01*
X22449Y43059D01*
X21449D01*
X21444Y43251D01*
X21429Y43424D01*
X21404Y43575D01*
X21369Y43707D01*
X21324Y43818D01*
X21269Y43909D01*
X21204Y43980D01*
X21129Y44031D01*
X21044Y44061D01*
X20949Y44071D01*
X22949D01*
X22854Y44061D01*
D02*
G37*
G36*
X111429Y42690D02*
X111410Y42700D01*
X111375Y42708D01*
X111323Y42716D01*
X111168Y42728D01*
X110653Y42740D01*
X110482Y42740D01*
Y44740D01*
X111429Y44790D01*
Y42690D01*
D02*
G37*
G36*
X43589Y44781D02*
X43625Y44772D01*
X43677Y44765D01*
X43832Y44753D01*
X44347Y44741D01*
X44518Y44740D01*
Y42740D01*
X43571Y42690D01*
Y44790D01*
X43589Y44781D01*
D02*
G37*
G36*
X62331Y44861D02*
X62391Y44836D01*
X62491Y44813D01*
X62631Y44794D01*
X63031Y44764D01*
X64311Y44740D01*
Y42740D01*
X63931Y42739D01*
X62391Y42645D01*
X62331Y42619D01*
X62311Y42591D01*
Y44890D01*
X62331Y44861D01*
D02*
G37*
G36*
X47689Y42591D02*
X47669Y42619D01*
X47609Y42645D01*
X47509Y42667D01*
X47369Y42686D01*
X46969Y42716D01*
X45689Y42740D01*
Y44740D01*
X46069Y44742D01*
X47609Y44836D01*
X47669Y44861D01*
X47689Y44890D01*
Y42591D01*
D02*
G37*
G36*
X107546Y45550D02*
X107606Y45380D01*
X107707Y45230D01*
X107848Y45100D01*
X108029Y44990D01*
X108250Y44900D01*
X108512Y44830D01*
X108814Y44780D01*
X109156Y44750D01*
X109538Y44740D01*
Y42740D01*
X109156Y42730D01*
X108814Y42700D01*
X108512Y42650D01*
X108250Y42580D01*
X108029Y42490D01*
X107848Y42380D01*
X107707Y42250D01*
X107606Y42100D01*
X107546Y41930D01*
X107526Y41740D01*
Y45740D01*
X107546Y45550D01*
D02*
G37*
G36*
X87474Y41740D02*
X87454Y41930D01*
X87393Y42100D01*
X87293Y42250D01*
X87152Y42380D01*
X86971Y42490D01*
X86750Y42580D01*
X86488Y42650D01*
X86186Y42700D01*
X85844Y42730D01*
X85462Y42740D01*
Y44740D01*
X85844Y44750D01*
X86186Y44780D01*
X86488Y44830D01*
X86750Y44900D01*
X86971Y44990D01*
X87152Y45100D01*
X87293Y45230D01*
X87393Y45380D01*
X87454Y45550D01*
X87474Y45740D01*
Y41740D01*
D02*
G37*
G36*
X113540Y42651D02*
X113532Y42615D01*
X113524Y42563D01*
X113513Y42408D01*
X113500Y41893D01*
X113500Y41722D01*
X111500D01*
X111450Y42669D01*
X113550D01*
X113540Y42651D01*
D02*
G37*
G36*
X62321Y40905D02*
X62351Y40820D01*
X62401Y40745D01*
X62471Y40680D01*
X62561Y40625D01*
X62671Y40580D01*
X62801Y40545D01*
X62951Y40520D01*
X63121Y40505D01*
X63311Y40500D01*
Y39500D01*
X63121Y39495D01*
X62951Y39480D01*
X62801Y39455D01*
X62671Y39420D01*
X62561Y39375D01*
X62471Y39320D01*
X62401Y39255D01*
X62351Y39180D01*
X62321Y39095D01*
X62311Y39000D01*
Y41000D01*
X62321Y40905D01*
D02*
G37*
G36*
X22454Y39812D02*
X22469Y39639D01*
X22494Y39488D01*
X22529Y39356D01*
X22574Y39245D01*
X22629Y39154D01*
X22694Y39083D01*
X22769Y39032D01*
X22854Y39002D01*
X22949Y38992D01*
X20949D01*
X21044Y39002D01*
X21129Y39032D01*
X21204Y39083D01*
X21269Y39154D01*
X21324Y39245D01*
X21369Y39356D01*
X21404Y39488D01*
X21429Y39639D01*
X21444Y39812D01*
X21449Y40004D01*
X22449D01*
X22454Y39812D01*
D02*
G37*
G36*
X73929Y38950D02*
X73819Y39055D01*
X73707Y39148D01*
X73590Y39230D01*
X73471Y39302D01*
X73348Y39362D01*
X73223Y39412D01*
X73093Y39450D01*
X72961Y39478D01*
X72825Y39494D01*
X72686Y39500D01*
Y40500D01*
X72825Y40505D01*
X72961Y40522D01*
X73093Y40549D01*
X73223Y40588D01*
X73348Y40637D01*
X73471Y40698D01*
X73590Y40769D01*
X73707Y40852D01*
X73819Y40946D01*
X73929Y41050D01*
Y38950D01*
D02*
G37*
G36*
X47689Y35260D02*
X47679Y35355D01*
X47649Y35440D01*
X47599Y35515D01*
X47529Y35580D01*
X47439Y35635D01*
X47329Y35680D01*
X47199Y35715D01*
X47049Y35740D01*
X46879Y35755D01*
X46689Y35760D01*
Y36760D01*
X46879Y36765D01*
X47049Y36780D01*
X47199Y36805D01*
X47329Y36840D01*
X47439Y36885D01*
X47529Y36940D01*
X47599Y37005D01*
X47649Y37080D01*
X47679Y37165D01*
X47689Y37260D01*
Y35260D01*
D02*
G37*
G36*
X66429Y35210D02*
X66410Y35219D01*
X66375Y35228D01*
X66323Y35235D01*
X66168Y35247D01*
X65653Y35259D01*
X65482Y35260D01*
Y37260D01*
X66429Y37310D01*
Y35210D01*
D02*
G37*
G36*
X43681Y37205D02*
X43793Y37112D01*
X43909Y37029D01*
X44029Y36958D01*
X44151Y36897D01*
X44278Y36848D01*
X44407Y36809D01*
X44539Y36782D01*
X44675Y36765D01*
X44814Y36760D01*
Y35760D01*
X44675Y35754D01*
X44539Y35738D01*
X44407Y35710D01*
X44278Y35672D01*
X44151Y35622D01*
X44029Y35562D01*
X43909Y35490D01*
X43793Y35408D01*
X43681Y35314D01*
X43571Y35210D01*
Y37310D01*
X43681Y37205D01*
D02*
G37*
G36*
X62331Y37381D02*
X62391Y37356D01*
X62491Y37333D01*
X62631Y37314D01*
X63031Y37284D01*
X64311Y37260D01*
Y35260D01*
X63931Y35258D01*
X62391Y35164D01*
X62331Y35139D01*
X62311Y35110D01*
Y37409D01*
X62331Y37381D01*
D02*
G37*
G36*
X30224Y37810D02*
X30285Y37640D01*
X30384Y37490D01*
X30525Y37360D01*
X30705Y37250D01*
X30924Y37160D01*
X31185Y37090D01*
X31484Y37040D01*
X31824Y37010D01*
X32056Y37004D01*
X32929Y37050D01*
Y34950D01*
X32910Y34960D01*
X32875Y34968D01*
X32823Y34975D01*
X32668Y34988D01*
X32170Y34999D01*
X31824Y34990D01*
X31484Y34960D01*
X31185Y34910D01*
X30924Y34840D01*
X30705Y34750D01*
X30525Y34640D01*
X30384Y34510D01*
X30285Y34360D01*
X30224Y34190D01*
X30204Y34000D01*
Y38000D01*
X30224Y37810D01*
D02*
G37*
G36*
X22854Y33518D02*
X22769Y33487D01*
X22694Y33437D01*
X22629Y33366D01*
X22574Y33275D01*
X22529Y33164D01*
X22494Y33032D01*
X22469Y32880D01*
X22454Y32708D01*
X22449Y32516D01*
X21449D01*
X21444Y32708D01*
X21429Y32880D01*
X21404Y33032D01*
X21369Y33164D01*
X21324Y33275D01*
X21269Y33366D01*
X21204Y33437D01*
X21129Y33487D01*
X21044Y33518D01*
X20949Y33528D01*
X22949D01*
X22854Y33518D01*
D02*
G37*
G36*
X63929Y27950D02*
X63819Y28054D01*
X63707Y28148D01*
X63591Y28231D01*
X63471Y28302D01*
X63349Y28363D01*
X63222Y28412D01*
X63093Y28451D01*
X62961Y28478D01*
X62825Y28495D01*
X62686Y28500D01*
Y29500D01*
X62825Y29506D01*
X62961Y29522D01*
X63093Y29550D01*
X63222Y29588D01*
X63349Y29638D01*
X63471Y29698D01*
X63591Y29770D01*
X63707Y29852D01*
X63819Y29945D01*
X63929Y30050D01*
Y27950D01*
D02*
G37*
G36*
X65946Y27819D02*
X65852Y27707D01*
X65769Y27591D01*
X65698Y27471D01*
X65637Y27349D01*
X65588Y27222D01*
X65549Y27093D01*
X65522Y26961D01*
X65505Y26825D01*
X65500Y26686D01*
X64500D01*
X64495Y26825D01*
X64478Y26961D01*
X64451Y27093D01*
X64412Y27222D01*
X64363Y27349D01*
X64302Y27471D01*
X64231Y27591D01*
X64148Y27707D01*
X64055Y27819D01*
X63950Y27929D01*
X66050D01*
X65946Y27819D01*
D02*
G37*
G36*
X121004Y23408D02*
X121062Y22508D01*
X121097Y22288D01*
X121140Y22108D01*
X121190Y21968D01*
X121248Y21868D01*
X121314Y21808D01*
X121388Y21788D01*
X118612D01*
X118686Y21808D01*
X118752Y21868D01*
X118810Y21968D01*
X118860Y22108D01*
X118903Y22288D01*
X118938Y22508D01*
X118965Y22768D01*
X118996Y23408D01*
X119000Y23788D01*
X121000D01*
X121004Y23408D01*
D02*
G37*
G36*
X72209Y18000D02*
X72199Y18095D01*
X72169Y18180D01*
X72118Y18255D01*
X72047Y18320D01*
X71956Y18375D01*
X71845Y18420D01*
X71713Y18455D01*
X71561Y18480D01*
X71389Y18495D01*
X71197Y18500D01*
Y19500D01*
X71389Y19505D01*
X71561Y19520D01*
X71713Y19545D01*
X71845Y19580D01*
X71956Y19625D01*
X72047Y19680D01*
X72118Y19745D01*
X72169Y19820D01*
X72199Y19905D01*
X72209Y20000D01*
Y18000D01*
D02*
G37*
G36*
X88590Y20041D02*
X88625Y20032D01*
X88677Y20024D01*
X88832Y20012D01*
X89347Y20000D01*
X89518Y20000D01*
Y18000D01*
X88571Y17950D01*
Y20050D01*
X88590Y20041D01*
D02*
G37*
G36*
X86429Y17950D02*
X86410Y17959D01*
X86375Y17968D01*
X86323Y17976D01*
X86168Y17988D01*
X85653Y18000D01*
X85482Y18000D01*
Y20000D01*
X86429Y20050D01*
Y17950D01*
D02*
G37*
G36*
X68681Y19945D02*
X68793Y19852D01*
X68910Y19770D01*
X69029Y19698D01*
X69152Y19637D01*
X69278Y19588D01*
X69407Y19549D01*
X69539Y19522D01*
X69675Y19505D01*
X69814Y19500D01*
Y18500D01*
X69675Y18495D01*
X69539Y18478D01*
X69407Y18451D01*
X69278Y18412D01*
X69152Y18362D01*
X69029Y18302D01*
X68910Y18230D01*
X68793Y18148D01*
X68681Y18055D01*
X68571Y17950D01*
Y20050D01*
X68681Y19945D01*
D02*
G37*
G36*
X82823Y20810D02*
X82883Y20640D01*
X82983Y20490D01*
X83123Y20360D01*
X83303Y20250D01*
X83523Y20160D01*
X83783Y20090D01*
X84083Y20040D01*
X84423Y20010D01*
X84803Y20000D01*
Y18000D01*
X84423Y17990D01*
X84083Y17960D01*
X83783Y17910D01*
X83523Y17840D01*
X83303Y17750D01*
X83123Y17640D01*
X82983Y17510D01*
X82883Y17360D01*
X82823Y17190D01*
X82803Y17000D01*
Y21000D01*
X82823Y20810D01*
D02*
G37*
G36*
X75059Y16652D02*
X74973Y16621D01*
X74898Y16571D01*
X74834Y16500D01*
X74778Y16409D01*
X74734Y16297D01*
X74699Y16166D01*
X74673Y16014D01*
X74659Y15842D01*
X74654Y15650D01*
X73654D01*
X73649Y15842D01*
X73633Y16014D01*
X73608Y16166D01*
X73573Y16297D01*
X73528Y16409D01*
X73474Y16500D01*
X73409Y16571D01*
X73334Y16621D01*
X73248Y16652D01*
X73154Y16662D01*
X75153D01*
X75059Y16652D01*
D02*
G37*
G36*
X250905Y16214D02*
X250820Y16183D01*
X250745Y16133D01*
X250680Y16062D01*
X250625Y15971D01*
X250580Y15860D01*
X250545Y15728D01*
X250520Y15576D01*
X250505Y15404D01*
X250500Y15212D01*
X249500D01*
X249495Y15404D01*
X249480Y15576D01*
X249455Y15728D01*
X249420Y15860D01*
X249375Y15971D01*
X249320Y16062D01*
X249255Y16133D01*
X249180Y16183D01*
X249095Y16214D01*
X249000Y16224D01*
X251000D01*
X250905Y16214D01*
D02*
G37*
G36*
X240905D02*
X240820Y16183D01*
X240745Y16133D01*
X240680Y16062D01*
X240625Y15971D01*
X240580Y15860D01*
X240545Y15728D01*
X240520Y15576D01*
X240505Y15404D01*
X240500Y15212D01*
X239500D01*
X239495Y15404D01*
X239480Y15576D01*
X239455Y15728D01*
X239420Y15860D01*
X239375Y15971D01*
X239320Y16062D01*
X239255Y16133D01*
X239180Y16183D01*
X239095Y16214D01*
X239000Y16224D01*
X241000D01*
X240905Y16214D01*
D02*
G37*
G36*
X230905D02*
X230820Y16183D01*
X230745Y16133D01*
X230680Y16062D01*
X230625Y15971D01*
X230580Y15860D01*
X230545Y15728D01*
X230520Y15576D01*
X230505Y15404D01*
X230500Y15212D01*
X229500D01*
X229495Y15404D01*
X229480Y15576D01*
X229455Y15728D01*
X229420Y15860D01*
X229375Y15971D01*
X229320Y16062D01*
X229255Y16133D01*
X229180Y16183D01*
X229095Y16214D01*
X229000Y16224D01*
X231000D01*
X230905Y16214D01*
D02*
G37*
G36*
X220905D02*
X220820Y16183D01*
X220745Y16133D01*
X220680Y16062D01*
X220625Y15971D01*
X220580Y15860D01*
X220545Y15728D01*
X220520Y15576D01*
X220505Y15404D01*
X220500Y15212D01*
X219500D01*
X219495Y15404D01*
X219480Y15576D01*
X219455Y15728D01*
X219420Y15860D01*
X219375Y15971D01*
X219320Y16062D01*
X219255Y16133D01*
X219180Y16183D01*
X219095Y16214D01*
X219000Y16224D01*
X221000D01*
X220905Y16214D01*
D02*
G37*
G36*
X210905D02*
X210820Y16183D01*
X210745Y16133D01*
X210680Y16062D01*
X210625Y15971D01*
X210580Y15860D01*
X210545Y15728D01*
X210520Y15576D01*
X210505Y15404D01*
X210500Y15212D01*
X209500D01*
X209495Y15404D01*
X209480Y15576D01*
X209455Y15728D01*
X209420Y15860D01*
X209375Y15971D01*
X209320Y16062D01*
X209255Y16133D01*
X209180Y16183D01*
X209095Y16214D01*
X209000Y16224D01*
X211000D01*
X210905Y16214D01*
D02*
G37*
G36*
X200905D02*
X200820Y16183D01*
X200745Y16133D01*
X200680Y16062D01*
X200625Y15971D01*
X200580Y15860D01*
X200545Y15728D01*
X200520Y15576D01*
X200505Y15404D01*
X200500Y15212D01*
X199500D01*
X199495Y15404D01*
X199480Y15576D01*
X199455Y15728D01*
X199420Y15860D01*
X199375Y15971D01*
X199320Y16062D01*
X199255Y16133D01*
X199180Y16183D01*
X199095Y16214D01*
X199000Y16224D01*
X201000D01*
X200905Y16214D01*
D02*
G37*
G36*
X180905D02*
X180820Y16183D01*
X180745Y16133D01*
X180680Y16062D01*
X180625Y15971D01*
X180580Y15860D01*
X180545Y15728D01*
X180520Y15576D01*
X180505Y15404D01*
X180500Y15212D01*
X179500D01*
X179495Y15404D01*
X179480Y15576D01*
X179455Y15728D01*
X179420Y15860D01*
X179375Y15971D01*
X179320Y16062D01*
X179255Y16133D01*
X179180Y16183D01*
X179095Y16214D01*
X179000Y16224D01*
X181000D01*
X180905Y16214D01*
D02*
G37*
G36*
X170905D02*
X170820Y16183D01*
X170745Y16133D01*
X170680Y16062D01*
X170625Y15971D01*
X170580Y15860D01*
X170545Y15728D01*
X170520Y15576D01*
X170505Y15404D01*
X170500Y15212D01*
X169500D01*
X169495Y15404D01*
X169480Y15576D01*
X169455Y15728D01*
X169420Y15860D01*
X169375Y15971D01*
X169320Y16062D01*
X169255Y16133D01*
X169180Y16183D01*
X169095Y16214D01*
X169000Y16224D01*
X171000D01*
X170905Y16214D01*
D02*
G37*
G36*
X160905D02*
X160820Y16183D01*
X160745Y16133D01*
X160680Y16062D01*
X160625Y15971D01*
X160580Y15860D01*
X160545Y15728D01*
X160520Y15576D01*
X160505Y15404D01*
X160500Y15212D01*
X159500D01*
X159495Y15404D01*
X159480Y15576D01*
X159455Y15728D01*
X159420Y15860D01*
X159375Y15971D01*
X159320Y16062D01*
X159255Y16133D01*
X159180Y16183D01*
X159095Y16214D01*
X159000Y16224D01*
X161000D01*
X160905Y16214D01*
D02*
G37*
G36*
X150905D02*
X150820Y16183D01*
X150745Y16133D01*
X150680Y16062D01*
X150625Y15971D01*
X150580Y15860D01*
X150545Y15728D01*
X150520Y15576D01*
X150505Y15404D01*
X150500Y15212D01*
X149500D01*
X149495Y15404D01*
X149480Y15576D01*
X149455Y15728D01*
X149420Y15860D01*
X149375Y15971D01*
X149320Y16062D01*
X149255Y16133D01*
X149180Y16183D01*
X149095Y16214D01*
X149000Y16224D01*
X151000D01*
X150905Y16214D01*
D02*
G37*
G36*
X140905D02*
X140820Y16183D01*
X140745Y16133D01*
X140680Y16062D01*
X140625Y15971D01*
X140580Y15860D01*
X140545Y15728D01*
X140520Y15576D01*
X140505Y15404D01*
X140500Y15212D01*
X139500D01*
X139495Y15404D01*
X139480Y15576D01*
X139455Y15728D01*
X139420Y15860D01*
X139375Y15971D01*
X139320Y16062D01*
X139255Y16133D01*
X139180Y16183D01*
X139095Y16214D01*
X139000Y16224D01*
X141000D01*
X140905Y16214D01*
D02*
G37*
G36*
X130905D02*
X130820Y16183D01*
X130745Y16133D01*
X130680Y16062D01*
X130625Y15971D01*
X130580Y15860D01*
X130545Y15728D01*
X130520Y15576D01*
X130505Y15404D01*
X130500Y15212D01*
X129500D01*
X129495Y15404D01*
X129480Y15576D01*
X129455Y15728D01*
X129420Y15860D01*
X129375Y15971D01*
X129320Y16062D01*
X129255Y16133D01*
X129180Y16183D01*
X129095Y16214D01*
X129000Y16224D01*
X131000D01*
X130905Y16214D01*
D02*
G37*
G36*
X120668Y18234D02*
X120633Y18140D01*
X120602Y18012D01*
X120575Y17848D01*
X120533Y17416D01*
X120502Y16507D01*
X120501Y16224D01*
X121000D01*
X120905Y16214D01*
X120820Y16183D01*
X120745Y16133D01*
X120680Y16062D01*
X120625Y15971D01*
X120580Y15860D01*
X120545Y15728D01*
X120520Y15576D01*
X120505Y15404D01*
X120500Y15212D01*
X119500D01*
X119495Y15404D01*
X119480Y15576D01*
X119455Y15728D01*
X119420Y15860D01*
X119375Y15971D01*
X119320Y16062D01*
X119255Y16133D01*
X119180Y16183D01*
X119095Y16214D01*
X119000Y16224D01*
X119500D01*
X119498Y16507D01*
X119398Y18012D01*
X119367Y18140D01*
X119332Y18234D01*
X119292Y18293D01*
X120707D01*
X120668Y18234D01*
D02*
G37*
G36*
X110905Y16214D02*
X110820Y16183D01*
X110745Y16133D01*
X110680Y16062D01*
X110625Y15971D01*
X110580Y15860D01*
X110545Y15728D01*
X110520Y15576D01*
X110505Y15404D01*
X110500Y15212D01*
X109500D01*
X109495Y15404D01*
X109480Y15576D01*
X109455Y15728D01*
X109420Y15860D01*
X109375Y15971D01*
X109320Y16062D01*
X109255Y16133D01*
X109180Y16183D01*
X109095Y16214D01*
X109000Y16224D01*
X111000D01*
X110905Y16214D01*
D02*
G37*
G36*
X250505Y13796D02*
X250520Y13624D01*
X250545Y13472D01*
X250580Y13340D01*
X250625Y13229D01*
X250680Y13138D01*
X250745Y13067D01*
X250820Y13016D01*
X250905Y12986D01*
X251000Y12976D01*
X249000D01*
X249095Y12986D01*
X249180Y13016D01*
X249255Y13067D01*
X249320Y13138D01*
X249375Y13229D01*
X249420Y13340D01*
X249455Y13472D01*
X249480Y13624D01*
X249495Y13796D01*
X249500Y13988D01*
X250500D01*
X250505Y13796D01*
D02*
G37*
G36*
X180505D02*
X180520Y13624D01*
X180545Y13472D01*
X180580Y13340D01*
X180625Y13229D01*
X180680Y13138D01*
X180745Y13067D01*
X180820Y13016D01*
X180905Y12986D01*
X181000Y12976D01*
X179000D01*
X179095Y12986D01*
X179180Y13016D01*
X179255Y13067D01*
X179320Y13138D01*
X179375Y13229D01*
X179420Y13340D01*
X179455Y13472D01*
X179480Y13624D01*
X179495Y13796D01*
X179500Y13988D01*
X180500D01*
X180505Y13796D01*
D02*
G37*
G36*
X74659Y13158D02*
X74673Y12986D01*
X74699Y12834D01*
X74734Y12702D01*
X74778Y12591D01*
X74834Y12500D01*
X74898Y12429D01*
X74973Y12379D01*
X75059Y12348D01*
X75153Y12338D01*
X73154D01*
X73248Y12348D01*
X73334Y12379D01*
X73409Y12429D01*
X73474Y12500D01*
X73528Y12591D01*
X73573Y12702D01*
X73608Y12834D01*
X73633Y12986D01*
X73649Y13158D01*
X73654Y13350D01*
X74654D01*
X74659Y13158D01*
D02*
G37*
G36*
X240516Y14543D02*
X240564Y14318D01*
X240644Y14083D01*
X240756Y13837D01*
X240900Y13580D01*
X241076Y13314D01*
X241284Y13036D01*
X241796Y12451D01*
X242100Y12142D01*
X237900D01*
X238204Y12451D01*
X238716Y13036D01*
X238924Y13314D01*
X239100Y13580D01*
X239244Y13837D01*
X239356Y14083D01*
X239436Y14318D01*
X239484Y14543D01*
X239500Y14758D01*
X240500D01*
X240516Y14543D01*
D02*
G37*
G36*
X230516D02*
X230564Y14318D01*
X230644Y14083D01*
X230756Y13837D01*
X230900Y13580D01*
X231076Y13314D01*
X231284Y13036D01*
X231796Y12451D01*
X232100Y12142D01*
X227900D01*
X228204Y12451D01*
X228716Y13036D01*
X228924Y13314D01*
X229100Y13580D01*
X229244Y13837D01*
X229356Y14083D01*
X229436Y14318D01*
X229484Y14543D01*
X229500Y14758D01*
X230500D01*
X230516Y14543D01*
D02*
G37*
G36*
X220516D02*
X220564Y14318D01*
X220644Y14083D01*
X220756Y13837D01*
X220900Y13580D01*
X221076Y13314D01*
X221284Y13036D01*
X221796Y12451D01*
X222100Y12142D01*
X217900D01*
X218204Y12451D01*
X218716Y13036D01*
X218924Y13314D01*
X219100Y13580D01*
X219244Y13837D01*
X219356Y14083D01*
X219436Y14318D01*
X219484Y14543D01*
X219500Y14758D01*
X220500D01*
X220516Y14543D01*
D02*
G37*
G36*
X210516D02*
X210564Y14318D01*
X210644Y14083D01*
X210756Y13837D01*
X210900Y13580D01*
X211076Y13314D01*
X211284Y13036D01*
X211796Y12451D01*
X212100Y12142D01*
X207900D01*
X208204Y12451D01*
X208716Y13036D01*
X208924Y13314D01*
X209100Y13580D01*
X209244Y13837D01*
X209356Y14083D01*
X209436Y14318D01*
X209484Y14543D01*
X209500Y14758D01*
X210500D01*
X210516Y14543D01*
D02*
G37*
G36*
X200516D02*
X200564Y14318D01*
X200644Y14083D01*
X200756Y13837D01*
X200900Y13580D01*
X201076Y13314D01*
X201284Y13036D01*
X201796Y12451D01*
X202100Y12142D01*
X197900D01*
X198204Y12451D01*
X198716Y13036D01*
X198924Y13314D01*
X199100Y13580D01*
X199244Y13837D01*
X199356Y14083D01*
X199436Y14318D01*
X199484Y14543D01*
X199500Y14758D01*
X200500D01*
X200516Y14543D01*
D02*
G37*
G36*
X170516D02*
X170564Y14318D01*
X170644Y14083D01*
X170756Y13837D01*
X170900Y13580D01*
X171076Y13314D01*
X171284Y13036D01*
X171796Y12451D01*
X172100Y12142D01*
X167900D01*
X168204Y12451D01*
X168716Y13036D01*
X168924Y13314D01*
X169100Y13580D01*
X169244Y13837D01*
X169356Y14083D01*
X169436Y14318D01*
X169484Y14543D01*
X169500Y14758D01*
X170500D01*
X170516Y14543D01*
D02*
G37*
G36*
X160516D02*
X160564Y14318D01*
X160644Y14083D01*
X160756Y13837D01*
X160900Y13580D01*
X161076Y13314D01*
X161284Y13036D01*
X161796Y12451D01*
X162100Y12142D01*
X157900D01*
X158204Y12451D01*
X158716Y13036D01*
X158924Y13314D01*
X159100Y13580D01*
X159244Y13837D01*
X159356Y14083D01*
X159436Y14318D01*
X159484Y14543D01*
X159500Y14758D01*
X160500D01*
X160516Y14543D01*
D02*
G37*
G36*
X150516D02*
X150564Y14318D01*
X150644Y14083D01*
X150756Y13837D01*
X150900Y13580D01*
X151076Y13314D01*
X151284Y13036D01*
X151796Y12451D01*
X152100Y12142D01*
X147900D01*
X148204Y12451D01*
X148716Y13036D01*
X148924Y13314D01*
X149100Y13580D01*
X149244Y13837D01*
X149356Y14083D01*
X149436Y14318D01*
X149484Y14543D01*
X149500Y14758D01*
X150500D01*
X150516Y14543D01*
D02*
G37*
G36*
X140516D02*
X140564Y14318D01*
X140644Y14083D01*
X140756Y13837D01*
X140900Y13580D01*
X141076Y13314D01*
X141284Y13036D01*
X141796Y12451D01*
X142100Y12142D01*
X137900D01*
X138204Y12451D01*
X138716Y13036D01*
X138924Y13314D01*
X139100Y13580D01*
X139244Y13837D01*
X139356Y14083D01*
X139436Y14318D01*
X139484Y14543D01*
X139500Y14758D01*
X140500D01*
X140516Y14543D01*
D02*
G37*
G36*
X130516D02*
X130564Y14318D01*
X130644Y14083D01*
X130756Y13837D01*
X130900Y13580D01*
X131076Y13314D01*
X131284Y13036D01*
X131796Y12451D01*
X132100Y12142D01*
X127900D01*
X128204Y12451D01*
X128716Y13036D01*
X128924Y13314D01*
X129100Y13580D01*
X129244Y13837D01*
X129356Y14083D01*
X129436Y14318D01*
X129484Y14543D01*
X129500Y14758D01*
X130500D01*
X130516Y14543D01*
D02*
G37*
G36*
X120516D02*
X120564Y14318D01*
X120644Y14083D01*
X120756Y13837D01*
X120900Y13580D01*
X121076Y13314D01*
X121284Y13036D01*
X121796Y12451D01*
X122100Y12142D01*
X117900D01*
X118204Y12451D01*
X118716Y13036D01*
X118924Y13314D01*
X119100Y13580D01*
X119244Y13837D01*
X119356Y14083D01*
X119436Y14318D01*
X119484Y14543D01*
X119500Y14758D01*
X120500D01*
X120516Y14543D01*
D02*
G37*
G36*
X110516D02*
X110564Y14318D01*
X110644Y14083D01*
X110756Y13837D01*
X110900Y13580D01*
X111076Y13314D01*
X111284Y13036D01*
X111796Y12451D01*
X112100Y12142D01*
X107900D01*
X108204Y12451D01*
X108716Y13036D01*
X108924Y13314D01*
X109100Y13580D01*
X109244Y13837D01*
X109356Y14083D01*
X109436Y14318D01*
X109484Y14543D01*
X109500Y14758D01*
X110500D01*
X110516Y14543D01*
D02*
G37*
G36*
X82813Y10905D02*
X82843Y10820D01*
X82893Y10745D01*
X82963Y10680D01*
X83053Y10625D01*
X83163Y10580D01*
X83293Y10545D01*
X83443Y10520D01*
X83613Y10505D01*
X83803Y10500D01*
Y9500D01*
X83613Y9495D01*
X83443Y9480D01*
X83293Y9455D01*
X83163Y9420D01*
X83053Y9375D01*
X82963Y9320D01*
X82893Y9255D01*
X82843Y9180D01*
X82813Y9095D01*
X82803Y9000D01*
Y11000D01*
X82813Y10905D01*
D02*
G37*
G36*
X93775Y8950D02*
X93666Y9054D01*
X93553Y9148D01*
X93437Y9230D01*
X93318Y9302D01*
X93195Y9363D01*
X93069Y9412D01*
X92940Y9450D01*
X92807Y9478D01*
X92671Y9494D01*
X92532Y9500D01*
Y10500D01*
X92671Y10505D01*
X92807Y10522D01*
X92940Y10549D01*
X93069Y10588D01*
X93195Y10638D01*
X93318Y10698D01*
X93437Y10769D01*
X93553Y10852D01*
X93666Y10945D01*
X93775Y11050D01*
Y8950D01*
D02*
G37*
G36*
X81621Y7655D02*
X81596Y7635D01*
X81573Y7602D01*
X81554Y7556D01*
X81537Y7496D01*
X81524Y7424D01*
X81514Y7338D01*
X81502Y7126D01*
X81500Y7000D01*
X80500D01*
X80498Y7126D01*
X80476Y7424D01*
X80462Y7496D01*
X80446Y7556D01*
X80427Y7602D01*
X80404Y7635D01*
X80379Y7655D01*
X80350Y7662D01*
X81650D01*
X81621Y7655D01*
D02*
G37*
D11*
X94000Y191000D02*
Y200000D01*
X152362Y106488D02*
X155905D01*
X147638Y109874D02*
X152362D01*
X32000Y65173D02*
Y86827D01*
X150000Y19000D02*
Y20400D01*
X63000Y13000D02*
X70586Y5414D01*
X63000Y21000D02*
X65000Y23000D01*
X63000Y13000D02*
Y21000D01*
X70586Y5414D02*
X79414D01*
X80847Y10000D02*
X94846D01*
X120000D02*
Y19000D01*
X260551Y109803D02*
X267303D01*
X267500Y110000D01*
X107740Y133000D02*
X129157D01*
X61567Y86827D02*
X107740Y133000D01*
X41842Y86827D02*
X61567D01*
X81000Y7000D02*
Y9847D01*
X80847Y10000D02*
X81000Y9847D01*
X79414Y5414D02*
X81000Y7000D01*
X65000Y23000D02*
Y29000D01*
X59941Y40000D02*
X75000D01*
X23000Y29000D02*
X65000D01*
X21949Y30051D02*
X23000Y29000D01*
X21949Y30051D02*
Y36260D01*
X136276Y153000D02*
X142323D01*
X72117Y147383D02*
X72500Y147000D01*
X70964Y147383D02*
X72117D01*
X67740Y150606D02*
X70964Y147383D01*
X67740Y150606D02*
Y151000D01*
X93617Y147383D02*
X94000Y147000D01*
X91357Y147383D02*
X93617D01*
X90193Y148547D02*
X91357Y147383D01*
X89799Y148547D02*
X90193D01*
X87740Y150606D02*
X89799Y148547D01*
X87740Y150606D02*
Y151000D01*
X57134Y100000D02*
X107740Y150606D01*
Y151000D01*
X37709Y100000D02*
X57134D01*
X117425Y110622D02*
Y118425D01*
X121000Y122000D01*
X125291D02*
X125425Y122134D01*
X121000Y122000D02*
X125291D01*
X111989Y75000D02*
X115732D01*
X110000Y76989D02*
X111989Y75000D01*
X110000Y76989D02*
Y84000D01*
X110383Y84383D01*
X111989D01*
X114449Y86843D01*
X115433D01*
X122000Y67158D02*
X128866D01*
X161000Y59000D02*
X161990Y59990D01*
Y64848D01*
X156541Y59000D02*
X161000D01*
X155541Y60000D02*
X156541Y59000D01*
X155000Y60000D02*
X155541D01*
X154617Y60383D02*
X155000Y60000D01*
X154617Y60383D02*
Y61609D01*
X152362Y63864D02*
X154617Y61609D01*
X152362Y63864D02*
Y64848D01*
X176617Y70617D02*
X177000Y71000D01*
X174209Y70617D02*
X176617D01*
X171793Y68201D02*
X174209Y70617D01*
X170809Y68201D02*
X171793D01*
X170324Y67716D02*
X170809Y68201D01*
X170324Y66732D02*
Y67716D01*
X184134Y122575D02*
X189425D01*
X193000Y119000D01*
X190118Y111575D02*
X193000Y114457D01*
X189134Y111575D02*
X190118D01*
X193000Y114457D02*
Y119000D01*
X189000Y81000D02*
Y81257D01*
X187007Y83250D02*
X189000Y81257D01*
X187007Y83250D02*
Y88417D01*
X177000Y71000D02*
Y71541D01*
X178575Y73116D01*
Y78866D01*
X56669Y158669D02*
X60260D01*
X54000Y156000D02*
X56669Y158669D01*
X76669D02*
X80260D01*
X74000Y156000D02*
X76669Y158669D01*
X94000Y156000D02*
X96669Y158669D01*
X100260D01*
X121480Y167331D02*
X128000D01*
X104000D02*
X114000D01*
X163414Y176000D02*
X164000Y176586D01*
Y191000D01*
X109709Y176000D02*
X163414D01*
X104000Y167331D02*
Y176000D01*
X107740Y158669D02*
X107740Y158669D01*
X107740Y151000D02*
Y158669D01*
X100260Y151000D02*
Y158669D01*
X87740Y151000D02*
X87740Y151000D01*
Y158669D01*
X67740Y151000D02*
X67740Y151000D01*
Y158669D01*
X50000Y182913D02*
Y183000D01*
X56520Y176000D02*
Y176394D01*
X84000Y176000D02*
Y191000D01*
Y167331D02*
Y176000D01*
X74000Y186394D02*
Y191000D01*
X64000Y176394D02*
X74000Y186394D01*
X64000Y176000D02*
Y176394D01*
Y167331D02*
Y176000D01*
X60260Y151000D02*
Y158669D01*
X80260Y151000D02*
Y158669D01*
X32000Y86827D02*
Y100000D01*
X21949Y46894D02*
X22158Y47102D01*
X21949Y36260D02*
Y46894D01*
X22158Y47102D02*
Y65173D01*
X74154Y10000D02*
Y19000D01*
X67500D02*
X74154D01*
X42500Y36260D02*
X50059D01*
X260551Y90803D02*
Y99803D01*
Y119803D02*
Y128803D01*
X241551Y119803D02*
X250551D01*
X241551Y109803D02*
X250551D01*
X241551Y99803D02*
X250551D01*
X110000Y10000D02*
Y19000D01*
X130000Y10000D02*
Y19000D01*
X140000Y10000D02*
Y19000D01*
X150000Y10000D02*
Y19000D01*
X160000Y10000D02*
Y19000D01*
X170000Y10000D02*
Y19000D01*
X180000Y10000D02*
Y19000D01*
X200000Y10000D02*
Y19000D01*
X210000Y10000D02*
Y19000D01*
X220000Y10000D02*
Y19000D01*
X230000Y10000D02*
Y19000D01*
X240000Y10000D02*
Y19000D01*
X250000Y10000D02*
Y19000D01*
Y191000D02*
Y200000D01*
X240000Y191000D02*
Y200000D01*
X230000Y191000D02*
Y200000D01*
X220000Y191000D02*
Y200000D01*
X210000Y191000D02*
Y200000D01*
X200000Y191000D02*
Y200000D01*
X190000Y191000D02*
Y200000D01*
X180000Y191000D02*
Y200000D01*
X164000Y191000D02*
Y200000D01*
X154000Y191000D02*
Y200000D01*
X144000Y191000D02*
Y200000D01*
X134000Y191000D02*
Y200000D01*
X124000Y191000D02*
Y200000D01*
X114000Y191000D02*
Y200000D01*
X104000Y191000D02*
Y200000D01*
X84000Y191000D02*
Y200000D01*
X74000Y191000D02*
Y200000D01*
D35*
X114000Y167331D02*
D03*
X121480D02*
D03*
X100260Y151000D02*
D03*
X107740D02*
D03*
X56520Y176000D02*
D03*
X64000D02*
D03*
X91480D02*
D03*
X84000D02*
D03*
X80260Y151000D02*
D03*
X87740D02*
D03*
X60260D02*
D03*
X67740D02*
D03*
X29740Y47000D02*
D03*
X22260D02*
D03*
X149803Y153000D02*
D03*
X142323D02*
D03*
D36*
X250000Y170000D02*
D03*
X10000Y10000D02*
D03*
Y200000D02*
D03*
D37*
X267500Y110000D02*
D03*
X260551Y128803D02*
D03*
Y90803D02*
D03*
X210000Y19000D02*
D03*
X250000D02*
D03*
X200000D02*
D03*
X220000D02*
D03*
X230000D02*
D03*
X240000D02*
D03*
X154000Y191000D02*
D03*
X144000D02*
D03*
X134000D02*
D03*
X114000D02*
D03*
X104000D02*
D03*
X94000D02*
D03*
X74000D02*
D03*
X164000D02*
D03*
X124000D02*
D03*
X84000D02*
D03*
X240000D02*
D03*
X230000D02*
D03*
X220000D02*
D03*
X200000D02*
D03*
X190000D02*
D03*
X180000D02*
D03*
X250000D02*
D03*
X210000D02*
D03*
X140000Y19000D02*
D03*
X180000D02*
D03*
X110000D02*
D03*
X120000D02*
D03*
X130000D02*
D03*
X150000D02*
D03*
X160000D02*
D03*
X170000D02*
D03*
D38*
X241551Y119803D02*
D03*
Y109803D02*
D03*
Y99803D02*
D03*
D39*
X129157Y133000D02*
D03*
X135260D02*
D03*
X28051Y36260D02*
D03*
X21949D02*
D03*
D40*
X140453Y111449D02*
D03*
Y109874D02*
D03*
Y108299D02*
D03*
Y106724D02*
D03*
Y105150D02*
D03*
Y103575D02*
D03*
Y102000D02*
D03*
Y100425D02*
D03*
Y98850D02*
D03*
Y97276D02*
D03*
Y95701D02*
D03*
Y94126D02*
D03*
Y92551D02*
D03*
X159547D02*
D03*
Y94126D02*
D03*
Y95701D02*
D03*
Y97276D02*
D03*
Y98850D02*
D03*
Y100425D02*
D03*
Y102000D02*
D03*
Y103575D02*
D03*
Y105150D02*
D03*
Y106724D02*
D03*
Y108299D02*
D03*
Y109874D02*
D03*
Y111449D02*
D03*
D41*
X142913Y90484D02*
D03*
X144488D02*
D03*
X146063D02*
D03*
X147638D02*
D03*
X149213D02*
D03*
X150787D02*
D03*
X152362D02*
D03*
X153937D02*
D03*
X155512D02*
D03*
X157087D02*
D03*
Y113516D02*
D03*
X155512D02*
D03*
X153937D02*
D03*
X152362D02*
D03*
X150787D02*
D03*
X149213D02*
D03*
X147638D02*
D03*
X146063D02*
D03*
X144488D02*
D03*
X142913D02*
D03*
D42*
X150000Y102000D02*
D03*
D43*
X124000Y75000D02*
D03*
X115732D02*
D03*
X124000Y78150D02*
D03*
X115732D02*
D03*
X123701Y86843D02*
D03*
X115433D02*
D03*
X123701Y89992D02*
D03*
X115433D02*
D03*
X137134Y67158D02*
D03*
X128866D02*
D03*
X137134Y70307D02*
D03*
X128866D02*
D03*
X175866Y122575D02*
D03*
X184134D02*
D03*
X175866Y119425D02*
D03*
X184134D02*
D03*
X180866Y111575D02*
D03*
X189134D02*
D03*
X180866Y108425D02*
D03*
X189134D02*
D03*
D44*
X117425Y102354D02*
D03*
Y110622D02*
D03*
X120575Y102354D02*
D03*
Y110622D02*
D03*
X125425Y113866D02*
D03*
Y122134D02*
D03*
X128575Y113866D02*
D03*
Y122134D02*
D03*
X152362Y73116D02*
D03*
Y64848D02*
D03*
X149213Y73116D02*
D03*
Y64848D02*
D03*
X161990Y73116D02*
D03*
Y64848D02*
D03*
X158840Y73116D02*
D03*
Y64848D02*
D03*
X170324Y75000D02*
D03*
Y66732D02*
D03*
X167175Y75000D02*
D03*
Y66732D02*
D03*
X187007Y96685D02*
D03*
Y88417D02*
D03*
X183858Y96685D02*
D03*
Y88417D02*
D03*
X178575Y87134D02*
D03*
Y78866D02*
D03*
X175425Y87134D02*
D03*
Y78866D02*
D03*
D45*
X104000Y167331D02*
D03*
X107740Y158669D02*
D03*
X100260D02*
D03*
X84000Y167331D02*
D03*
X87740Y158669D02*
D03*
X80260D02*
D03*
X64000Y167331D02*
D03*
X67740Y158669D02*
D03*
X60260D02*
D03*
D46*
X22158Y86827D02*
D03*
X32000D02*
D03*
X41842D02*
D03*
Y65173D02*
D03*
X32000D02*
D03*
X22158D02*
D03*
D47*
X74154Y19000D02*
D03*
X80847D02*
D03*
X74154Y10000D02*
D03*
X80847D02*
D03*
D48*
X104000Y176000D02*
D03*
X109709D02*
D03*
X37709Y100000D02*
D03*
X32000D02*
D03*
D49*
X91000Y43740D02*
D03*
X104000D02*
D03*
D50*
X59941Y36260D02*
D03*
Y40000D02*
D03*
Y43740D02*
D03*
X50059D02*
D03*
Y36260D02*
D03*
D51*
X128000Y167331D02*
X159669D01*
X205000Y122000D01*
Y72864D02*
Y122000D01*
X120000Y19000D02*
Y28000D01*
X182136Y50000D02*
X205000Y72864D01*
X142000Y50000D02*
X182136D01*
X120000Y28000D02*
X142000Y50000D01*
X29740Y47000D02*
X29842Y47102D01*
X39138D02*
X42500Y43740D01*
X29842Y47102D02*
X39138D01*
X87500Y19000D02*
X98000D01*
X112500Y33500D01*
Y43740D01*
X42500D02*
X50059D01*
X59941Y36260D02*
X67500D01*
X42000Y59200D02*
Y65016D01*
X41842Y65173D02*
X42000Y65016D01*
X36900Y54100D02*
X42000Y59200D01*
X16700Y98800D02*
X22158Y93343D01*
Y86827D02*
Y93343D01*
X112500Y57657D02*
X122000Y67158D01*
X112500Y43740D02*
Y57657D01*
X50000Y182913D02*
X56520Y176394D01*
X91480Y176000D02*
X98000D01*
X28311Y36000D02*
X34000D01*
X28051Y36260D02*
X28311Y36000D01*
X104000Y43740D02*
X112500D01*
X80847Y19000D02*
X87500D01*
X84301Y43740D02*
X91000D01*
X83041Y45000D02*
X84301Y43740D01*
X82500Y45000D02*
X83041D01*
X66959D02*
X67500D01*
X65699Y43740D02*
X66959Y45000D01*
X59941Y43740D02*
X65699D01*
D52*
X152362Y126575D02*
X161000Y135213D01*
X177000D01*
X149803Y153000D02*
X159000D01*
X142000Y127842D02*
X146063Y123779D01*
Y113516D02*
Y123779D01*
X129157Y127842D02*
Y133000D01*
Y127842D02*
X136000Y121000D01*
X135260Y126575D02*
Y133000D01*
Y126575D02*
X144488Y117347D01*
Y113516D02*
Y117347D01*
X152362Y113516D02*
Y126575D01*
X157087Y138000D02*
Y144000D01*
X150787Y131701D02*
X157087Y138000D01*
X150787Y113516D02*
Y131701D01*
X149213Y135213D02*
X154000Y140000D01*
X149213Y113516D02*
Y135213D01*
X157009Y143922D02*
X157087Y144000D01*
X107740Y151000D02*
X126869D01*
X147638Y130231D01*
Y113516D02*
Y130231D01*
X136000Y121000D02*
X136106D01*
X142913Y114192D01*
Y113516D02*
Y114192D01*
X155541Y121405D02*
Y122000D01*
Y121405D02*
X157087Y119859D01*
Y113516D02*
Y119859D01*
X153937Y119800D02*
X155518Y121382D01*
Y121977D01*
Y113522D02*
Y121382D01*
Y121977D02*
X155541Y122000D01*
X155512Y113516D02*
X155518Y113522D01*
X153937Y113516D02*
Y119800D01*
X133016Y111449D02*
X140453D01*
X131583Y112882D02*
X133016Y111449D01*
X131583Y112882D02*
Y118142D01*
X128575Y121150D02*
X131583Y118142D01*
X128575Y121150D02*
Y122134D01*
X131583Y109874D02*
X140453D01*
X128575Y112882D02*
X131583Y109874D01*
X128575Y112882D02*
Y113866D01*
X125728Y110698D02*
X128126Y108299D01*
X140453D01*
X125728Y110698D02*
Y113564D01*
X125425Y113866D02*
X125728Y113564D01*
X126869Y106724D02*
X140453D01*
X122972Y110622D02*
X126869Y106724D01*
X120575Y110622D02*
X122972D01*
X125649Y102354D02*
X128444Y105150D01*
X140453D01*
X120575Y102354D02*
X125649D01*
X123000Y97276D02*
X129299Y103575D01*
X140453D01*
X119976Y97276D02*
X123000D01*
X118009Y99243D02*
X119976Y97276D01*
X118009Y99243D02*
Y101770D01*
X117425Y102354D02*
X118009Y101770D01*
X130874Y102000D02*
X140453D01*
X123000Y94126D02*
X130874Y102000D01*
X120575Y94126D02*
X123000D01*
X120000Y93551D02*
X120575Y94126D01*
X119976Y93551D02*
X120000D01*
X116417Y89992D02*
X119976Y93551D01*
X115433Y89992D02*
X116417D01*
X124282Y92000D02*
X132707Y100425D01*
X140453D01*
X124282Y90573D02*
Y92000D01*
X123701Y89992D02*
X124282Y90573D01*
X134165Y98850D02*
X140453D01*
X128866Y93551D02*
X134165Y98850D01*
X128866Y89000D02*
Y93551D01*
X126869Y87003D02*
X128866Y89000D01*
X123861Y87003D02*
X126869D01*
X123701Y86843D02*
X123861Y87003D01*
X136276Y97276D02*
X140453D01*
X131000Y92000D02*
X136276Y97276D01*
X131000Y87718D02*
Y92000D01*
X124282Y81000D02*
X131000Y87718D01*
X119567Y81000D02*
X124282D01*
X116717Y78150D02*
X119567Y81000D01*
X115732Y78150D02*
X116717D01*
X138000Y95701D02*
X140453D01*
X133000Y90701D02*
X138000Y95701D01*
X133000Y86165D02*
Y90701D01*
X124984Y78150D02*
X133000Y86165D01*
X124000Y78150D02*
X124984D01*
X135000Y82709D02*
Y89989D01*
X139131Y94120D01*
X140446D01*
X140453Y94126D01*
X127291Y75000D02*
X135000Y82709D01*
X124000Y75000D02*
X127291D01*
X137134Y89232D02*
X139770Y91869D01*
Y92545D01*
X139776Y92551D01*
X140453D01*
X137134Y77591D02*
Y89232D01*
X129850Y70307D02*
X137134Y77591D01*
X128866Y70307D02*
X129850D01*
X140307D02*
X142913Y72913D01*
Y90484D01*
X137134Y70307D02*
X140307D01*
X144488Y70557D02*
Y90484D01*
X141089Y67158D02*
X144488Y70557D01*
X137134Y67158D02*
X141089D01*
X146063Y68982D02*
Y90484D01*
Y68982D02*
X149213Y65833D01*
Y64848D02*
Y65833D01*
X147638Y81405D02*
Y90484D01*
Y81405D02*
X149213Y79830D01*
Y73116D02*
Y79830D01*
Y82484D02*
Y90484D01*
Y82484D02*
X152362Y79334D01*
Y73116D02*
Y79334D01*
X150787Y83984D02*
X155905Y78866D01*
X150787Y83984D02*
Y90484D01*
X155905Y68767D02*
Y78866D01*
Y68767D02*
X158840Y65833D01*
Y64848D02*
Y65833D01*
X152362Y85575D02*
Y90484D01*
Y85575D02*
X158840Y79097D01*
Y73116D02*
Y79097D01*
X153937Y87134D02*
Y90484D01*
Y87134D02*
X161990Y79081D01*
Y73116D02*
Y79081D01*
X155518Y88348D02*
X165000Y78866D01*
X155518Y88348D02*
Y90478D01*
X155512Y90484D02*
X155518Y90478D01*
X165000Y69891D02*
Y78866D01*
Y69891D02*
X167175Y67716D01*
Y66732D02*
Y67716D01*
Y75000D02*
Y79720D01*
X157087Y89808D02*
X167175Y79720D01*
X157087Y89808D02*
Y90484D01*
X161990Y92551D02*
X170324Y84216D01*
Y75000D02*
Y84216D01*
X159547Y92551D02*
X161990D01*
X175448Y122157D02*
X175866Y122575D01*
X172698Y122157D02*
X175448D01*
X161990Y111449D02*
X172698Y122157D01*
X159547Y111449D02*
X161990D01*
X174882Y119425D02*
X175866D01*
X165331Y109874D02*
X174882Y119425D01*
X159547Y109874D02*
X165331D01*
X183858Y117000D02*
Y119149D01*
X184134Y119425D01*
X182858Y116000D02*
X183858Y117000D01*
X173545Y116000D02*
X182858D01*
X165844Y108299D02*
X173545Y116000D01*
X159547Y108299D02*
X165844D01*
X187007Y96685D02*
Y99803D01*
X184810Y102000D02*
X187007Y99803D01*
X159547Y102000D02*
X184810D01*
X177000Y96685D02*
X183858D01*
X173260Y100425D02*
X177000Y96685D01*
X159547Y100425D02*
X173260D01*
X181852Y89000D02*
X183275D01*
X183858Y88417D01*
X172002Y98850D02*
X181852Y89000D01*
X159547Y98850D02*
X172002D01*
X162441Y94126D02*
X172567Y84000D01*
X159547Y94126D02*
X162441D01*
X172567Y82709D02*
Y84000D01*
Y82709D02*
X175425Y79850D01*
Y78866D02*
Y79850D01*
X159547Y97276D02*
X165000D01*
X169724Y92551D01*
X175425D01*
X177991Y89986D01*
Y87718D02*
Y89986D01*
Y87718D02*
X178575Y87134D01*
X159547Y95701D02*
X164000D01*
X172567Y87134D01*
X175425D01*
X159547Y103575D02*
X170000D01*
X172133Y105708D01*
X185432D01*
X188150Y108425D01*
X189134D01*
X159547Y106724D02*
X167175D01*
X172025Y111575D01*
X180866D01*
X159547Y105150D02*
X168415D01*
X171690Y108425D01*
X180866D01*
D53*
X250551Y119803D02*
D03*
X260551D02*
D03*
X250551Y109803D02*
D03*
X260551D02*
D03*
X250551Y99803D02*
D03*
X260551D02*
D03*
D54*
X147638Y109874D02*
D03*
X152362D02*
D03*
X147638Y94126D02*
D03*
X152362D02*
D03*
X144095Y106488D02*
D03*
X147638D02*
D03*
X152362D02*
D03*
X155905D02*
D03*
X144095Y97512D02*
D03*
X147638D02*
D03*
X152362D02*
D03*
X155905D02*
D03*
Y102000D02*
D03*
X152362D02*
D03*
X147638D02*
D03*
X144095D02*
D03*
D55*
X250000Y10000D02*
D03*
X164000Y200000D02*
D03*
X250000D02*
D03*
X180000Y10000D02*
D03*
D56*
X240000D02*
D03*
X230000D02*
D03*
X220000D02*
D03*
X210000D02*
D03*
X200000D02*
D03*
X154000Y200000D02*
D03*
X144000D02*
D03*
X134000D02*
D03*
X124000D02*
D03*
X114000D02*
D03*
X104000D02*
D03*
X94000D02*
D03*
X84000D02*
D03*
X74000D02*
D03*
X230000D02*
D03*
X240000D02*
D03*
X180000D02*
D03*
X190000D02*
D03*
X200000D02*
D03*
X210000D02*
D03*
X220000D02*
D03*
X150000Y10000D02*
D03*
X140000D02*
D03*
X130000D02*
D03*
X120000D02*
D03*
X110000D02*
D03*
X170000D02*
D03*
X160000D02*
D03*
D57*
X60000Y200000D02*
D03*
X55000Y10000D02*
D03*
X260000Y140000D02*
D03*
Y30000D02*
D03*
D58*
X94846Y10000D02*
D03*
X36900Y54100D02*
D03*
X16700Y98800D02*
D03*
X75000Y40000D02*
D03*
X65000Y29000D02*
D03*
X136276Y153000D02*
D03*
X177000Y135213D02*
D03*
X159000Y153000D02*
D03*
X142000Y127842D02*
D03*
X154000Y140000D02*
D03*
X72500Y147000D02*
D03*
X157087Y144000D02*
D03*
X94000Y147000D02*
D03*
X136000Y121000D02*
D03*
X155541Y122000D02*
D03*
X121000D02*
D03*
X110000Y84000D02*
D03*
X122000Y67158D02*
D03*
X155000Y60000D02*
D03*
X193000Y119000D02*
D03*
X189000Y81000D02*
D03*
X177000Y71000D02*
D03*
X54000Y156000D02*
D03*
X74000D02*
D03*
X94000D02*
D03*
X128000Y167331D02*
D03*
X50000Y183000D02*
D03*
X98000Y176000D02*
D03*
X71106Y183500D02*
D03*
X84000D02*
D03*
X34000Y36000D02*
D03*
X112500Y43740D02*
D03*
X87500Y19000D02*
D03*
X67500D02*
D03*
X42500Y36260D02*
D03*
X67500D02*
D03*
X42500Y43740D02*
D03*
X82500Y45000D02*
D03*
X67500D02*
D03*
M02*
