G04*
G04 #@! TF.GenerationSoftware,Altium Limited,Altium Designer,19.1.5 (86)*
G04*
G04 Layer_Color=65535*
%FSLAX25Y25*%
%MOIN*%
G70*
G01*
G75*
%ADD10C,0.01000*%
%ADD11C,0.01968*%
%ADD12C,0.00787*%
%ADD13C,0.00500*%
D10*
X18000Y10000D02*
G03*
X18000Y10000I-8000J0D01*
G01*
Y40000D02*
G03*
X18000Y40000I-8000J0D01*
G01*
D11*
X57501Y11999D02*
G03*
X57501Y11999I-1001J0D01*
G01*
D12*
X22744Y19094D02*
G03*
X22744Y19094I-394J0D01*
G01*
X52500Y20833D02*
Y40000D01*
Y10000D02*
Y40000D01*
X32500Y10000D02*
Y40000D01*
Y10000D02*
X52500D01*
X32500Y40000D02*
X52500D01*
X20000Y38500D02*
X25000D01*
D13*
X20776Y20197D02*
X30224D01*
X20776D02*
Y29803D01*
X30224D01*
Y20197D02*
Y29803D01*
X34500Y42000D02*
Y44999D01*
X36000D01*
X36499Y44499D01*
Y43499D01*
X36000Y43000D01*
X34500D01*
X37499Y42000D02*
X38499D01*
X37999D01*
Y44999D01*
X37499Y44499D01*
X28499Y46999D02*
X27999Y47499D01*
X27000D01*
X26500Y46999D01*
Y45000D01*
X27000Y44500D01*
X27999D01*
X28499Y45000D01*
X29499Y44500D02*
X30499D01*
X29999D01*
Y47499D01*
X29499Y46999D01*
X16000Y28999D02*
Y26500D01*
X16500Y26000D01*
X17500D01*
X17999Y26500D01*
Y28999D01*
X18999Y26000D02*
X19999D01*
X19499D01*
Y28999D01*
X18999Y28499D01*
M02*
